<svg width="888" height="464" viewBox="0 0 888 464" fill="none" xmlns="http://www.w3.org/2000/svg">
<path d="M329.696 43.8958C322.297 45.0238 314.751 45.1984 307.426 46.6665C251.718 57.823 -24.6983 154.248 32.0995 292.48C90.5019 434.621 682.109 407.895 792.242 334.53C901.532 261.729 823.461 -31.3394 329.696 43.8958Z" fill="#E5F2FF"/>
<path d="M7.77704 406.968C7.77704 393.227 204.822 382.088 447.888 382.088C690.956 382.088 888 393.227 888 406.968C888 420.71 690.956 431.849 447.888 431.849C204.822 431.849 7.77704 420.71 7.77704 406.968Z" fill="#E5F2FF"/>
<path d="M216.229 403.809H204.744C201.673 403.809 199.162 401.541 199.162 398.772C199.162 396 201.673 393.733 204.744 393.733H216.229C219.3 393.733 221.813 396 221.813 398.772C221.813 401.541 219.3 403.809 216.229 403.809Z" fill="#1D0A0A"/>
<path d="M689.75 403.809H678.263C675.194 403.809 672.681 401.541 672.681 398.772C672.681 396 675.194 393.733 678.263 393.733H689.75C692.819 393.733 695.332 396 695.332 398.772C695.332 401.541 692.819 403.809 689.75 403.809Z" fill="#1D0A0A"/>
<path d="M662.573 137.074L231.921 161.849C220.756 161.849 211.704 170.016 211.704 180.09L210.487 300.902H684.391L682.789 155.315C682.789 145.241 673.739 137.074 662.573 137.074Z" fill="#FAC877"/>
<path d="M684.007 399.228H210.486V365.008H684.007V399.228Z" fill="#DFAD5F"/>
<path d="M684.007 365.01H210.489V300.538H684.007V365.01Z" fill="#FFCD8A"/>
<path d="M210.487 399.229H188.251C176.053 399.229 166.163 390.305 166.163 379.299L152.336 239.589C152.336 231.246 159.83 224.484 169.075 224.484H210.487V399.229Z" fill="#FFCD8A"/>
<path d="M705.126 399.229H684.007V224.484H725.417C734.663 224.484 742.158 231.246 742.158 239.589L727.216 379.299C727.216 390.305 717.327 399.229 705.126 399.229Z" fill="#FFCD8A"/>
<g opacity="0.580002">
<path opacity="0.580002" d="M356.775 304.052H353.892V365.009H356.775V304.052Z" fill="#DFAD5F"/>
</g>
<g opacity="0.580002">
<path opacity="0.580002" d="M535.054 304.052H532.17V365.009H535.054V304.052Z" fill="#DFAD5F"/>
</g>
<g opacity="0.580002">
<path opacity="0.580002" d="M684.007 365.01H681.12V300.538H684.007V365.01Z" fill="#DFAD5F"/>
</g>
<g opacity="0.580002">
<path opacity="0.580002" d="M213.376 365.01H210.489V300.538H213.376V365.01Z" fill="#DFAD5F"/>
</g>
<path d="M578.771 185.56C578.771 185.56 582.342 193.552 573.743 198.069C565.145 202.587 570.965 206.495 566.396 211.411C561.829 216.327 545.327 208.256 545.952 223.774C546.578 239.29 590.594 248.325 600.191 232.325C609.788 216.327 578.771 185.56 578.771 185.56Z" fill="#1D0A0A"/>
<path d="M581.472 192.529C581.472 192.529 606.496 201.398 600.464 216.173C594.432 230.947 583.091 246.623 605.049 245.317C627.005 244.011 603.36 249.889 627.005 244.011C650.653 238.133 649.446 213.095 638.829 208.307C628.212 203.516 584.196 189.38 581.472 192.529Z" fill="#1D0A0A"/>
<path d="M286.007 286.266C286.007 286.266 283.493 288.543 273.224 286.266C262.955 283.989 248.704 282.665 241.998 289.472C235.291 296.28 232.149 300.537 236.759 300.537C241.369 300.537 277.03 299.683 282.026 300.05C287.023 300.417 286.007 286.266 286.007 286.266Z" fill="#FFA12D"/>
<path d="M593.993 168.674C593.993 168.674 586.98 160.474 580.202 176.114C573.426 191.756 590.227 199.871 592.12 205.864C594.011 211.858 619.567 217.54 632.017 196.922C644.466 176.305 614.557 151.026 593.993 168.674Z" fill="#1D0A0A"/>
<path d="M588.86 182.635C586.203 185.642 585.095 189.513 585.372 193.35C585.612 196.688 585.45 201.41 583.265 204.771C579.531 210.514 587.352 226.964 598.916 228.83C602.857 229.467 615.302 225.213 616.854 214.854C617.926 207.699 623.714 187.485 611.106 181.841C601.255 177.433 594.146 176.652 588.86 182.635Z" fill="#E99368"/>
<path d="M604.691 289.12C601.343 291.142 597.543 292.955 593.398 294.57C573.803 302.218 546.332 305.541 521.575 306.864C489.519 308.583 462.013 306.937 462.013 306.937L463.479 297.581L468.006 268.752L470.177 254.946C470.177 255.634 470.731 264.761 501.367 245.07C533.167 224.648 557.954 217.555 567.924 216.626C582.08 215.308 575.579 227.691 589.125 229.9C597.055 231.192 608.767 233.182 621.354 230.14C632.763 227.378 644.263 265.148 604.691 289.12Z" fill="#7AAEDE"/>
<path d="M477.141 267.606C477.141 267.606 444.611 290.214 427.775 278.472C424.161 275.951 421.667 272.117 420.003 267.658C414.103 251.956 418.248 228.451 418.572 226.691C414.785 243.996 391.113 261.574 373.065 272.731C361.344 279.984 352.002 284.526 352.002 284.526L326.31 286.266C326.31 286.266 330.097 283.015 336.021 277.201H336.032C344.07 269.293 356.044 256.645 367.764 240.965C385.224 217.605 417.06 179.368 432.753 184.421C446.055 188.703 472.332 244.824 479.376 262.087C480.635 265.192 476.966 267.574 477.141 267.606Z" fill="#7AAEDE"/>
<path d="M545.13 301.405C541.69 303.968 533.318 305.728 521.574 306.863C465.673 312.293 333.33 303.696 292.372 300.801C284.566 300.247 280.074 299.904 280.074 299.904C280.074 299.904 279.232 298.248 278.966 295.924C278.977 295.913 278.966 295.903 278.966 295.893C278.528 291.902 279.82 285.964 290.04 283.13C292.326 282.494 382.926 271.273 405.836 269.085C426.991 267.064 443.606 265.98 468.005 268.752C470.016 268.981 472.071 269.231 474.196 269.512C493.687 272.096 531.77 278.306 545.119 287.651C550.868 291.662 552.024 296.268 545.13 301.405Z" fill="#7AAEDE"/>
<path d="M587.608 175.83C587.608 175.83 588.629 186.04 599.692 189.418C610.755 192.797 606.67 199.282 615.692 207.711C624.712 216.14 636.967 223.818 631.18 232.111C625.393 240.403 654.256 237.883 661.876 228.859C672.59 216.173 659.944 211.002 653.135 201.208C646.328 191.415 647.807 181.591 638.381 177.131C628.955 172.672 628.374 171.651 627.433 170.239C626.492 168.825 587.608 175.83 587.608 175.83Z" fill="#1D0A0A"/>
<path d="M630.449 211.962C630.449 211.962 630.123 225.443 611.68 243.484C592.844 261.91 613.777 278.714 637.548 248.926C648.891 234.712 642.313 211.723 640.37 202.592C638.072 191.798 632.402 188.087 623.774 199.516C615.148 210.943 631.562 223.012 627.452 211.33C626.521 208.684 630.449 211.962 630.449 211.962Z" fill="#E99368"/>
<path d="M592.884 213.331C592.884 213.331 591.893 219.341 590.321 224.473C589.708 226.48 589.003 228.351 588.236 229.678C586.163 233.26 589.534 235.858 593.957 236.498C598.685 237.183 605.09 235.472 609.073 231.798L612.407 222.953L617.523 209.378L592.884 213.331Z" fill="#E99368"/>
<path d="M442.902 265.188L420.004 267.658C414.103 251.956 418.248 228.451 418.572 226.691C414.786 243.996 391.113 261.574 373.065 272.732C373.065 272.732 340.466 276.67 336.356 277.16C372.28 272.491 368.053 260.253 397.108 245.057C412.043 237.246 421.841 219.376 421.841 219.376C424.635 236.35 442.902 265.188 442.902 265.188Z" fill="#6B97C2"/>
<path d="M609.54 267.085C609.54 267.085 606.238 279.859 593.398 294.569C573.803 302.217 546.331 305.541 521.574 306.864C465.673 312.292 320.721 303.931 279.763 301.035C278.569 300.986 278.966 295.892 278.966 295.923C278.943 295.914 278.92 295.904 278.896 295.892H278.966C281.391 295.82 346.424 294.059 373.931 295.892C394.67 297.279 432.256 299.164 463.479 297.58C523.108 294.556 468.722 268.46 477.141 267.606C491.228 266.178 536.123 284.106 554.901 279.802C579.3 274.218 593.271 273.45 604.39 260.25L609.54 267.085Z" fill="#6B97C2"/>
<path d="M494.422 210.489L523.705 228.858L567.389 230.468V235.728L503.072 237.156L488.967 219.375L494.422 210.489Z" fill="white"/>
<path d="M488.4 210.489L491.474 212.272L521.931 229.925L570.265 233.037L552.139 285.241L515.132 286.267L485.035 269.619L488.4 210.489Z" fill="#CA4400"/>
<path d="M487.697 239.646C487.697 239.646 486.528 246.324 498.071 243.459C503.236 242.178 502.75 249.409 496.609 259.309C492.802 265.444 489.629 271.108 480.943 267.612C473.828 264.749 469.713 244.314 487.697 239.646Z" fill="#E99368"/>
<path d="M521.93 229.925L515.133 286.266L556.116 285.13L570.266 233.037L521.93 229.925Z" fill="#DC4B00"/>
<path d="M591.978 202.001C591.978 202.994 591.464 203.799 590.829 203.799C590.195 203.799 589.681 202.994 589.681 202.001C589.681 201.008 590.195 200.203 590.829 200.203C591.464 200.203 591.978 201.008 591.978 202.001Z" fill="#5F3926"/>
<path d="M609.075 202.551C609.075 203.544 608.561 204.349 607.926 204.349C607.291 204.349 606.776 203.544 606.776 202.551C606.776 201.558 607.291 200.753 607.926 200.753C608.561 200.753 609.075 201.558 609.075 202.551Z" fill="#5F3926"/>
<path d="M592.884 215.19C592.884 215.19 593.696 211.895 596.667 211.992C599.635 212.087 602.032 216.535 602.032 216.535C602.032 216.535 596.522 223.744 592.884 215.19Z" fill="#C77557"/>
<path d="M603.779 215.331C603.807 215.374 603.173 215.808 601.986 216.237C600.821 216.686 598.988 217.035 597.035 216.654C595.073 216.312 593.549 215.365 592.61 214.6C591.666 213.819 591.258 213.193 591.325 213.151C591.394 213.103 591.909 213.625 592.886 214.302C593.863 214.966 595.331 215.798 597.156 216.116C598.971 216.471 600.685 216.21 601.847 215.87C603.022 215.55 603.728 215.242 603.779 215.331Z" fill="#A66748"/>
<path d="M588.156 196.757C588.156 196.757 590.442 195.27 592.884 195.561C592.884 195.561 593.663 192.764 590.234 193.816C588.166 194.45 588.156 196.757 588.156 196.757Z" fill="#1D0A0A"/>
<path d="M610.728 196.757C610.728 196.757 608.443 195.27 606 195.561C606 195.561 605.221 192.764 608.65 193.816C610.718 194.45 610.728 196.757 610.728 196.757Z" fill="#1D0A0A"/>
<path d="M591.324 225.295C591.324 225.295 596.751 232.514 612.08 223.823C612.08 223.823 602.313 239.284 591.324 225.295Z" fill="#C77557"/>
<path d="M628.224 210.463C628.224 210.463 627.883 210.225 627.431 210.051C626.817 209.814 625.997 209.696 625.559 210.463C624.8 211.794 626.869 217.024 628.801 216.556C630.732 216.088 630.595 212.459 630.732 211.411" fill="#C77557"/>
<path d="M604.421 257.874C604.421 257.874 607.859 262.71 619.111 253.029C630.362 243.349 643.922 223.549 643.922 223.549L645.39 236.792C645.39 236.792 614.372 291.759 604.421 257.874Z" fill="#C77557"/>
<path d="M687.128 219.377L685.893 251.488C685.684 256.989 684.46 262.386 682.312 267.47C680.164 272.544 677.092 277.305 673.19 281.536C661.677 294.017 644.68 301.353 626.677 301.602L579.68 302.248C575.431 302.301 572.924 298.592 573.987 295.445C574.287 294.549 574.864 293.695 575.789 292.986C588.374 283.265 607.878 267.481 622.544 252.384C645.997 228.212 677.288 214.814 677.288 214.814C679.911 213.532 681.827 213.303 683.235 213.636C686.953 214.531 687.128 219.377 687.128 219.377Z" fill="#FFA12D"/>
<path d="M687.128 219.377L685.893 251.488C685.684 256.989 684.46 262.386 682.312 267.47C680.164 272.544 677.092 277.305 673.19 281.536C661.677 294.017 644.68 301.353 626.677 301.602L579.68 302.248C575.431 302.301 572.924 298.592 573.987 295.445C573.987 295.445 604.323 303.04 646.077 272.898C682.728 246.444 672.382 224.899 683.235 213.636C686.953 214.531 687.128 219.377 687.128 219.377Z" fill="#EC9227"/>
<path d="M236.97 294.948C236.97 294.948 226.609 303.78 248.071 302.773C269.534 301.768 376.499 311.341 442.902 311.857C509.306 312.372 582.118 304.316 605.924 308.624C629.732 312.932 678.234 308.307 681.12 300.538C684.007 292.768 687.626 263.198 683.577 264.124C683.577 264.124 655.89 301.019 630.435 301.444C582.41 302.248 573.865 297.977 573.865 297.977C514.339 299.601 423.674 306.403 368.635 302.027C308.515 297.245 236.76 302.773 236.97 294.948Z" fill="#DFAD5F"/>
<path d="M622.558 197.691C622.533 197.718 622.083 197.433 621.396 196.793C620.711 196.157 619.772 195.17 618.889 193.782C618.445 193.092 618.016 192.301 617.67 191.408C617.307 190.511 617.104 189.541 616.656 188.611C615.814 186.712 614.003 185.02 611.599 184.075C609.208 183.108 606.68 182.748 604.408 182.506C602.09 182.299 599.874 181.364 599.068 179.805C598.243 178.303 598.455 176.91 598.632 176.056C598.834 175.179 599.082 174.732 599.119 174.745C599.161 174.758 598.992 175.224 598.867 176.09C598.759 176.934 598.645 178.279 599.447 179.622C600.222 181.002 602.23 181.82 604.465 182.002C606.773 182.221 609.353 182.566 611.853 183.575C613.094 184.085 614.233 184.764 615.143 185.603C616.059 186.44 616.725 187.425 617.174 188.413C617.633 189.41 617.823 190.41 618.148 191.26C618.461 192.129 618.856 192.907 619.266 193.593C620.079 194.972 620.95 195.979 621.571 196.651C622.196 197.324 622.587 197.661 622.558 197.691Z" fill="#462020"/>
<path d="M627.531 191.132C627.465 191.275 626.375 190.669 625.274 189.256C624.706 188.562 624.089 187.702 623.465 186.718C622.844 185.716 622.22 184.66 621.238 183.748C619.287 181.905 616.801 181.023 615.033 180.545C613.239 180.063 612.071 179.96 612.079 179.88C612.079 179.81 613.278 179.773 615.143 180.169C616.979 180.561 619.601 181.412 621.679 183.368C622.719 184.33 623.387 185.499 623.954 186.471C624.545 187.458 625.116 188.325 625.627 189.032C626.137 189.742 626.6 190.282 626.949 190.626C627.296 190.98 627.54 191.101 627.531 191.132Z" fill="#462020"/>
<g opacity="0.639999">
<g opacity="0.639999">
<path opacity="0.639999" d="M363.553 236.164C358.914 225.978 366.601 219.377 366.601 219.377L348.257 219.376L348.248 219.614L344.052 219.93C336.911 220.116 330.886 220.426 326.3 220.721C321.269 221.046 317.93 225.568 319.528 229.886C322.283 237.329 325.939 246.723 327.245 245.742C328.841 244.542 326.559 233.347 325.569 228.854C325.34 227.819 326.088 226.819 327.237 226.622C328.922 226.333 331.328 225.962 333.295 225.818C335.199 229.07 336.3 232.847 333.374 239.646C328.778 250.328 321.488 251.792 327.716 265.189C331.943 274.278 336.032 277.201 336.032 277.201H351.409V277.19L360.278 277.159C385.02 260.249 367.941 245.798 363.553 236.164Z" fill="white"/>
</g>
</g>
<path d="M335.359 220.373C335.359 220.373 333.621 218.947 334.096 217.768C334.571 216.59 360.574 215.61 361.524 216.528C362.475 217.446 360.743 219.538 360.743 219.538L335.359 220.373Z" fill="#DC4B00"/>
<path d="M363.691 245.383C362.993 244.421 361.792 243.848 360.518 243.89C355.092 244.062 340.095 244.559 336.357 244.881C331.767 245.275 327.616 253.117 330.601 262.087C332.983 269.249 338.474 275.533 338.474 275.533H358.488C358.488 275.533 376.317 262.817 363.691 245.383Z" fill="white"/>
<path d="M563.325 116.172L301.127 128.855V11.1699H563.325V116.172Z" fill="white"/>
<path d="M432.226 0H425.766V137.439H432.226V0Z" fill="#E5F2FF"/>
<path d="M106.649 316.332C106.128 318.368 106.598 272.274 79.3237 246.229C52.0487 220.184 36.191 192.833 50.1464 162.727C64.1006 132.62 75.8145 128.856 75.8145 128.856C75.8145 128.856 90.2084 184.353 106.649 204.844C123.09 225.334 96.2054 257.874 96.2054 257.874C96.2054 257.874 114.346 286.266 106.649 316.332Z" fill="#C4E3FF"/>
<path d="M136.708 140.077C136.708 140.077 97.2243 184.667 101.338 218.269C105.45 251.87 106.649 235.116 106.649 235.116C106.649 235.116 193.211 188.176 181.411 123.909C169.611 59.6424 163.853 55.1904 163.853 55.1904C163.853 55.1904 156.581 112.499 136.708 140.077Z" fill="#C4E3FF"/>
<path d="M57.4954 292.481H142.878L128.377 397.009H77.3549L57.4954 292.481Z" fill="#C4E3FF"/>
<g opacity="0.309998">
<g opacity="0.309998">
<path opacity="0.309998" d="M368.212 71.0148L0 243.177L44.981 339.826L368.212 71.0148Z" fill="white"/>
</g>
</g>
<g opacity="0.309998">
<g opacity="0.309998">
<path opacity="0.309998" d="M373.384 92.7351L348.902 100.577L24.4521 427.568L199.16 464L373.384 92.7351Z" fill="white"/>
</g>
</g>
<g opacity="0.639999">
<g opacity="0.639999">
<path opacity="0.639999" d="M378.405 248.378C377.489 247.736 385.507 277.16 385.507 277.16L398.335 277.202L402.975 246.228L378.405 248.378Z" fill="white"/>
</g>
</g>
<path d="M382.693 258.095L398.169 256.959L396.435 275.533H386.561L382.693 258.095Z" fill="white"/>
<path d="M732.24 42.9664L702.056 128.856L855.257 119.557L813.281 38.9872L732.24 42.9664Z" fill="#C4E3FF"/>
<path d="M776.403 108.488C776.889 113.938 777.144 398.127 777.144 398.127L792.067 397.009L783.668 100.576L776.403 108.488Z" fill="#C4E3FF"/>
<path d="M746.995 401.983C748.962 401.539 825.185 403.808 825.185 403.808L812.4 390.446L746.995 393.733V401.983Z" fill="#C4E3FF"/>
<path d="M443.397 284.453H277.16C274.937 284.453 273.119 282.812 273.119 280.806C273.119 278.802 274.937 277.159 277.16 277.159H443.397C445.621 277.159 447.439 278.802 447.439 280.806C447.439 282.812 445.621 284.453 443.397 284.453Z" fill="#1D0A0A"/>
<path d="M275.455 405.349C275.607 405.006 271.906 405.349 271.906 405.349C278.35 375.835 301.274 284.425 301.274 284.425H313.322L275.455 405.349Z" fill="#1D0A0A"/>
<path d="M447.076 405.349C446.924 405.006 450.626 405.349 450.626 405.349C444.181 375.835 421.259 284.425 421.259 284.425H409.209L447.076 405.349Z" fill="#1D0A0A"/>
</svg>
