<svg width="284" height="447" viewBox="0 0 284 447" fill="none" xmlns="http://www.w3.org/2000/svg">
<g opacity="0.2">
<path d="M253.945 187.026V117.115H236.836V71.7033H225.255V117.115H208.146V187.026H198.67V29.8764H179.456V14.9382H153.924V0H128.655V14.9382H104.703V29.8764H83.9091V186.429H72.8541V116.518H55.7452V71.1058H44.1639V116.518H27.055V186.429H16V434.402H41.2685V346.566H58.6406V434.402H126.55V332.225H156.03V434.402H197.091V435H222.359V347.163H239.731V435H265V187.026H253.945ZM25.0809 216.902H35.083V234.828H25.0809V216.902ZM25.2125 267.095H35.2146V285.021H25.2125V267.095ZM35.3462 335.213H25.3441V317.287H35.3462V335.213ZM61.5359 173.283H38.3731V162.527H61.5359V173.283ZM61.5359 157.747H38.3731V146.992H61.5359V157.747ZM61.5359 142.212H38.3731V131.456H61.5359V142.212ZM64.8261 216.902H74.8282V234.828H64.8261V216.902ZM64.9577 267.095H74.9598V285.021H64.9577V267.095ZM75.0914 335.213H65.0893V317.287H75.0914V335.213ZM116.021 305.337H97.5962V286.813H116.021V305.337ZM116.021 252.157H97.5962V233.633H116.021V252.157ZM116.021 198.977H97.5962V180.453H116.021V198.977ZM116.021 145.797H97.5962V127.273H116.021V145.797ZM116.021 92.6168H97.5962V74.0934H116.021V92.6168ZM150.502 305.337H132.077V286.813H150.502V305.337ZM150.502 252.157H132.077V233.633H150.502V252.157ZM150.502 198.977H132.077V180.453H150.502V198.977ZM150.502 145.797H132.077V127.273H150.502V145.797ZM150.502 92.6168H132.077V74.0934H150.502V92.6168ZM184.983 305.337H166.558V286.813H184.983V305.337ZM184.983 252.157H166.558V233.633H184.983V252.157ZM184.983 198.977H166.558V180.453H184.983V198.977ZM184.983 145.797H166.558V127.273H184.983V145.797ZM184.983 92.6168H166.558V74.0934H184.983V92.6168ZM206.172 217.5H216.174V235.426H206.172V217.5ZM206.303 267.692H216.305V285.618H206.303V267.692ZM216.437 335.81H206.435V317.885H216.437V335.81ZM242.627 173.881H219.464V163.125H242.627V173.881ZM242.627 158.345H219.464V147.589H242.627V158.345ZM242.627 142.809H219.464V132.054H242.627V142.809ZM245.917 217.5H255.919V235.426H245.917V217.5ZM246.049 267.692H256.051V285.618H246.049V267.692ZM256.182 335.81H246.18V317.885H256.182V335.81Z" fill="#A0A0B2"/>
<path d="M32.4192 399.382C32.3436 400.764 32.2253 402.31 32.0425 403.934L35.3454 399.197L35.3636 399.276C35.1616 398.136 34.8364 397.039 34.3975 396.016L34.4186 396.091L32.4192 399.382Z" fill="#6C63FF"/>
<path d="M32.4321 399.139L34.3689 395.952C33.9569 394.979 33.3608 394.158 32.6366 393.564C32.6011 393.537 32.5654 393.511 32.5298 393.486C32.5403 393.862 32.5911 396.072 32.4321 399.139Z" fill="#6C63FF"/>
<path d="M30.6848 411.636C30.5997 411.971 30.5118 412.3 30.4211 412.623L35.2853 408.935L35.2921 409.027C35.3937 408.454 35.4784 407.88 35.546 407.307L30.6892 411.678L30.6848 411.636Z" fill="#6C63FF"/>
<path d="M31.3612 408.54L35.742 403.868L35.7545 403.955C35.7699 402.41 35.6439 400.868 35.3789 399.362L32.013 404.189C31.8362 405.711 31.619 407.161 31.3612 408.54Z" fill="#6C63FF"/>
<path d="M31.9379 404.097L26.6959 396.533L26.724 396.448C26.2312 397.345 25.8099 398.304 25.4662 399.311L31.4481 407.548C31.653 406.346 31.8131 405.182 31.9379 404.097Z" fill="#6C63FF"/>
<path d="M25.4097 399.482L25.4099 399.482C25.4194 399.454 25.4276 399.423 25.4372 399.395L25.4097 399.482Z" fill="#6C63FF"/>
<path d="M25.1181 400.409L25.0911 400.496C25.0997 400.466 25.1096 400.439 25.1183 400.41L25.1181 400.409Z" fill="#6C63FF"/>
<path d="M31.4137 407.748L25.41 399.482C25.3085 399.782 25.2112 400.092 25.1182 400.41L31.2544 408.623C31.3102 408.33 31.3633 408.038 31.4137 407.748Z" fill="#6C63FF"/>
<path d="M35.5589 407.197C35.6784 406.157 35.7436 405.108 35.7539 404.057L31.3138 408.792C31.1379 409.711 30.9443 410.594 30.7331 411.441L35.5494 407.106L35.5589 407.197Z" fill="#6C63FF"/>
<path d="M24.322 407.786L29.1818 415.986C29.5811 414.987 29.9337 413.959 30.2378 412.907L24.3079 404.852C24.2492 405.859 24.2426 406.87 24.2884 407.878L24.322 407.786Z" fill="#6C63FF"/>
<path d="M32.4409 393.479L32.4845 393.454C31.4202 392.718 30.268 392.797 29.1636 393.543L32.3465 399.134C32.5178 395.815 32.4421 393.512 32.4409 393.479Z" fill="#6C63FF"/>
<path d="M30.2634 413.172C29.9845 414.119 29.6659 415.046 29.309 415.948L34.1973 412.677L34.2023 412.768C34.5706 411.964 34.8586 411.102 35.0594 410.203C35.137 409.85 35.2079 409.496 35.2719 409.14L30.3498 412.873C30.3211 412.973 30.2927 413.073 30.2634 413.172Z" fill="#6C63FF"/>
<path d="M32.3334 399.381L29.0775 393.662L29.108 393.58C28.1762 394.277 27.3754 395.233 26.7632 396.378L31.9624 403.881C32.1424 402.275 32.2589 400.747 32.3334 399.381Z" fill="#6C63FF"/>
<path d="M30.2911 412.722C30.6536 411.443 30.9625 410.14 31.2166 408.818L25.0652 400.585C24.9188 401.099 24.7843 401.634 24.6617 402.19C24.4917 402.986 24.3782 403.801 24.3226 404.625L30.2864 412.725L30.2911 412.722Z" fill="#6C63FF"/>
<path d="M36.6094 421.605C35.8696 422.607 35.016 423.7 34.074 424.8L38.9542 423.876L38.9291 423.952C39.3358 422.908 39.6266 421.794 39.7929 420.644L39.7723 420.72L36.6094 421.605Z" fill="#6C63FF"/>
<path d="M39.6459 417.304C39.6321 417.253 39.6173 417.204 39.6024 417.155C39.4249 417.454 38.374 419.198 36.739 421.429L39.8027 420.571C39.965 419.483 39.911 418.358 39.6459 417.304V417.304Z" fill="#6C63FF"/>
<path d="M29.23 429.612C28.9992 429.8 28.7692 429.981 28.54 430.155L34.1054 431.327L34.065 431.404C34.4261 431.046 34.7742 430.674 35.1091 430.288L29.2126 429.648L29.23 429.612Z" fill="#6C63FF"/>
<path d="M31.2778 427.786L36.9563 427.801L36.9227 427.879C37.6966 426.701 38.3599 425.41 38.8989 424.031L33.9256 424.973C33.0391 425.999 32.1565 426.936 31.2778 427.786Z" fill="#6C63FF"/>
<path d="M29.3634 429.502L35.2107 430.136L35.1735 430.214C35.7783 429.511 36.3458 428.757 36.8722 427.956L31.1169 427.941C30.5285 428.503 29.944 429.023 29.3634 429.502Z" fill="#6C63FF"/>
<path d="M22.2015 433.244C22.2429 433.19 22.2867 433.131 22.3299 433.074C23.5223 432.828 24.6874 432.398 25.8001 431.791L25.959 426.341C26.0062 426.203 26.052 426.063 26.0964 425.922L25.9273 431.723C26.7271 431.283 27.5058 430.782 28.2591 430.222L27.7161 420.091C27.758 420.062 27.8001 420.034 27.8436 420.004L28.3859 430.123L28.3912 430.124C29.301 429.438 30.1816 428.689 31.0292 427.881L30.4379 417.911C30.4797 417.871 30.5215 417.832 30.5634 417.792L31.1547 427.761C31.3423 427.582 31.5269 427.401 31.7086 427.219L31.2209 417.126C31.2626 417.082 31.3044 417.038 31.346 416.993L31.8342 427.093C32.5849 426.336 33.2822 425.572 33.9131 424.84L33.6062 414.69L33.67 414.647C33.4521 414.721 33.2306 414.808 33.0073 414.903C33.4273 414.283 33.8051 413.617 34.1365 412.912L29.2013 416.214C28.8597 417.054 28.4755 417.863 28.0512 418.637C27.963 418.744 27.8747 418.852 27.7878 418.964L27.7943 419.085C27.754 419.154 27.714 419.223 27.6732 419.291L27.6645 419.127C27.6022 419.21 27.5414 419.297 27.4798 419.382C28.1048 418.373 28.6533 417.289 29.1178 416.144L24.2936 408.004C24.3264 408.731 24.3814 409.464 24.4522 410.19C24.0043 409.248 23.4603 408.389 22.835 407.635L22.873 407.698L21.7581 411.627C22.0165 412.971 22.2735 414.489 22.4879 416.107L24.4692 410.361C24.4782 410.451 24.4878 410.54 24.4973 410.629L22.5208 416.361C22.7163 417.879 22.8564 419.345 22.9408 420.759L25.3131 415.94C25.3267 416.01 25.3402 416.079 25.3538 416.147L22.9559 421.018C23.0081 421.962 23.035 422.879 23.0367 423.769L25.9366 418.821C25.952 418.886 25.9672 418.95 25.9822 419.012L23.0516 424.012L23.0373 423.974C23.0365 424.327 23.0316 424.675 23.0226 425.018L26.2936 420.255C26.311 420.322 26.3271 420.383 26.342 420.439L23.0144 425.284C23.011 425.391 23.0079 425.498 23.0037 425.603C22.9648 426.615 22.8833 427.624 22.7595 428.625L23.0752 428.212C23.0154 428.372 22.9572 428.53 22.9005 428.686L22.7209 428.921C22.7003 429.074 22.6768 429.224 22.6542 429.374C22.5879 429.562 22.524 429.746 22.4626 429.925C22.5219 429.582 22.5772 429.236 22.6245 428.887L16.0911 423.075C17.7956 428.714 21.0054 434.079 21.2108 434.42C21.3777 434.017 21.5292 433.602 21.6684 433.179C21.7088 433.174 21.7492 433.169 21.7896 433.163C21.7729 433.215 21.7556 433.266 21.7386 433.318C21.7182 433.321 21.6976 433.325 21.6772 433.328C21.6931 433.333 21.7121 433.34 21.7293 433.346C21.6312 433.642 21.5297 433.933 21.4207 434.213C21.5633 434.048 21.7805 433.786 22.0402 433.453C23.5765 433.96 27.7153 435.045 31.2591 433.443L25.8295 431.915C24.6676 432.551 23.4488 432.998 22.2015 433.244V433.244ZM26.0168 424.359L26.147 424.189L26.1396 424.444L26.0094 424.615L26.0168 424.359Z" fill="#6C63FF"/>
<path d="M39.5374 417.076L39.5833 417.093C39.1263 415.649 38.1999 414.759 36.9817 414.422L36.6757 421.354C38.4442 418.939 39.522 417.103 39.5374 417.076Z" fill="#6C63FF"/>
<path d="M28.1481 430.448C27.4661 430.947 26.7637 431.398 26.0438 431.799L31.4219 433.312L31.3808 433.386C32.0613 433.07 32.7081 432.644 33.3058 432.117C33.5399 431.909 33.7693 431.695 33.9939 431.474L28.3622 430.289C28.2908 430.342 28.2193 430.396 28.1481 430.448Z" fill="#6C63FF"/>
<path d="M34.0387 424.693C34.9694 423.605 35.8127 422.524 36.5438 421.533L36.8568 414.443L36.9205 414.405C35.8589 414.174 34.7708 414.249 33.7344 414.626L34.0387 424.693Z" fill="#6C63FF"/>
<path d="M22.7925 407.585C22.1682 406.825 21.405 406.282 20.5744 406.007C20.5341 405.995 20.494 405.985 20.454 405.975C20.554 406.329 21.1305 408.411 21.7124 411.391L22.7925 407.585Z" fill="#6C63FF"/>
<path d="M22.4274 416.304L15.6343 411.205L15.6405 411.113C15.3863 412.163 15.2149 413.244 15.1287 414.339L22.7862 419.781C22.6938 418.556 22.5678 417.385 22.4274 416.304Z" fill="#6C63FF"/>
<path d="M15.1156 414.523L15.1159 414.524C15.1182 414.493 15.1187 414.461 15.1211 414.431L15.1156 414.523Z" fill="#6C63FF"/>
<path d="M15.06 415.522L15.055 415.615C15.056 415.584 15.059 415.554 15.0602 415.523L15.06 415.522Z" fill="#6C63FF"/>
<path d="M22.8013 419.985L15.1159 414.524C15.0912 414.85 15.0727 415.183 15.0602 415.523L22.8589 420.881C22.8419 420.58 22.8227 420.281 22.8013 419.985Z" fill="#6C63FF"/>
<path d="M22.916 425.361L15.3513 420.071C15.5361 421.052 15.7715 422.016 16.056 422.957L16.0659 422.856L22.6475 428.711C22.7887 427.603 22.8783 426.484 22.916 425.361V425.361Z" fill="#6C63FF"/>
<path d="M20.3679 406.004L20.4033 405.963C19.2153 405.689 18.1384 406.224 17.2664 407.375L21.6296 411.42C20.9994 408.195 20.3769 406.035 20.3679 406.004Z" fill="#6C63FF"/>
<path d="M21.6762 411.66L17.2128 407.522L17.2224 407.433C16.5028 408.468 15.9696 409.697 15.6612 411.031L22.3989 416.088C22.1862 414.489 21.9318 412.989 21.6762 411.66Z" fill="#6C63FF"/>
<path d="M22.9225 425.164C22.9616 423.803 22.944 422.44 22.8698 421.082L15.0517 415.71C15.0354 416.258 15.0353 416.821 15.0516 417.398C15.0802 418.224 15.1671 419.044 15.311 419.849L22.9189 425.169L22.9225 425.164Z" fill="#6C63FF"/>
<path d="M263.676 398.334C263.6 399.716 263.482 401.262 263.299 402.886L266.602 398.149L266.62 398.228C266.418 397.088 266.093 395.991 265.654 394.968L265.675 395.043L263.676 398.334Z" fill="#6C63FF"/>
<path d="M263.689 398.091L265.626 394.904C265.214 393.931 264.618 393.11 263.893 392.516C263.858 392.489 263.822 392.463 263.787 392.438C263.797 392.814 263.848 395.024 263.689 398.091Z" fill="#6C63FF"/>
<path d="M261.942 410.588C261.856 410.923 261.769 411.252 261.678 411.575L266.542 407.887L266.549 407.979C266.651 407.406 266.735 406.832 266.803 406.259L261.946 410.63L261.942 410.588Z" fill="#6C63FF"/>
<path d="M262.618 407.492L266.999 402.82L267.011 402.907C267.027 401.362 266.901 399.82 266.636 398.314L263.27 403.141C263.093 404.663 262.876 406.113 262.618 407.492Z" fill="#6C63FF"/>
<path d="M263.195 403.049L257.953 395.485L257.981 395.4C257.488 396.297 257.067 397.256 256.723 398.263L262.705 406.5C262.91 405.297 263.07 404.134 263.195 403.049Z" fill="#6C63FF"/>
<path d="M256.666 398.433L256.667 398.434C256.676 398.406 256.684 398.375 256.694 398.347L256.666 398.433Z" fill="#6C63FF"/>
<path d="M262.67 406.7L256.667 398.434C256.565 398.734 256.468 399.044 256.375 399.361L262.511 407.575C262.567 407.281 262.62 406.99 262.67 406.7Z" fill="#6C63FF"/>
<path d="M256.375 399.361L256.348 399.448C256.356 399.418 256.366 399.391 256.375 399.361L256.375 399.361Z" fill="#6C63FF"/>
<path d="M266.816 406.148C266.935 405.109 267 404.06 267.011 403.008L262.571 407.744C262.395 408.662 262.201 409.545 261.99 410.393L266.806 406.058L266.816 406.148Z" fill="#6C63FF"/>
<path d="M255.579 406.738L260.439 414.937C260.838 413.939 261.191 412.911 261.495 411.858L255.565 403.804C255.506 404.811 255.499 405.822 255.545 406.83L255.579 406.738Z" fill="#6C63FF"/>
<path d="M263.698 392.431L263.741 392.406C262.677 391.67 261.525 391.749 260.42 392.495L263.603 398.086C263.775 394.767 263.699 392.464 263.698 392.431Z" fill="#6C63FF"/>
<path d="M261.52 412.124C261.241 413.071 260.923 413.998 260.566 414.9L265.454 411.629L265.459 411.72C265.827 410.915 266.115 410.054 266.316 409.155C266.394 408.802 266.465 408.448 266.529 408.092L261.607 411.825C261.578 411.924 261.549 412.025 261.52 412.124Z" fill="#6C63FF"/>
<path d="M263.59 398.333L260.334 392.614L260.365 392.532C259.433 393.229 258.632 394.185 258.02 395.33L263.219 402.833C263.399 401.227 263.516 399.699 263.59 398.333Z" fill="#6C63FF"/>
<path d="M261.548 411.674C261.91 410.395 262.219 409.092 262.473 407.77L256.322 399.537C256.176 400.051 256.041 400.586 255.919 401.141C255.748 401.938 255.635 402.753 255.579 403.576L261.543 411.677L261.548 411.674Z" fill="#6C63FF"/>
<path d="M267.866 420.557C267.126 421.559 266.273 422.652 265.331 423.752L270.211 422.828L270.186 422.904C270.593 421.86 270.883 420.746 271.05 419.596L271.029 419.671L267.866 420.557Z" fill="#6C63FF"/>
<path d="M270.903 416.256C270.889 416.205 270.874 416.156 270.859 416.107C270.682 416.406 269.631 418.15 267.996 420.381L271.06 419.523C271.222 418.434 271.168 417.31 270.903 416.256V416.256Z" fill="#6C63FF"/>
<path d="M260.487 428.564C260.256 428.752 260.026 428.933 259.797 429.107L265.362 430.279L265.322 430.356C265.683 429.998 266.031 429.626 266.366 429.24L260.469 428.6L260.487 428.564Z" fill="#6C63FF"/>
<path d="M262.535 426.738L268.213 426.753L268.179 426.83C268.953 425.653 269.617 424.362 270.156 422.983L265.182 423.924C264.296 424.95 263.413 425.888 262.535 426.738Z" fill="#6C63FF"/>
<path d="M260.62 428.454L266.468 429.088L266.43 429.165C267.035 428.463 267.603 427.709 268.129 426.908L262.374 426.893C261.785 427.455 261.201 427.975 260.62 428.454Z" fill="#6C63FF"/>
<path d="M253.458 432.196C253.5 432.142 253.544 432.083 253.587 432.025C254.779 431.78 255.944 431.349 257.057 430.743L257.216 425.293C257.263 425.155 257.309 425.015 257.353 424.874L257.184 430.674C257.984 430.235 258.763 429.734 259.516 429.174L258.973 419.042C259.015 419.014 259.057 418.986 259.1 418.956L259.643 429.075L259.648 429.076C260.558 428.39 261.438 427.641 262.286 426.833L261.695 416.863C261.736 416.823 261.778 416.784 261.82 416.744L262.411 426.713C262.599 426.533 262.784 426.353 262.965 426.171L262.478 416.078C262.519 416.034 262.561 415.99 262.603 415.945L263.091 426.045C263.842 425.288 264.539 424.524 265.17 423.792L264.863 413.642L264.927 413.599C264.709 413.673 264.487 413.76 264.264 413.855C264.684 413.235 265.062 412.569 265.393 411.864L260.458 415.166C260.116 416.006 259.732 416.815 259.308 417.588C259.22 417.696 259.132 417.804 259.045 417.916L259.051 418.037C259.011 418.106 258.971 418.175 258.93 418.242L258.921 418.079C258.859 418.162 258.798 418.249 258.737 418.334C259.362 417.325 259.91 416.24 260.375 415.095L255.55 406.956C255.583 407.683 255.638 408.416 255.709 409.142C255.261 408.2 254.717 407.341 254.092 406.587L254.13 406.65L253.015 410.578C253.273 411.923 253.53 413.441 253.745 415.059L255.726 409.313C255.735 409.403 255.745 409.492 255.754 409.581L253.778 415.313C253.973 416.831 254.113 418.297 254.198 419.711L256.57 414.892C256.583 414.961 256.597 415.031 256.611 415.099L254.213 419.97C254.265 420.914 254.292 421.831 254.293 422.721L257.193 417.773C257.209 417.838 257.224 417.901 257.239 417.964L254.308 422.964L254.294 422.926C254.293 423.279 254.288 423.627 254.279 423.97L257.55 419.207C257.568 419.274 257.584 419.335 257.599 419.391L254.271 424.236C254.268 424.342 254.265 424.449 254.261 424.555C254.222 425.567 254.14 426.576 254.016 427.577L254.332 427.163C254.272 427.324 254.214 427.482 254.157 427.638L253.978 427.873C253.957 428.026 253.934 428.175 253.911 428.326C253.845 428.514 253.781 428.698 253.719 428.877C253.779 428.533 253.834 428.188 253.881 427.839L247.348 422.026C249.052 427.666 252.262 433.031 252.468 433.371C252.634 432.968 252.786 432.554 252.925 432.13C252.966 432.126 253.006 432.121 253.046 432.115C253.03 432.167 253.012 432.218 252.995 432.27C252.975 432.273 252.954 432.277 252.934 432.279C252.95 432.285 252.969 432.292 252.986 432.298C252.888 432.594 252.786 432.884 252.678 433.165C252.82 432.999 253.037 432.737 253.297 432.405C254.833 432.912 258.972 433.997 262.516 432.394L257.086 430.867C255.924 431.503 254.706 431.95 253.458 432.196V432.196ZM257.274 423.311L257.404 423.14L257.396 423.396L257.266 423.566L257.274 423.311Z" fill="#6C63FF"/>
<path d="M270.794 416.028L270.84 416.045C270.383 414.601 269.457 413.711 268.239 413.374L267.933 420.306C269.701 417.891 270.779 416.055 270.794 416.028Z" fill="#6C63FF"/>
<path d="M259.405 429.399C258.723 429.899 258.02 430.35 257.301 430.75L262.679 432.263L262.638 432.338C263.318 432.022 263.965 431.595 264.563 431.069C264.797 430.861 265.026 430.647 265.251 430.426L259.619 429.24C259.548 429.294 259.476 429.348 259.405 429.399Z" fill="#6C63FF"/>
<path d="M265.296 423.645C266.226 422.557 267.069 421.476 267.801 420.485L268.114 413.395L268.177 413.357C267.116 413.126 266.028 413.201 264.991 413.578L265.296 423.645Z" fill="#6C63FF"/>
<path d="M254.049 406.537C253.425 405.777 252.662 405.234 251.831 404.959C251.791 404.947 251.751 404.937 251.711 404.927C251.811 405.281 252.387 407.362 252.969 410.343L254.049 406.537Z" fill="#6C63FF"/>
<path d="M253.684 415.256L246.891 410.157L246.897 410.065C246.643 411.115 246.472 412.196 246.386 413.291L254.043 418.733C253.951 417.508 253.825 416.337 253.684 415.256Z" fill="#6C63FF"/>
<path d="M246.317 414.474L246.312 414.567C246.313 414.536 246.316 414.506 246.317 414.474L246.317 414.474Z" fill="#6C63FF"/>
<path d="M246.372 413.475L246.373 413.475C246.375 413.445 246.375 413.413 246.378 413.382L246.372 413.475Z" fill="#6C63FF"/>
<path d="M254.058 418.937L246.373 413.476C246.348 413.802 246.329 414.135 246.317 414.474L254.116 419.833C254.099 419.532 254.08 419.233 254.058 418.937Z" fill="#6C63FF"/>
<path d="M254.173 424.313L246.608 419.023C246.793 420.004 247.028 420.968 247.313 421.909L247.323 421.808L253.904 427.663C254.046 426.554 254.135 425.436 254.173 424.313V424.313Z" fill="#6C63FF"/>
<path d="M251.625 404.956L251.66 404.915C250.472 404.641 249.395 405.176 248.523 406.327L252.886 410.372C252.256 407.147 251.634 404.987 251.625 404.956Z" fill="#6C63FF"/>
<path d="M252.933 410.612L248.47 406.474L248.479 406.385C247.76 407.42 247.226 408.649 246.918 409.983L253.656 415.04C253.443 413.44 253.189 411.941 252.933 410.612Z" fill="#6C63FF"/>
<path d="M254.179 424.116C254.218 422.755 254.201 421.392 254.127 420.034L246.309 414.662C246.292 415.21 246.292 415.772 246.308 416.35C246.337 417.175 246.424 417.996 246.568 418.801L254.176 424.121L254.179 424.116Z" fill="#6C63FF"/>
<path d="M0 435H284V439.641C284 441.593 283.321 443.464 282.113 444.845C280.904 446.225 279.265 447 277.556 447H6.44391C4.73488 447 3.09584 446.225 1.88738 444.845C0.67891 443.464 0 441.593 0 439.641V435Z" fill="#2F2E41"/>
<path d="M284 431H0V438H284V431Z" fill="#3F3D56"/>
<path d="M214.495 203.817L217.43 206.224L215.648 202.034C216.152 201.513 216.777 201.225 217.423 201.214C217.438 201.214 217.454 201.215 217.47 201.215C217.674 201.219 217.878 201.2 218.079 201.157L219.074 201.973L218.647 200.97C219.352 200.652 219.961 200.054 220.387 199.262L222.168 200.722L221.043 198.077C222.084 196.461 223.488 195.47 225.032 195.47C226.883 195.47 228.533 196.894 229.597 199.113C229.912 199.776 230.357 200.321 230.887 200.69C231.417 201.06 232.013 201.242 232.615 201.217C232.648 201.215 232.681 201.214 232.715 201.214C234.758 201.214 236.415 204.211 236.415 207.909C236.415 211.606 234.758 214.603 232.715 214.603C232.265 214.6 231.823 214.457 231.425 214.185C230.73 213.748 229.969 213.511 229.195 213.492C228.422 213.472 227.655 213.67 226.946 214.072C226.348 214.42 225.699 214.601 225.043 214.603C224.387 214.605 223.738 214.428 223.138 214.083C222.435 213.689 221.675 213.495 220.909 213.514C220.143 213.533 219.389 213.765 218.698 214.194C218.304 214.46 217.867 214.6 217.423 214.603C215.379 214.603 213.722 211.606 213.722 207.909C213.71 206.482 213.976 205.075 214.495 203.817V203.817Z" fill="#A0A0B2"/>
<path d="M82.3231 389.303L81.997 389.725C81.997 389.725 82.1057 394.364 82.2144 395.349C82.3231 396.333 82.7579 398.02 82.4318 399.285C82.1057 400.55 81.997 401.534 82.1057 401.675C82.2144 401.815 81.997 402.378 81.997 402.378L82.8667 401.675L84.2798 397.457L83.6276 392.959L82.3231 389.303Z" fill="#6C63FF"/>
<path opacity="0.1" d="M82.3231 389.303L81.997 389.725C81.997 389.725 82.1057 394.364 82.2144 395.349C82.3231 396.333 82.7579 398.02 82.4318 399.285C82.1057 400.55 81.997 401.534 82.1057 401.675C82.2144 401.815 81.997 402.378 81.997 402.378L82.8667 401.675L84.2798 397.457L83.6276 392.959L82.3231 389.303Z" fill="black"/>
<path d="M88.0844 433.025C88.0844 433.025 88.0844 431.478 87.867 431.197C87.6496 430.916 87.3235 429.932 86.8887 429.932C86.4539 429.932 84.932 430.494 84.932 430.635C84.9444 431.074 84.8695 431.509 84.7146 431.9C84.4972 432.322 83.3014 434.009 84.4972 434.29C84.8947 434.375 85.3013 434.356 85.6932 434.235C86.0851 434.115 86.4545 433.894 86.78 433.587C86.8887 433.447 87.3235 433.306 87.4322 433.447C87.5409 433.587 88.0844 433.025 88.0844 433.025Z" fill="#6C63FF"/>
<path d="M91.1282 430.494L91.7804 432.041C91.7804 432.041 91.9978 433.447 92.3239 433.587H92.65C92.65 433.587 92.9761 435.134 93.7371 434.993C94.498 434.852 95.3676 434.29 95.3676 434.009C95.3676 433.728 95.3676 432.884 95.0415 432.603C94.5843 432.12 94.1488 431.604 93.7371 431.057L93.1935 430.354L91.1282 430.494Z" fill="#6C63FF"/>
<path d="M82.7856 378.998C82.5764 379.136 82.3959 379.337 82.2592 379.584C82.1226 379.831 82.0338 380.117 82.0004 380.417C81.9399 381.421 82.7071 382.367 82.4603 383.322C82.3201 383.864 81.8837 384.215 81.7581 384.763C81.692 385.2 81.7416 385.653 81.8989 386.049C82.0705 386.593 82.2795 387.115 82.5232 387.61C82.9815 388.541 83.5779 389.423 83.7003 390.515C83.7343 390.706 83.7327 390.905 83.6959 391.095C83.659 391.285 83.5878 391.461 83.4882 391.608C83.7088 391.392 83.9612 391.237 84.2299 391.152C85.3409 390.672 86.3731 389.928 87.2737 388.959C87.6009 388.662 87.8472 388.239 87.9775 387.749C88.1434 386.886 87.6366 386.022 87.6852 385.134C87.7162 384.566 87.9697 384.064 88.1132 383.526C88.2379 382.99 88.2776 382.428 88.23 381.872C88.1823 381.315 88.0482 380.777 87.8358 380.29C87.6599 379.818 87.4117 379.398 87.1062 379.054C86.8007 378.711 86.4444 378.451 86.0589 378.291C85.4659 378.113 84.8472 378.136 84.2632 378.358C83.7529 378.495 83.2569 378.71 82.7856 378.998V378.998Z" fill="#2F2E41"/>
<path d="M83.3976 386.793C83.637 386.218 83.9914 385.737 84.4239 385.399C84.8564 385.062 85.351 384.881 85.856 384.875C87.5953 384.875 87.2692 384.734 87.2692 384.734L86.7256 387.546L85.6386 388.952L83.3976 386.793Z" fill="#6C63FF"/>
<path d="M83.845 383.821C83.845 383.821 84.8233 385.929 84.1711 386.773C83.5189 387.616 83.845 388.46 83.9537 388.601C84.0624 388.741 87.1061 389.022 87.1061 389.022L87.2148 387.054L87.5409 385.367C87.5409 385.367 85.8017 384.945 86.0191 383.961C86.2365 382.977 83.845 383.821 83.845 383.821Z" fill="#FBBEBE"/>
<path opacity="0.1" d="M83.845 383.821C83.845 383.821 84.8233 385.929 84.1711 386.773C83.5189 387.616 83.845 388.46 83.9537 388.601C84.0624 388.741 87.1061 389.022 87.1061 389.022L87.2148 387.054L87.5409 385.367C87.5409 385.367 85.8017 384.945 86.0191 383.961C86.2365 382.977 83.845 383.821 83.845 383.821Z" fill="black"/>
<path d="M91.4543 403.783C91.3379 404.266 91.1925 404.736 91.0194 405.189C90.9107 405.33 90.5846 404.205 90.5846 404.205L90.9107 403.221L91.4543 403.783Z" fill="#FBBEBE"/>
<path d="M90.2042 397.387L90.6389 400.621H84.1167L84.4428 397.387H90.2042Z" fill="#FBBEBE"/>
<path d="M85.0407 384.945C86.1814 384.945 87.1061 383.749 87.1061 382.274C87.1061 380.799 86.1814 379.603 85.0407 379.603C83.9 379.603 82.9753 380.799 82.9753 382.274C82.9753 383.749 83.9 384.945 85.0407 384.945Z" fill="#FBBEBE"/>
<path d="M85.4755 387.757C85.4755 387.757 84.2798 387.898 84.2798 387.616C84.2798 387.335 84.1711 386.492 83.9536 386.632C83.7362 386.773 82.3231 386.914 82.4318 387.335C82.5405 387.757 82.7579 388.601 82.5405 388.601C82.4465 388.625 82.3574 388.675 82.2786 388.745C82.1998 388.816 82.133 388.907 82.0821 389.012C82.0313 389.117 81.9975 389.235 81.9829 389.357C81.9683 389.48 81.973 389.605 81.997 389.725C82.1057 390.428 83.3014 394.646 83.3014 394.646C83.3014 394.646 83.4101 396.051 83.7362 396.473C83.8689 396.694 83.9409 396.966 83.9409 397.246C83.9409 397.526 83.8689 397.798 83.7362 398.02C83.5188 398.301 84.2798 398.582 84.6059 399.144C84.932 399.707 87.4322 399.285 87.5409 399.144C87.6496 399.004 90.2585 399.004 90.4759 398.723C90.6933 398.441 90.3672 397.598 90.3672 397.598C90.3672 397.598 90.2585 396.333 90.3672 395.911C90.4759 395.489 89.9324 388.601 89.6063 388.179C89.2802 387.757 90.5846 386.492 90.5846 386.492C90.5846 386.492 90.3672 385.367 88.9541 385.227C88.9541 385.227 88.5192 384.383 88.0844 384.383C87.6496 384.383 86.7055 385.037 86.7055 385.037C86.7055 385.037 86.4538 386.914 86.1277 387.054C85.8699 387.217 85.6462 387.459 85.4755 387.757Z" fill="#6C63FF"/>
<path d="M89.8237 386.07L90.5846 386.492C90.5846 386.492 92.7587 395.208 92.5413 396.895C92.3239 398.582 91.7804 404.346 91.4543 404.346C91.1282 404.346 90.4759 403.502 90.4759 403.502V402.097C90.4759 401.815 90.1498 400.972 90.3672 400.972C90.5846 400.972 90.9107 400.691 90.6933 400.41C90.4759 400.128 90.2585 399.707 90.4759 399.285C90.6933 398.863 90.802 398.722 90.6933 398.301C90.5846 397.879 90.3672 397.457 90.5846 397.176C90.802 396.895 90.0411 395.489 90.0411 395.489L88.8454 389.303L89.0628 386.773L89.8237 386.07Z" fill="#6C63FF"/>
<path d="M90.2585 399.425C90.2585 399.425 86.1277 399.004 85.5842 399.004C85.0407 399.004 83.8213 398.342 83.8213 398.342C83.8213 398.342 80.6925 402.378 81.7796 408.985C82.8666 415.593 83.084 423.746 83.7362 426.136C84.1795 427.84 84.5425 429.577 84.8233 431.338C84.8233 431.338 85.9103 428.807 87.9757 431.619C87.9757 431.619 88.1931 429.51 87.867 428.667C87.5409 427.823 87.1061 423.325 87.1061 423.325C87.1061 423.325 86.3452 416.155 86.3452 415.311C86.3452 414.468 85.9103 407.298 86.019 407.157C86.1278 407.017 86.6713 412.64 86.78 413.624C86.8887 414.608 87.2148 422.2 87.5409 423.043C87.867 423.887 89.3889 430.635 90.2585 431.057C91.1282 431.478 94.0632 430.916 93.9545 430.635C93.8457 430.354 93.0848 428.807 92.8674 428.386L91.9978 426.699L89.9324 417.561L90.9107 406.455C90.9107 406.455 91.4543 399.285 90.2585 399.425Z" fill="#2F2E41"/>
<path d="M86.2989 381.923H83.6502C83.5379 381.923 83.4292 381.871 83.3438 381.777C83.2583 381.682 83.2018 381.551 83.1842 381.408L82.921 379.252H87.0518L86.6825 381.52C86.6639 381.634 86.6157 381.736 86.5459 381.81C86.476 381.883 86.3888 381.923 86.2989 381.923Z" fill="#2F2E41"/>
<path d="M222.805 381.257H226.984V388.978C226.435 388.978 225.892 388.838 225.385 388.567C224.878 388.295 224.417 387.897 224.029 387.395C223.641 386.893 223.333 386.297 223.123 385.642C222.913 384.986 222.805 384.283 222.805 383.573V381.257Z" fill="#2F2E41"/>
<path d="M220.367 426.488L220.069 428.418H222.158L222.257 426.488H220.367Z" fill="#A0616A"/>
<path d="M220.367 428.033C220.367 428.033 219.969 427.646 219.77 427.904C219.571 428.161 218.875 433.18 218.775 433.308C218.676 433.437 215.691 435.367 216.387 435.496C217.084 435.625 219.77 435.753 220.168 435.496C220.566 435.239 221.661 432.794 221.661 432.794V434.981H221.86C221.86 434.981 222.059 432.665 222.556 432.022C223.054 431.378 222.158 429.191 222.158 429.191C222.158 429.191 222.357 427.775 222.258 427.775C222.158 427.775 220.367 428.033 220.367 428.033Z" fill="#6C63FF"/>
<path d="M226.536 425.137L226.237 427.067H228.327L228.427 425.137H226.536Z" fill="#A0616A"/>
<path d="M224.148 412.591C224.148 412.591 225.143 416.451 225.342 416.837C225.541 417.223 226.238 424.429 226.238 424.429C226.238 424.429 225.541 425.845 226.437 425.974C227.332 426.102 226.934 425.716 227.531 425.974C227.693 426.053 227.868 426.083 228.04 426.06C228.213 426.038 228.379 425.964 228.526 425.845C228.526 425.845 228.825 425.073 228.626 424.815C228.427 424.558 228.825 417.867 228.825 417.867L228.228 415.55L227.73 408.216C227.73 408.216 228.327 406.285 228.029 405.771C227.73 405.256 226.735 406.157 226.735 406.157L224.148 412.591Z" fill="#2F2E41"/>
<path d="M222.855 402.554C222.855 402.554 222.556 406.672 222.357 406.929C222.158 407.186 219.969 414.392 219.969 414.392C219.969 414.392 219.372 415.293 219.571 418.639C219.77 421.985 220.268 425.33 220.268 425.33C220.268 425.33 219.87 427.26 220.566 427.26C221.263 427.26 221.561 426.746 221.86 427.132C222.158 427.518 222.357 427.132 222.457 426.874C222.556 426.617 222.954 425.716 222.954 425.459C222.954 425.202 223.352 418.639 223.352 418.639C223.352 418.639 226.636 409.245 226.934 408.73C227.233 408.216 228.924 405.385 228.825 403.455L222.855 402.554Z" fill="#2F2E41"/>
<path d="M225.342 385.182C226.496 385.182 227.432 383.972 227.432 382.48C227.432 380.987 226.496 379.777 225.342 379.777C224.188 379.777 223.253 380.987 223.253 382.48C223.253 383.972 224.188 385.182 225.342 385.182Z" fill="#A0616A"/>
<path d="M224.944 384.796C224.944 384.796 225.74 387.112 225.84 387.756C225.939 388.399 227.83 386.469 227.83 386.469C227.83 386.469 226.835 384.281 227.133 383.252L224.944 384.796Z" fill="#A0616A"/>
<path d="M228.128 386.083C228.128 386.083 226.636 384.667 225.541 387.627C224.447 390.587 224.148 390.458 224.148 390.458C224.148 390.458 222.855 390.973 223.253 394.576C223.651 398.179 221.959 402.94 222.656 403.197C223.352 403.455 229.82 404.87 229.82 403.841C229.82 402.811 229.223 398.822 229.72 396.377C230.218 393.932 229.024 385.439 228.128 386.083Z" fill="#3F3D56"/>
<path d="M226.636 386.726C226.636 386.726 225.442 389.042 225.541 390.844C225.641 392.645 225.641 393.804 225.641 393.804C225.641 393.804 223.651 406.157 224.049 406.157C224.447 406.157 225.641 406.8 225.74 406.414C225.84 406.028 228.327 398.179 228.327 398.179C228.327 398.179 228.924 390.329 228.228 388.528C227.531 386.726 226.636 386.726 226.636 386.726Z" fill="#3F3D56"/>
<path d="M224.248 405.771C224.248 405.771 223.253 410.146 224.646 410.275C226.039 410.403 225.243 406.028 225.243 406.028L224.248 405.771Z" fill="#A0616A"/>
<path d="M226.896 426.065C226.896 426.065 226.547 425.727 226.373 425.952C226.199 426.178 225.589 430.573 225.502 430.685C225.415 430.798 222.801 432.488 223.41 432.601C224.02 432.714 226.373 432.826 226.722 432.601C227.07 432.376 228.029 430.235 228.029 430.235V432.15H228.203C228.203 432.15 228.377 430.122 228.813 429.558C229.248 428.995 228.464 427.079 228.464 427.079C228.464 427.079 228.639 425.84 228.551 425.84C228.464 425.84 226.896 426.065 226.896 426.065Z" fill="#6C63FF"/>
<path d="M224.309 380.709C224.376 380.604 224.463 380.525 224.561 380.478C224.653 380.457 224.748 380.467 224.835 380.509C225.459 380.744 226 381.253 226.366 381.948C226.437 382.125 226.544 382.275 226.674 382.38C226.76 382.413 226.843 382.454 226.924 382.503C227.156 382.702 227.018 383.163 226.884 383.479C226.542 384.293 226.383 385.215 226.428 386.14C226.425 386.3 226.462 386.458 226.532 386.591C226.645 386.725 226.792 386.801 226.946 386.804C227.429 386.882 227.915 386.916 228.402 386.905C228.878 386.894 229.407 386.806 229.715 386.337C230.047 385.833 229.995 385.06 229.779 384.459C229.563 383.859 229.212 383.357 228.963 382.778C228.727 382.167 228.54 381.526 228.406 380.865C228.234 380.021 227.956 379.219 227.584 378.491C227.396 378.129 227.152 377.82 226.868 377.584C226.584 377.349 226.265 377.191 225.932 377.122C225.028 376.991 224.194 377.711 223.468 378.419C222.652 379.213 221.784 380.196 221.718 381.514C221.665 382.582 222.161 383.548 222.42 384.564C222.82 386.133 222.653 387.837 222.481 389.474C223.217 388.903 224.051 388.111 224.003 387.002C223.97 386.254 223.534 385.657 223.262 384.995C222.515 383.175 223.367 381.955 224.309 380.709Z" fill="#2F2E41"/>
<path d="M253.693 393.861C254.325 392.434 254.652 390.814 254.64 389.169C254.64 384.929 252.609 381.491 250.105 381.491C247.6 381.491 245.57 384.929 245.57 389.169C245.557 390.814 245.884 392.434 246.516 393.861C245.896 395.295 245.57 396.91 245.57 398.553C245.57 400.196 245.896 401.811 246.516 403.245C245.896 404.678 245.57 406.294 245.57 407.937C245.57 409.58 245.896 411.195 246.516 412.629C245.896 414.062 245.57 415.678 245.57 417.32C245.57 418.963 245.896 420.579 246.516 422.012C245.884 423.44 245.557 425.059 245.57 426.704C245.57 430.945 247.6 434.382 250.105 434.382C252.609 434.382 254.64 430.945 254.64 426.704C254.652 425.059 254.325 423.44 253.693 422.012C254.314 420.579 254.64 418.963 254.64 417.32C254.64 415.678 254.314 414.062 253.693 412.629C254.314 411.195 254.64 409.58 254.64 407.937C254.64 406.294 254.314 404.678 253.693 403.245C254.314 401.811 254.64 400.196 254.64 398.553C254.64 396.91 254.314 395.295 253.693 393.861V393.861Z" fill="#3F3D56"/>
<path d="M250.105 387.463C252.609 387.463 254.64 384.026 254.64 379.785C254.64 375.545 252.609 372.108 250.105 372.108C247.6 372.108 245.57 375.545 245.57 379.785C245.57 384.026 247.6 387.463 250.105 387.463Z" fill="#3F3D56"/>
<path d="M250.105 378.079C252.609 378.079 254.64 374.642 254.64 370.402C254.64 366.161 252.609 362.724 250.105 362.724C247.6 362.724 245.57 366.161 245.57 370.402C245.57 374.642 247.6 378.079 250.105 378.079Z" fill="#3F3D56"/>
<path d="M267.081 306.185C267.701 305.165 268.265 304.091 268.77 302.97L256.854 300.439L269.741 300.563C270.978 297.085 271.652 293.316 271.723 289.489C271.795 285.661 271.262 281.855 270.156 278.304L252.866 289.903L268.812 274.745C267.318 271.406 265.308 268.501 262.909 266.211C260.509 263.921 257.77 262.294 254.863 261.432C251.956 260.57 248.942 260.492 246.011 261.202C243.079 261.912 240.292 263.395 237.823 265.558C235.354 267.722 233.256 270.52 231.659 273.778C230.063 277.036 229.002 280.685 228.543 284.496C228.085 288.308 228.238 292.2 228.993 295.932C229.749 299.663 231.09 303.154 232.934 306.185C231.968 307.773 231.137 309.491 230.456 311.309L245.924 321.701L229.431 314.543C228.273 318.97 227.987 323.701 228.599 328.307C229.21 332.913 230.7 337.25 232.934 340.924C230.413 345.068 228.846 350.045 228.41 355.287C227.974 360.528 228.687 365.823 230.468 370.565C232.249 375.308 235.026 379.306 238.481 382.103C241.937 384.901 245.931 386.384 250.007 386.384C254.084 386.384 258.078 384.901 261.534 382.103C264.989 379.306 267.766 375.308 269.547 370.565C271.328 365.823 272.041 360.528 271.605 355.287C271.169 350.045 269.601 345.068 267.081 340.924C270.093 335.972 271.73 329.855 271.73 323.555C271.73 317.255 270.093 311.137 267.081 306.185V306.185Z" fill="#A0A0B2"/>
<path d="M228.285 323.555C228.278 329.856 229.916 335.976 232.934 340.924C230.413 345.068 228.846 350.045 228.41 355.287C227.974 360.528 228.687 365.823 230.468 370.565C232.249 375.308 235.026 379.306 238.481 382.103C241.937 384.901 245.931 386.384 250.007 386.384C254.084 386.384 258.078 384.901 261.534 382.103C264.989 379.306 267.766 375.308 269.547 370.565C271.328 365.823 272.041 360.528 271.605 355.287C271.169 350.045 269.601 345.068 267.081 340.924C269.993 336.144 228.285 320.401 228.285 323.555Z" fill="#A0A0B2"/>
<path d="M267.081 306.185C267.701 305.165 268.265 304.091 268.77 302.97L256.854 300.439L269.741 300.563C270.978 297.085 271.652 293.316 271.723 289.489C271.795 285.661 271.262 281.855 270.156 278.304L252.866 289.903L268.812 274.745C267.318 271.406 265.308 268.501 262.909 266.211C260.509 263.921 257.77 262.294 254.863 261.432C251.956 260.57 248.942 260.492 246.011 261.202C243.079 261.912 240.292 263.395 237.823 265.558C235.354 267.722 233.256 270.52 231.659 273.778C230.063 277.036 229.002 280.685 228.543 284.496C228.085 288.308 228.238 292.2 228.993 295.932C229.749 299.663 231.09 303.154 232.934 306.185C231.968 307.773 231.137 309.491 230.456 311.309L245.924 321.701L229.431 314.543C228.273 318.97 227.987 323.701 228.599 328.307C229.21 332.913 230.7 337.25 232.934 340.924C230.413 345.068 228.846 350.045 228.41 355.287C227.974 360.528 228.687 365.823 230.468 370.565C232.249 375.308 235.026 379.306 238.481 382.103C241.937 384.901 245.931 386.384 250.007 386.384C254.084 386.384 258.078 384.901 261.534 382.103C264.989 379.306 267.766 375.308 269.547 370.565C271.328 365.823 272.041 360.528 271.605 355.287C271.169 350.045 269.601 345.068 267.081 340.924C270.093 335.972 271.73 329.855 271.73 323.555C271.73 317.255 270.093 311.137 267.081 306.185V306.185Z" fill="#57B894"/>
<path opacity="0.1" d="M228.285 323.555C228.278 329.856 229.916 335.976 232.934 340.924C230.413 345.068 228.846 350.045 228.41 355.287C227.974 360.528 228.687 365.823 230.468 370.565C232.249 375.308 235.026 379.306 238.481 382.103C241.937 384.901 245.931 386.384 250.007 386.384C254.084 386.384 258.078 384.901 261.534 382.103C264.989 379.306 267.766 375.308 269.547 370.565C271.328 365.823 272.041 360.528 271.605 355.287C271.169 350.045 269.601 345.068 267.081 340.924C269.993 336.144 228.285 320.401 228.285 323.555Z" fill="black"/>
<path d="M25.408 393.861C26.0403 392.434 26.367 390.814 26.3545 389.169C26.3545 384.929 24.3242 381.491 21.8196 381.491C19.315 381.491 17.2846 384.929 17.2846 389.169C17.2721 390.814 17.5989 392.434 18.2312 393.861C17.6105 395.295 17.2846 396.91 17.2846 398.553C17.2846 400.196 17.6105 401.811 18.2312 403.245C17.6105 404.678 17.2846 406.294 17.2846 407.937C17.2846 409.58 17.6105 411.195 18.2312 412.629C17.6105 414.062 17.2846 415.678 17.2846 417.32C17.2846 418.963 17.6105 420.579 18.2312 422.012C17.5989 423.44 17.2721 425.059 17.2846 426.704C17.2846 430.945 19.315 434.382 21.8196 434.382C24.3242 434.382 26.3545 430.945 26.3545 426.704C26.367 425.059 26.0403 423.44 25.408 422.012C26.0286 420.579 26.3545 418.963 26.3545 417.32C26.3545 415.678 26.0286 414.062 25.408 412.629C26.0286 411.195 26.3545 409.58 26.3545 407.937C26.3545 406.294 26.0286 404.678 25.408 403.245C26.0286 401.811 26.3545 400.196 26.3545 398.553C26.3545 396.91 26.0286 395.295 25.408 393.861V393.861Z" fill="#3F3D56"/>
<path d="M21.8196 387.463C24.3242 387.463 26.3545 384.026 26.3545 379.785C26.3545 375.545 24.3242 372.108 21.8196 372.108C19.315 372.108 17.2847 375.545 17.2847 379.785C17.2847 384.026 19.315 387.463 21.8196 387.463Z" fill="#3F3D56"/>
<path d="M21.8196 378.079C24.3242 378.079 26.3545 374.642 26.3545 370.402C26.3545 366.161 24.3242 362.724 21.8196 362.724C19.315 362.724 17.2847 366.161 17.2847 370.402C17.2847 374.642 19.315 378.079 21.8196 378.079Z" fill="#3F3D56"/>
<path d="M38.7961 306.185C39.4157 305.165 39.98 304.091 40.485 302.97L28.5691 300.439L41.4564 300.563C42.6927 297.085 43.3672 293.316 43.4385 289.489C43.5098 285.661 42.9765 281.855 41.8713 278.304L24.5813 289.903L40.5267 274.745C39.0328 271.406 37.0234 268.501 34.6236 266.211C32.2237 263.921 29.485 262.294 26.5778 261.432C23.6706 260.57 20.6574 260.492 17.7258 261.202C14.7942 261.912 12.007 263.395 9.53792 265.558C7.06882 267.722 4.97067 270.52 3.37419 273.778C1.77771 277.036 0.717104 280.685 0.258433 284.496C-0.200238 288.308 -0.0471455 292.2 0.708177 295.932C1.4635 299.663 2.80487 303.154 4.64872 306.185C3.68299 307.773 2.8524 309.491 2.17136 311.309L17.6391 321.701L1.14617 314.543C-0.0118743 318.97 -0.298065 323.701 0.313499 328.307C0.925062 332.913 2.41508 337.25 4.64872 340.924C2.12846 345.068 0.560688 350.045 0.124639 355.287C-0.31141 360.528 0.401865 365.823 2.18292 370.565C3.96397 375.308 6.74091 379.306 10.1962 382.103C13.6516 384.901 17.6459 386.384 21.7224 386.384C25.799 386.384 29.7932 384.901 33.2486 382.103C36.7039 379.306 39.4809 375.308 41.2619 370.565C43.043 365.823 43.7562 360.528 43.3202 355.287C42.8841 350.045 41.3164 345.068 38.7961 340.924C41.8076 335.972 43.4448 329.855 43.4448 323.555C43.4448 317.255 41.8076 311.137 38.7961 306.185L38.7961 306.185Z" fill="#A0A0B2"/>
<path d="M-3.53934e-05 323.555C-0.00753556 329.856 1.63051 335.976 4.64867 340.924C2.12841 345.068 0.560636 350.045 0.124586 355.287C-0.311463 360.528 0.401812 365.823 2.18286 370.565C3.96391 375.308 6.74086 379.306 10.1962 382.103C13.6515 384.901 17.6458 386.384 21.7224 386.384C25.7989 386.384 29.7932 384.901 33.2485 382.103C36.7039 379.306 39.4808 375.308 41.2619 370.565C43.0429 365.823 43.7562 360.528 43.3201 355.287C42.8841 350.045 41.3163 345.068 38.7961 340.924C41.7075 336.144 -3.53934e-05 320.401 -3.53934e-05 323.555Z" fill="#A0A0B2"/>
<path d="M38.7961 306.185C39.4157 305.165 39.98 304.091 40.485 302.97L28.5691 300.439L41.4564 300.563C42.6927 297.085 43.3672 293.316 43.4385 289.489C43.5098 285.661 42.9765 281.855 41.8713 278.304L24.5813 289.903L40.5267 274.745C39.0328 271.406 37.0234 268.501 34.6236 266.211C32.2237 263.921 29.485 262.294 26.5778 261.432C23.6706 260.57 20.6574 260.492 17.7258 261.202C14.7942 261.912 12.007 263.395 9.53792 265.558C7.06882 267.722 4.97067 270.52 3.37419 273.778C1.77771 277.036 0.717104 280.685 0.258433 284.496C-0.200238 288.308 -0.0471455 292.2 0.708177 295.932C1.4635 299.663 2.80487 303.154 4.64872 306.185C3.68299 307.773 2.8524 309.491 2.17136 311.309L17.6391 321.701L1.14617 314.543C-0.0118743 318.97 -0.298065 323.701 0.313499 328.307C0.925062 332.913 2.41508 337.25 4.64872 340.924C2.12846 345.068 0.560688 350.045 0.124639 355.287C-0.31141 360.528 0.401865 365.823 2.18292 370.565C3.96397 375.308 6.74091 379.306 10.1962 382.103C13.6516 384.901 17.6459 386.384 21.7224 386.384C25.799 386.384 29.7932 384.901 33.2486 382.103C36.7039 379.306 39.4809 375.308 41.2619 370.565C43.043 365.823 43.7562 360.528 43.3202 355.287C42.8841 350.045 41.3164 345.068 38.7961 340.924C41.8076 335.972 43.4448 329.855 43.4448 323.555C43.4448 317.255 41.8076 311.137 38.7961 306.185L38.7961 306.185Z" fill="#57B894"/>
<path opacity="0.1" d="M-3.53934e-05 323.555C-0.00753556 329.856 1.63051 335.976 4.64867 340.924C2.12841 345.068 0.560636 350.045 0.124586 355.287C-0.311463 360.528 0.401812 365.823 2.18286 370.565C3.96391 375.308 6.74086 379.306 10.1962 382.103C13.6515 384.901 17.6458 386.384 21.7224 386.384C25.7989 386.384 29.7932 384.901 33.2485 382.103C36.7039 379.306 39.4808 375.308 41.2619 370.565C43.0429 365.823 43.7562 360.528 43.3201 355.287C42.8841 350.045 41.3163 345.068 38.7961 340.924C41.7075 336.144 -3.53934e-05 320.401 -3.53934e-05 323.555Z" fill="black"/>
</g>
</svg>
