<svg width="245" height="336" viewBox="0 0 245 336" fill="none" xmlns="http://www.w3.org/2000/svg">
<g opacity="0.3">
<path d="M190.14 73.09H175.8L173.75 71.05L157.1 40.05L190.14 73.09Z" fill="#2F54C6"/>
<path d="M175.75 103.2H205.96V66.56H175.75V103.2Z" fill="#6C63FF"/>
<path opacity="0.3" d="M175.75 103.2H205.96V66.56H175.75V103.2Z" fill="black"/>
<path d="M188.09 71.05H213.83L180.78 38H155.05L188.09 71.05Z" fill="#6C63FF"/>
<path opacity="0.3" d="M188.09 71.05H213.83L180.78 38H155.05L188.09 71.05Z" fill="black"/>
<path d="M175.75 61.78V103.2H134.34V61.78L155.05 41.67L155.26 41.88L157.1 43.66L175.75 61.78Z" fill="#6C63FF"/>
<path opacity="0.3" d="M157.1 40.05V54.39L138.39 73.09H134.34V62.81L155.26 41.88L157.1 40.05Z" fill="black"/>
<path d="M188.09 71.05H173.75L155.05 52.34V38L188.09 71.05Z" fill="#6C63FF"/>
<path d="M122 72.05H136.34L155.05 53.34V39L122 72.05Z" fill="#6C63FF"/>
<path d="M119.006 111.363C110.476 118.283 101.676 124.793 92.8263 131.193C83.9763 137.593 75.0063 143.813 66.0063 149.983C57.0063 156.153 47.8563 162.093 38.6663 167.983C34.0963 170.983 29.4563 173.823 24.8463 176.743C22.5725 178.31 20.06 179.499 17.4063 180.263C15.9677 180.651 14.4935 180.892 13.0063 180.983C11.3351 181.121 9.65289 181.03 8.0063 180.713C6.71717 180.451 5.49245 179.937 4.40233 179.2C3.3122 178.464 2.3781 177.52 1.65352 176.422C0.92894 175.324 0.428134 174.094 0.179795 172.802C-0.0685446 171.51 -0.0595402 170.182 0.206299 168.893C0.206299 168.743 0.2763 168.553 0.3163 168.393C0.765008 166.774 1.43821 165.226 2.3163 163.793C3.05509 162.518 3.92298 161.321 4.9063 160.223C6.75869 158.175 8.93003 156.439 11.3363 155.083C15.9863 152.223 20.5963 149.313 25.2663 146.513C34.5763 140.823 43.9763 135.293 53.4263 129.833C62.8763 124.373 72.4263 119.083 82.0563 113.923C91.6863 108.763 101.396 103.733 111.356 99.0932C112.963 98.3963 114.767 98.2997 116.439 98.8207C118.111 99.3418 119.541 100.446 120.468 101.932C121.394 103.419 121.756 105.188 121.488 106.919C121.22 108.65 120.339 110.227 119.006 111.363V111.363Z" fill="#6C63FF"/>
<path d="M119.006 111.363C110.476 118.283 101.676 124.793 92.8263 131.193C83.9763 137.593 75.0063 143.813 66.0063 149.983C57.0063 156.153 47.8563 162.093 38.6663 167.983C34.0963 170.983 29.4563 173.823 24.8463 176.743C22.5725 178.31 20.06 179.499 17.4063 180.263C15.9677 180.651 14.4935 180.892 13.0063 180.983C11.3351 181.121 9.65289 181.03 8.0063 180.713C6.71717 180.451 5.49245 179.937 4.40233 179.2C3.3122 178.464 2.3781 177.52 1.65352 176.422C0.92894 175.324 0.428134 174.094 0.179795 172.802C-0.0685446 171.51 -0.0595402 170.182 0.206299 168.893C0.206299 168.743 0.2763 168.553 0.3163 168.393C0.765008 166.774 1.43821 165.226 2.3163 163.793C3.05509 162.518 3.92298 161.321 4.9063 160.223C6.75869 158.175 8.93003 156.439 11.3363 155.083C15.9863 152.223 20.5963 149.313 25.2663 146.513C34.5763 140.823 43.9763 135.293 53.4263 129.833C62.8763 124.373 72.4263 119.083 82.0563 113.923C91.6863 108.763 101.396 103.733 111.356 99.0932C112.963 98.3963 114.767 98.2997 116.439 98.8207C118.111 99.3418 119.541 100.446 120.468 101.932C121.394 103.419 121.756 105.188 121.488 106.919C121.22 108.65 120.339 110.227 119.006 111.363V111.363Z" fill="#6C63FF"/>
<path opacity="0.5" d="M119.006 111.363C110.476 118.283 101.676 124.793 92.8263 131.193C83.9763 137.593 75.0063 143.813 66.0063 149.983C57.0063 156.153 47.8563 162.093 38.6663 167.983C34.0963 170.983 29.4563 173.823 24.8463 176.743C22.5725 178.31 20.06 179.499 17.4063 180.263C15.9677 180.651 14.4935 180.892 13.0063 180.983C11.3351 181.121 9.65289 181.03 8.0063 180.713C6.71717 180.451 5.49245 179.937 4.40233 179.2C3.3122 178.464 2.3781 177.52 1.65352 176.422C0.92894 175.324 0.428134 174.094 0.179795 172.802C-0.0685446 171.51 -0.0595402 170.182 0.206299 168.893C0.206299 168.743 0.2763 168.553 0.3163 168.393C0.765008 166.774 1.43821 165.226 2.3163 163.793C3.05509 162.518 3.92298 161.321 4.9063 160.223C6.75869 158.175 8.93003 156.439 11.3363 155.083C15.9863 152.223 20.5963 149.313 25.2663 146.513C34.5763 140.823 43.9763 135.293 53.4263 129.833C62.8763 124.373 72.4263 119.083 82.0563 113.923C91.6863 108.763 101.396 103.733 111.356 99.0932C112.963 98.3963 114.767 98.2997 116.439 98.8207C118.111 99.3418 119.541 100.446 120.468 101.932C121.394 103.419 121.756 105.188 121.488 106.919C121.22 108.65 120.339 110.227 119.006 111.363V111.363Z" fill="white"/>
<path d="M82.1063 326.613L90.2663 324.723L86.4463 305.693L78.2863 307.583L82.1063 326.613Z" fill="#EBB376"/>
<path d="M27.0863 99.2131C25.9563 103.213 24.8663 107.423 23.8263 111.543C22.7863 115.663 21.8263 119.843 21.0263 124.003C20.5863 126.073 20.2063 128.193 19.8763 130.143C19.5463 132.093 19.3563 134.143 19.2363 136.193C19.1313 138.232 19.1313 140.274 19.2363 142.313C19.2363 143.313 19.3663 144.313 19.4663 145.373C19.5663 146.433 19.7463 147.443 19.8863 148.313L15.8863 149.823C15.3614 148.748 14.9104 147.639 14.5363 146.503C14.1451 145.411 13.8113 144.3 13.5363 143.173C12.9891 140.925 12.6147 138.638 12.4163 136.333C12.2312 134.004 12.1978 131.666 12.3163 129.333C12.4763 126.973 12.7563 124.803 13.0663 122.603C13.6963 118.213 14.5063 113.863 15.4663 109.603C16.4263 105.343 17.4663 101.053 18.8163 96.7431L27.0863 99.2131Z" fill="#EBB376"/>
<path d="M15.3163 100.593L23.7263 107.293L28.7763 111.293C28.7763 111.293 29.3063 109.883 29.9463 107.863C31.1663 103.963 32.7563 97.7831 31.6563 94.9431C29.9263 90.4431 26.6563 86.3831 22.5163 87.2831C19.0063 88.0731 15.3163 100.593 15.3163 100.593Z" fill="#263238"/>
<path d="M26.9364 326.673H35.3064L34.6564 307.273H26.2764L26.9364 326.673Z" fill="#EBB376"/>
<path d="M86.4464 305.703L88.4964 315.893L80.2564 317.393L78.2764 307.593L86.4464 305.703Z" fill="#DA9D62"/>
<path d="M26.2764 307.273H34.6564L34.9864 317.273H26.6064L26.2764 307.273Z" fill="#DA9D62"/>
<path d="M53.5763 138.103C53.5763 138.103 48.7163 195.593 43.6763 227.993C39.6063 254.163 36.3863 315.343 36.3863 315.343H25.0063C25.0063 315.343 19.5663 256.263 21.6363 230.343C26.8663 164.853 17.6363 153.253 28.5863 138.073L53.5763 138.103Z" fill="#6C63FF"/>
<path opacity="0.6" d="M53.5763 138.103C53.5763 138.103 48.7163 195.593 43.6763 227.993C39.6063 254.163 36.3863 315.343 36.3863 315.343H25.0063C25.0063 315.343 19.5663 256.263 21.6363 230.343C26.8663 164.853 17.6363 153.253 28.5863 138.073L53.5763 138.103Z" fill="black"/>
<path d="M16.4363 149.173L11.4963 152.533L12.1963 155.403C12.1963 155.403 22.4863 150.063 19.7363 147.923L16.4363 149.173Z" fill="#EBB376"/>
<path d="M38.8364 327.163C38.0909 327.144 37.3498 327.044 36.6263 326.863C36.5895 326.852 36.5563 326.831 36.53 326.803C36.5037 326.775 36.4852 326.741 36.4764 326.703C36.4702 326.665 36.4755 326.625 36.4915 326.59C36.5075 326.554 36.5335 326.524 36.5663 326.503C36.8563 326.313 39.3864 324.673 40.3664 325.113C40.4774 325.162 40.5733 325.239 40.6437 325.338C40.7142 325.436 40.7566 325.552 40.7663 325.673C40.8054 325.862 40.7956 326.057 40.7378 326.241C40.6801 326.425 40.5763 326.591 40.4363 326.723C39.9731 327.057 39.4052 327.213 38.8364 327.163V327.163ZM37.1863 326.573C38.6463 326.873 39.7463 326.813 40.1863 326.433C40.2782 326.342 40.3456 326.229 40.3823 326.105C40.419 325.981 40.4238 325.85 40.3964 325.723C40.3927 325.67 40.375 325.619 40.3451 325.575C40.3153 325.531 40.2743 325.496 40.2264 325.473C39.6964 325.243 38.2263 325.983 37.1863 326.573V326.573Z" fill="#6C63FF"/>
<path d="M36.6763 326.863C36.6438 326.874 36.6088 326.874 36.5763 326.863C36.547 326.845 36.5225 326.82 36.5051 326.791C36.4877 326.761 36.4778 326.727 36.4763 326.693C36.4763 326.583 36.4763 324.173 37.3963 323.363C37.5073 323.259 37.6406 323.181 37.7862 323.136C37.9318 323.091 38.0857 323.08 38.2363 323.103C38.394 323.104 38.5466 323.16 38.6685 323.26C38.7904 323.36 38.8743 323.499 38.9063 323.653C39.0963 324.653 37.5663 326.413 36.7763 326.863C36.7437 326.873 36.709 326.873 36.6763 326.863V326.863ZM38.0963 323.473C37.9344 323.477 37.7789 323.537 37.6563 323.643C37.1317 324.422 36.8626 325.344 36.8863 326.283C37.6763 325.643 38.6363 324.283 38.5163 323.713C38.5163 323.623 38.4463 323.503 38.1863 323.473H38.0963Z" fill="#6C63FF"/>
<path d="M91.0063 323.463C90.9689 323.461 90.9329 323.449 90.9018 323.428C90.8707 323.407 90.8457 323.379 90.8294 323.345C90.8131 323.311 90.806 323.274 90.809 323.237C90.812 323.2 90.8248 323.164 90.8463 323.133C91.1163 322.813 93.4463 320.073 94.6363 320.073H94.7163C94.8248 320.081 94.9292 320.117 95.0189 320.179C95.1086 320.24 95.1802 320.325 95.2263 320.423C95.3069 320.577 95.349 320.749 95.349 320.923C95.349 321.097 95.3069 321.269 95.2263 321.423C94.7063 322.523 92.3563 323.143 90.9963 323.423L91.0063 323.463ZM94.6263 320.463C93.9763 320.463 92.5363 321.823 91.5463 322.933C93.3763 322.503 94.6163 321.933 94.9063 321.283C94.9651 321.181 94.996 321.066 94.996 320.948C94.996 320.831 94.9651 320.715 94.9063 320.613C94.889 320.573 94.8615 320.538 94.8264 320.511C94.7913 320.485 94.7498 320.468 94.7063 320.463H94.6263Z" fill="#6C63FF"/>
<path d="M91.0063 323.463C90.9727 323.458 90.9413 323.443 90.9163 323.42C90.8914 323.396 90.874 323.366 90.8663 323.333C90.8663 323.243 90.1463 321.083 90.7863 319.873C90.8743 319.696 90.9979 319.539 91.1493 319.411C91.3007 319.284 91.4767 319.189 91.6663 319.133C92.1963 318.973 92.4563 319.133 92.5663 319.363C93.0763 320.183 91.9463 322.603 91.1963 323.363C91.1766 323.395 91.1485 323.422 91.1151 323.439C91.0816 323.457 91.0441 323.465 91.0063 323.463V323.463ZM92.0063 319.463C91.9301 319.451 91.8525 319.451 91.7763 319.463C91.6365 319.503 91.5065 319.572 91.3946 319.665C91.2827 319.758 91.1914 319.873 91.1263 320.003C90.836 320.914 90.836 321.892 91.1263 322.803C91.8363 321.803 92.5263 320.013 92.2263 319.523C92.1933 319.483 92.1477 319.455 92.0968 319.444C92.0459 319.433 91.9929 319.44 91.9463 319.463H92.0063Z" fill="#6C63FF"/>
<path d="M37.4063 67.0531C38.4063 72.0531 40.4063 82.0531 36.9563 85.4031C36.9563 85.4031 38.3163 90.4031 47.5563 90.4031C57.7063 90.4031 52.4063 85.4031 52.4063 85.4031C46.8663 84.0831 47.0063 79.9731 47.9763 76.1031L37.4063 67.0531Z" fill="#EBB376"/>
<path d="M57.5863 56.3931C57.5042 56.3946 57.4237 56.3701 57.3563 56.3231C57.3135 56.2923 57.2772 56.2534 57.2495 56.2086C57.2218 56.1637 57.2033 56.1139 57.1949 56.0618C57.1865 56.0098 57.1885 55.9566 57.2008 55.9053C57.213 55.8541 57.2353 55.8057 57.2663 55.7631C57.6273 55.2492 58.1041 54.8276 58.6583 54.5322C59.2125 54.2369 59.8285 54.0762 60.4563 54.0631C60.5503 54.0781 60.6358 54.1261 60.6976 54.1985C60.7593 54.2709 60.7933 54.363 60.7933 54.4581C60.7933 54.5533 60.7593 54.6453 60.6976 54.7177C60.6358 54.7901 60.5503 54.8381 60.4563 54.8531C59.9569 54.8668 59.468 54.9991 59.0298 55.2391C58.5916 55.479 58.2168 55.8197 57.9363 56.2331C57.8968 56.2878 57.8438 56.3312 57.7824 56.3593C57.7211 56.3873 57.6535 56.399 57.5863 56.3931V56.3931Z" fill="#263238"/>
<path d="M59.8063 61.1631C60.3454 62.7296 61.0993 64.2138 62.0463 65.5731C61.6907 65.8037 61.2893 65.9545 60.8698 66.0149C60.4502 66.0753 60.0226 66.044 59.6163 65.9231L59.8063 61.1631Z" fill="#DE5753"/>
<path d="M59.2463 59.9831C59.2463 60.6631 59.5563 61.2231 59.9963 61.2331C60.4363 61.2431 60.8163 60.7231 60.8463 60.0431C60.8763 59.3631 60.5363 58.8131 60.0963 58.7931C59.6563 58.7731 59.2763 59.3131 59.2463 59.9831Z" fill="#263238"/>
<path d="M59.8962 58.8231L61.5362 58.4231C61.5362 58.4231 60.6562 59.6531 59.8962 58.8231Z" fill="#263238"/>
<path d="M36.0064 325.703H26.5963C26.4336 325.697 26.2744 325.752 26.1503 325.858C26.0262 325.963 25.9463 326.111 25.9264 326.273L24.8564 333.713C24.8335 333.902 24.8512 334.093 24.9084 334.274C24.9656 334.455 25.0608 334.621 25.1878 334.763C25.3147 334.904 25.4704 335.016 25.6444 335.092C25.8183 335.168 26.0065 335.206 26.1964 335.203C29.4764 335.153 31.0564 334.953 35.1964 334.953C37.7464 334.953 41.4564 335.223 44.9764 335.223C48.4964 335.223 48.6764 331.743 47.2164 331.433C40.6564 330.013 39.6163 328.073 37.4063 326.213C37.0128 325.886 36.518 325.706 36.0064 325.703Z" fill="#263238"/>
<path d="M90.1063 322.573L81.4163 326.183C81.2657 326.242 81.1418 326.353 81.0681 326.497C80.9944 326.641 80.9759 326.807 81.0163 326.963L82.8763 334.253C82.9291 334.435 83.0198 334.604 83.1425 334.748C83.2652 334.892 83.417 335.009 83.588 335.09C83.7591 335.171 83.9454 335.215 84.1347 335.219C84.324 335.223 84.512 335.187 84.6863 335.113C87.6863 333.803 89.0863 333.023 92.9063 331.433C95.2563 330.433 100.226 328.683 103.476 327.333C106.726 325.983 105.556 322.703 104.086 322.973C97.4863 324.193 94.3463 323.383 91.5963 322.513C91.108 322.357 90.5805 322.379 90.1063 322.573V322.573Z" fill="#263238"/>
<path d="M71.1863 95.7731C72.8163 99.6131 74.5763 103.543 76.3563 107.363C77.2563 109.283 78.193 111.17 79.1663 113.023C80.1663 114.883 81.1663 116.703 82.1663 118.443C82.6963 119.303 83.2263 120.163 83.7763 120.953L84.5963 122.093C84.7645 122.331 84.9554 122.552 85.1663 122.753C86.2569 123.701 87.6177 124.281 89.0563 124.413C92.4663 124.903 96.7463 124.213 100.576 123.183L102.356 127.033C101.344 127.641 100.296 128.185 99.2163 128.663C98.1541 129.158 97.062 129.585 95.9463 129.943C93.5945 130.744 91.1305 131.166 88.6463 131.193C87.2612 131.206 85.8811 131.024 84.5463 130.653C83.0648 130.245 81.6714 129.567 80.4363 128.653C79.804 128.172 79.2181 127.633 78.6863 127.043C78.2363 126.533 77.9063 126.103 77.5063 125.623C76.7563 124.683 76.0863 123.733 75.4163 122.783C72.9245 119.033 70.6797 115.125 68.6963 111.083C66.6963 107.083 64.8963 103.083 63.2363 98.9431L71.1863 95.7731Z" fill="#EBB376"/>
<path d="M99.7163 127.503L108.856 126.063L106.426 120.883C106.426 120.883 99.3463 122.113 97.9863 125.313L99.7163 127.503Z" fill="#EBB376"/>
<path d="M108.846 122.023L107.846 119.813L106.426 120.883L108.846 126.063V122.023Z" fill="#EBB376"/>
<path d="M36.6463 56.7731C36.8263 65.0831 36.7263 68.6031 40.7463 73.0231C46.7463 79.6731 56.9663 77.6331 59.2663 69.4331C61.3363 62.0531 60.6863 49.7031 52.7063 46.0831C50.9493 45.2775 49.0155 44.9344 47.0885 45.0863C45.1616 45.2382 43.3054 45.8802 41.6964 46.9512C40.0873 48.0223 38.7787 49.4868 37.8949 51.2059C37.011 52.9249 36.5812 54.8413 36.6463 56.7731V56.7731Z" fill="#EBB376"/>
<path d="M29.9463 41.7631C38.4863 35.5731 48.0263 39.0831 53.2463 43.3631C58.7063 47.8431 57.8363 56.4531 54.4963 60.0131C54.8427 60.5396 55.072 61.1344 55.1686 61.7573C55.2652 62.3801 55.2269 63.0164 55.0563 63.6231C55.4778 66.2872 54.8919 69.0129 53.4128 71.2684C51.9338 73.524 49.6676 75.1478 47.0563 75.8231L46.5863 75.9431C35.9163 78.4831 23.5863 71.2631 21.7263 60.4631C20.5963 53.8731 22.3963 47.2231 29.9463 41.7631Z" fill="#263238"/>
<path d="M52.5863 60.6231C52.7229 62.1898 53.3937 63.662 54.4863 64.7931C55.9663 66.3231 57.4863 65.4431 57.7563 63.6331C57.9863 62.0031 57.4963 59.2431 55.6963 58.3731C53.8963 57.5031 52.4563 58.7731 52.5863 60.6231Z" fill="#EBB376"/>
<path opacity="0.3" d="M42.0063 164.983C41.0563 182.163 45.1963 195.133 47.0863 202.723C48.4263 191.503 49.6563 179.793 50.6863 169.463C47.1563 157.763 42.6963 152.053 42.0063 164.983Z" fill="black"/>
<path d="M37.9564 315.563H23.4063L22.6364 310.463L38.0364 309.943L37.9564 315.563Z" fill="#6C63FF"/>
<path opacity="0.3" d="M23.7263 107.293L28.7763 111.293C28.7763 111.293 29.3063 109.883 29.9463 107.863L26.9463 93.0131L23.7263 107.293Z" fill="black"/>
<path d="M34.7063 43.1531C37.3163 40.2631 46.1863 35.8531 53.7963 39.3131C55.967 40.3018 57.8065 41.8956 59.0941 43.9034C60.3818 45.9112 61.0631 48.2478 61.0563 50.6331L54.1963 55.2331L34.7063 43.1531Z" fill="#263238"/>
<path d="M27.7063 50.7431C31.4763 47.6531 35.7063 36.4531 27.7063 40.3531C19.7063 44.2531 17.2763 59.2931 27.7063 50.7431Z" fill="#6C63FF"/>
<path d="M28.5563 43.5631C30.1863 38.8031 19.4363 29.3331 12.1863 38.3331C4.93629 47.3331 23.8663 57.2631 28.5563 43.5631Z" fill="#263238"/>
<path d="M45.3763 50.2031C39.1263 47.5431 36.0163 37.4631 46.7463 37.7531C57.4763 38.0431 57.1663 55.2331 45.3763 50.2031Z" fill="#6C63FF"/>
<path d="M43.3563 44.9831C39.5663 40.2531 43.7563 28.0931 54.6263 31.9831C65.4963 35.8731 52.0563 55.7931 43.3563 44.9831Z" fill="#263238"/>
<path d="M62.5664 138.103C62.5664 138.103 72.0064 202.603 75.3264 227.983C78.7764 254.333 88.8564 313.413 88.8564 313.413L77.6564 315.123C77.6564 315.123 59.9564 258.773 55.0264 233.123C49.6464 205.173 39.0264 138.123 39.0264 138.123L62.5664 138.103Z" fill="#6C63FF"/>
<path opacity="0.6" d="M62.5664 138.103C62.5664 138.103 72.0064 202.603 75.3264 227.983C78.7764 254.333 88.8564 313.413 88.8564 313.413L77.6564 315.123C77.6564 315.123 59.9564 258.773 55.0264 233.123C49.6464 205.173 39.0264 138.123 39.0264 138.123L62.5664 138.103Z" fill="black"/>
<path d="M66.5663 87.5532C70.7263 88.5532 75.8563 99.9931 75.8563 99.9931L65.9463 112.693C65.9463 112.693 55.7064 98.2031 57.0764 93.7831C58.4964 89.1731 61.5163 86.3232 66.5663 87.5532Z" fill="#263238"/>
<path d="M53.0063 87.0331C54.3763 87.2331 53.1063 84.1031 52.5363 83.7731C51.2263 82.9931 34.5363 81.4231 34.7263 83.1831C34.8273 84.2335 35.2781 85.2195 36.0063 85.9831C36.7563 86.4831 41.0063 85.1031 53.0063 87.0331Z" fill="#6C63FF"/>
<path opacity="0.6" d="M53.0063 87.0331C54.3763 87.2331 53.1063 84.1031 52.5363 83.7731C51.2263 82.9931 34.5363 81.4231 34.7263 83.1831C34.8273 84.2335 35.2781 85.2195 36.0063 85.9831C36.7563 86.4831 41.0063 85.1031 53.0063 87.0331Z" fill="white"/>
<path d="M66.5663 87.5531C66.5663 87.5531 70.5663 88.9531 62.5663 138.103H28.5663C29.1363 124.263 29.1563 115.723 22.5663 87.3031C27.3272 86.3206 32.1533 85.6856 37.0063 85.4031C42.1496 85.0327 47.3129 85.0327 52.4563 85.4031C59.0063 85.9831 66.5663 87.5531 66.5663 87.5531Z" fill="#263238"/>
<path d="M28.0063 136.113L26.4763 139.113C26.3563 139.353 26.6363 139.593 27.0263 139.593H62.7063C63.0063 139.593 63.2663 139.443 63.2863 139.243L63.5863 136.243C63.5863 136.033 63.3463 135.853 63.0063 135.853H28.5863C28.475 135.838 28.3616 135.854 28.2591 135.9C28.1565 135.946 28.0689 136.02 28.0063 136.113V136.113Z" fill="#6C63FF"/>
<path opacity="0.6" d="M28.0063 136.113L26.4763 139.113C26.3563 139.353 26.6363 139.593 27.0263 139.593H62.7063C63.0063 139.593 63.2663 139.443 63.2863 139.243L63.5863 136.243C63.5863 136.033 63.3463 135.853 63.0063 135.853H28.5863C28.475 135.838 28.3616 135.854 28.2591 135.9C28.1565 135.946 28.0689 136.02 28.0063 136.113V136.113Z" fill="white"/>
<path d="M32.6663 139.983H31.7363C31.5563 139.983 31.4163 139.883 31.4263 139.773L31.8663 135.773C31.8663 135.653 32.0363 135.563 32.2163 135.563H33.1463C33.3263 135.563 33.4663 135.653 33.4563 135.773L33.0163 139.773C33.0063 139.863 32.8463 139.983 32.6663 139.983Z" fill="#6C63FF"/>
<path d="M55.0063 139.983H54.0863C53.8963 139.983 53.7563 139.883 53.7763 139.773L54.2063 135.773C54.2063 135.653 54.3763 135.563 54.5663 135.563H55.4863C55.6663 135.563 55.8063 135.653 55.7963 135.773L55.3663 139.773C55.3663 139.863 55.2063 139.983 55.0063 139.983Z" fill="#6C63FF"/>
<path opacity="0.6" d="M32.6663 139.983H31.7363C31.5563 139.983 31.4163 139.883 31.4263 139.773L31.8663 135.773C31.8663 135.653 32.0363 135.563 32.2163 135.563H33.1463C33.3263 135.563 33.4663 135.653 33.4563 135.773L33.0163 139.773C33.0063 139.863 32.8463 139.983 32.6663 139.983Z" fill="black"/>
<path opacity="0.6" d="M55.0063 139.983H54.0863C53.8963 139.983 53.7563 139.883 53.7763 139.773L54.2063 135.773C54.2063 135.653 54.3763 135.563 54.5663 135.563H55.4863C55.6663 135.563 55.8063 135.653 55.7963 135.773L55.3663 139.773C55.3663 139.863 55.2063 139.983 55.0063 139.983Z" fill="black"/>
<path d="M90.5063 313.413L76.1663 315.853L74.5363 310.443L89.8863 307.813L90.5063 313.413Z" fill="#6C63FF"/>
<path d="M233.416 34.2431C225.789 22.0292 214.711 12.3514 201.583 6.43326C188.456 0.515156 173.868 -1.37741 159.665 0.994887C145.461 3.36718 132.281 9.89778 121.789 19.7609C111.297 29.6241 103.966 42.3768 100.721 56.4065C97.4773 70.4363 98.4661 85.1129 103.563 98.5807C108.66 112.049 117.635 123.703 129.355 132.069C141.075 140.436 155.013 145.139 169.406 145.585C183.799 146.031 198.001 142.199 210.216 134.573C218.328 129.509 225.363 122.897 230.919 115.114C236.475 107.331 240.443 98.5303 242.598 89.2136C244.752 79.8968 245.05 70.247 243.475 60.8151C241.899 51.3832 238.482 42.354 233.416 34.2431V34.2431ZM122.926 103.243C116.91 93.6046 113.886 82.3983 114.238 71.0415C114.59 59.6846 118.302 48.6871 124.904 39.4398C131.506 30.1924 140.702 23.1104 151.329 19.0893C161.956 15.0682 173.537 14.2887 184.607 16.8492C195.677 19.4098 205.739 25.1954 213.521 33.4746C221.303 41.7537 226.455 52.1545 228.326 63.3617C230.197 74.5689 228.703 86.0793 224.032 96.4373C219.362 106.795 211.724 115.536 202.086 121.553C195.686 125.548 188.561 128.244 181.119 129.485C173.677 130.727 166.063 130.491 158.712 128.789C151.361 127.088 144.417 123.956 138.277 119.571C132.137 115.186 126.921 109.634 122.926 103.233V103.243Z" fill="#6C63FF"/>
<path d="M233.416 34.2431C225.789 22.0292 214.711 12.3514 201.583 6.43326C188.456 0.515156 173.868 -1.37741 159.665 0.994887C145.461 3.36718 132.281 9.89778 121.789 19.7609C111.297 29.6241 103.966 42.3768 100.721 56.4065C97.4773 70.4363 98.4661 85.1129 103.563 98.5807C108.66 112.049 117.635 123.703 129.355 132.069C141.075 140.436 155.013 145.139 169.406 145.585C183.799 146.031 198.001 142.199 210.216 134.573C218.328 129.509 225.363 122.897 230.919 115.114C236.475 107.331 240.443 98.5303 242.598 89.2136C244.752 79.8968 245.05 70.247 243.475 60.8151C241.899 51.3832 238.482 42.354 233.416 34.2431V34.2431ZM122.926 103.243C116.91 93.6046 113.886 82.3983 114.238 71.0415C114.59 59.6846 118.302 48.6871 124.904 39.4398C131.506 30.1924 140.702 23.1104 151.329 19.0893C161.956 15.0682 173.537 14.2887 184.607 16.8492C195.677 19.4098 205.739 25.1954 213.521 33.4746C221.303 41.7537 226.455 52.1545 228.326 63.3617C230.197 74.5689 228.703 86.0793 224.032 96.4373C219.362 106.795 211.724 115.536 202.086 121.553C195.686 125.548 188.561 128.244 181.119 129.485C173.677 130.727 166.063 130.491 158.712 128.789C151.361 127.088 144.417 123.956 138.277 119.571C132.137 115.186 126.921 109.634 122.926 103.233V103.243Z" fill="#6C63FF"/>
<path opacity="0.5" d="M233.416 34.2431C225.789 22.0292 214.711 12.3514 201.583 6.43326C188.456 0.515156 173.868 -1.37741 159.665 0.994887C145.461 3.36718 132.281 9.89778 121.789 19.7609C111.297 29.6241 103.966 42.3768 100.721 56.4065C97.4773 70.4363 98.4661 85.1129 103.563 98.5807C108.66 112.049 117.635 123.703 129.355 132.069C141.075 140.436 155.013 145.139 169.406 145.585C183.799 146.031 198.001 142.199 210.216 134.573C218.328 129.509 225.363 122.897 230.919 115.114C236.475 107.331 240.443 98.5303 242.598 89.2136C244.752 79.8968 245.05 70.247 243.475 60.8151C241.899 51.3832 238.482 42.354 233.416 34.2431V34.2431ZM122.926 103.243C116.91 93.6046 113.886 82.3983 114.238 71.0415C114.59 59.6846 118.302 48.6871 124.904 39.4398C131.506 30.1924 140.702 23.1104 151.329 19.0893C161.956 15.0682 173.537 14.2887 184.607 16.8492C195.677 19.4098 205.739 25.1954 213.521 33.4746C221.303 41.7537 226.455 52.1545 228.326 63.3617C230.197 74.5689 228.703 86.0793 224.032 96.4373C219.362 106.795 211.724 115.536 202.086 121.553C195.686 125.548 188.561 128.244 181.119 129.485C173.677 130.727 166.063 130.491 158.712 128.789C151.361 127.088 144.417 123.956 138.277 119.571C132.137 115.186 126.921 109.634 122.926 103.233V103.243Z" fill="white"/>
<path opacity="0.2" d="M225.206 39.3731C231.816 49.9647 235.137 62.2783 234.75 74.7572C234.362 87.2361 230.283 99.3199 223.028 109.481C215.773 119.641 205.668 127.423 193.991 131.841C182.314 136.26 169.59 137.116 157.426 134.303C145.262 131.49 134.205 125.134 125.654 116.037C117.102 106.941 111.44 95.5128 109.383 83.1986C107.326 70.8843 108.966 58.2365 114.097 46.8545C119.227 35.4724 127.617 25.8671 138.206 19.2531C145.239 14.8601 153.069 11.8958 161.248 10.5295C169.427 9.16315 177.795 9.42158 185.874 11.29C193.953 13.1584 201.585 16.6002 208.334 21.4188C215.083 26.2374 220.816 32.3383 225.206 39.3731V39.3731Z" fill="#FAFAFA"/>
<path opacity="0.1" d="M234.176 63.8731L136.176 125.053C128.185 119.63 121.544 112.446 116.766 104.053L223.766 37.2431C229.226 45.2073 232.788 54.3174 234.176 63.8731Z" fill="#E6E6E6"/>
</g>
</svg>
