<svg width="888" height="464" viewBox="0 0 888 464" fill="none" xmlns="http://www.w3.org/2000/svg">
<path d="M558.304 43.8958C565.703 45.0238 573.249 45.1984 580.574 46.6665C636.282 57.823 912.698 154.248 855.9 292.48C797.498 434.621 205.891 407.895 95.758 334.53C-13.5319 261.729 64.5389 -31.3394 558.304 43.8958Z" fill="#E5F2FF"/>
<path d="M880.223 406.968C880.223 393.227 683.177 382.088 440.112 382.088C197.044 382.088 0 393.227 0 406.968C0 420.71 197.044 431.849 440.112 431.849C683.177 431.849 880.223 420.71 880.223 406.968Z" fill="#E5F2FF"/>
<path d="M671.771 403.809H683.256C686.327 403.809 688.838 401.541 688.838 398.772C688.838 396 686.327 393.733 683.256 393.733H671.771C668.7 393.733 666.187 396 666.187 398.772C666.187 401.541 668.7 403.809 671.771 403.809Z" fill="#1D0A0A"/>
<path d="M198.25 403.809H209.737C212.806 403.809 215.319 401.541 215.319 398.772C215.319 396 212.806 393.733 209.737 393.733H198.25C195.181 393.733 192.668 396 192.668 398.772C192.668 401.541 195.181 403.809 198.25 403.809Z" fill="#1D0A0A"/>
<path d="M225.427 137.074L656.079 161.849C667.244 161.849 676.296 170.016 676.296 180.09L677.513 300.902H203.609L205.211 155.315C205.211 145.241 214.261 137.074 225.427 137.074Z" fill="#FAC877"/>
<path d="M203.993 399.228H677.514V365.008H203.993V399.228Z" fill="#DFAD5F"/>
<path d="M203.993 365.01H677.511V300.538H203.993V365.01Z" fill="#FFCD8A"/>
<path d="M677.513 399.229H699.749C711.948 399.229 721.837 390.305 721.837 379.299L735.664 239.589C735.664 231.246 728.17 224.484 718.925 224.484H677.513V399.229Z" fill="#FFCD8A"/>
<path d="M182.874 399.229H203.993V224.484H162.583C153.337 224.484 145.842 231.246 145.842 239.589L160.784 379.299C160.784 390.305 170.673 399.229 182.874 399.229Z" fill="#FFCD8A"/>
<g opacity="0.580002">
<path opacity="0.580002" d="M531.225 304.052H534.108V365.009H531.225V304.052Z" fill="#DFAD5F"/>
</g>
<g opacity="0.580002">
<path opacity="0.580002" d="M352.946 304.052H355.83V365.009H352.946V304.052Z" fill="#DFAD5F"/>
</g>
<g opacity="0.580002">
<path opacity="0.580002" d="M203.993 365.01H206.88V300.538H203.993V365.01Z" fill="#DFAD5F"/>
</g>
<g opacity="0.580002">
<path opacity="0.580002" d="M674.624 365.01H677.511V300.538H674.624V365.01Z" fill="#DFAD5F"/>
</g>
<path d="M309.229 185.56C309.229 185.56 305.658 193.552 314.257 198.069C322.855 202.587 317.035 206.495 321.604 211.411C326.171 216.327 342.673 208.256 342.048 223.774C341.422 239.29 297.406 248.325 287.809 232.325C278.212 216.327 309.229 185.56 309.229 185.56Z" fill="#1D0A0A"/>
<path d="M306.528 192.529C306.528 192.529 281.504 201.398 287.536 216.173C293.568 230.947 304.909 246.623 282.951 245.317C260.995 244.011 284.64 249.889 260.995 244.011C237.347 238.133 238.554 213.095 249.171 208.307C259.788 203.516 303.804 189.38 306.528 192.529Z" fill="#1D0A0A"/>
<path d="M601.993 286.266C601.993 286.266 604.507 288.543 614.776 286.266C625.045 283.989 639.296 282.665 646.002 289.472C652.709 296.28 655.851 300.537 651.241 300.537C646.631 300.537 610.97 299.683 605.974 300.05C600.977 300.417 601.993 286.266 601.993 286.266Z" fill="#FFA12D"/>
<path d="M294.007 168.674C294.007 168.674 301.02 160.474 307.798 176.114C314.574 191.756 297.773 199.871 295.88 205.864C293.989 211.858 268.433 217.54 255.983 196.922C243.534 176.305 273.443 151.026 294.007 168.674Z" fill="#1D0A0A"/>
<path d="M299.14 182.635C301.797 185.642 302.905 189.513 302.628 193.35C302.388 196.688 302.55 201.41 304.735 204.771C308.469 210.514 300.648 226.964 289.084 228.83C285.143 229.467 272.698 225.213 271.146 214.854C270.074 207.699 264.286 187.485 276.894 181.841C286.745 177.433 293.854 176.652 299.14 182.635Z" fill="#E99368"/>
<path d="M283.309 289.12C286.657 291.142 290.457 292.955 294.602 294.57C314.197 302.218 341.668 305.541 366.425 306.864C398.481 308.583 425.987 306.937 425.987 306.937L424.521 297.581L419.994 268.752L417.823 254.946C417.823 255.634 417.269 264.761 386.633 245.07C354.833 224.648 330.046 217.555 320.076 216.626C305.92 215.308 312.421 227.691 298.875 229.9C290.945 231.192 279.233 233.182 266.646 230.14C255.237 227.378 243.737 265.148 283.309 289.12Z" fill="#7AAEDE"/>
<path d="M410.859 267.606C410.859 267.606 443.389 290.214 460.225 278.472C463.839 275.951 466.333 272.117 467.997 267.658C473.897 251.956 469.752 228.451 469.428 226.691C473.215 243.996 496.887 261.574 514.935 272.731C526.656 279.984 535.998 284.526 535.998 284.526L561.69 286.266C561.69 286.266 557.903 283.015 551.979 277.201H551.968C543.93 269.293 531.956 256.645 520.236 240.965C502.776 217.605 470.94 179.368 455.247 184.421C441.945 188.703 415.668 244.824 408.624 262.087C407.365 265.192 411.034 267.574 410.859 267.606Z" fill="#7AAEDE"/>
<path d="M342.87 301.405C346.31 303.968 354.682 305.728 366.426 306.863C422.327 312.293 554.67 303.696 595.628 300.801C603.434 300.247 607.926 299.904 607.926 299.904C607.926 299.904 608.768 298.248 609.034 295.924C609.023 295.913 609.034 295.903 609.034 295.893C609.472 291.902 608.18 285.964 597.96 283.13C595.674 282.494 505.074 271.273 482.164 269.085C461.009 267.064 444.394 265.98 419.995 268.752C417.984 268.981 415.929 269.231 413.804 269.512C394.313 272.096 356.23 278.306 342.881 287.651C337.132 291.662 335.976 296.268 342.87 301.405Z" fill="#7AAEDE"/>
<path d="M300.392 175.83C300.392 175.83 299.371 186.04 288.308 189.418C277.245 192.797 281.33 199.282 272.308 207.711C263.288 216.14 251.033 223.818 256.82 232.111C262.607 240.403 233.744 237.883 226.124 228.859C215.41 216.173 228.056 211.002 234.865 201.208C241.672 191.415 240.193 181.591 249.619 177.131C259.045 172.672 259.626 171.651 260.567 170.239C261.508 168.825 300.392 175.83 300.392 175.83Z" fill="#1D0A0A"/>
<path d="M257.551 211.962C257.551 211.962 257.877 225.443 276.32 243.484C295.156 261.91 274.223 278.714 250.452 248.926C239.109 234.712 245.687 211.723 247.63 202.592C249.928 191.798 255.598 188.087 264.226 199.516C272.852 210.943 256.438 223.012 260.548 211.33C261.479 208.684 257.551 211.962 257.551 211.962Z" fill="#E99368"/>
<path d="M295.116 213.331C295.116 213.331 296.107 219.341 297.679 224.473C298.292 226.48 298.997 228.351 299.764 229.678C301.837 233.26 298.466 235.858 294.043 236.498C289.315 237.183 282.91 235.472 278.927 231.798L275.593 222.953L270.477 209.378L295.116 213.331Z" fill="#E99368"/>
<path d="M445.098 265.188L467.996 267.658C473.897 251.956 469.752 228.451 469.428 226.691C473.214 243.996 496.887 261.574 514.935 272.732C514.935 272.732 547.534 276.67 551.644 277.16C515.72 272.491 519.947 260.253 490.892 245.057C475.957 237.246 466.159 219.376 466.159 219.376C463.365 236.35 445.098 265.188 445.098 265.188Z" fill="#6B97C2"/>
<path d="M278.46 267.085C278.46 267.085 281.762 279.859 294.602 294.569C314.197 302.217 341.669 305.541 366.426 306.864C422.327 312.292 567.279 303.931 608.237 301.035C609.431 300.986 609.034 295.892 609.034 295.923C609.057 295.914 609.08 295.904 609.104 295.892H609.034C606.609 295.82 541.576 294.059 514.069 295.892C493.33 297.279 455.744 299.164 424.521 297.58C364.892 294.556 419.278 268.46 410.859 267.606C396.772 266.178 351.877 284.106 333.099 279.802C308.7 274.218 294.729 273.45 283.61 260.25L278.46 267.085Z" fill="#6B97C2"/>
<path d="M393.578 210.489L364.295 228.858L320.611 230.468V235.728L384.928 237.156L399.033 219.375L393.578 210.489Z" fill="white"/>
<path d="M399.6 210.489L396.526 212.272L366.069 229.925L317.735 233.037L335.861 285.241L372.868 286.267L402.965 269.619L399.6 210.489Z" fill="#CA4400"/>
<path d="M400.303 239.646C400.303 239.646 401.472 246.324 389.929 243.459C384.764 242.178 385.25 249.409 391.391 259.309C395.198 265.444 398.371 271.108 407.057 267.612C414.172 264.749 418.287 244.314 400.303 239.646Z" fill="#E99368"/>
<path d="M366.07 229.925L372.867 286.266L331.884 285.13L317.734 233.037L366.07 229.925Z" fill="#DC4B00"/>
<path d="M296.022 202.001C296.022 202.994 296.536 203.799 297.171 203.799C297.805 203.799 298.319 202.994 298.319 202.001C298.319 201.008 297.805 200.203 297.171 200.203C296.536 200.203 296.022 201.008 296.022 202.001Z" fill="#5F3926"/>
<path d="M278.925 202.551C278.925 203.544 279.439 204.349 280.074 204.349C280.709 204.349 281.224 203.544 281.224 202.551C281.224 201.558 280.709 200.753 280.074 200.753C279.439 200.753 278.925 201.558 278.925 202.551Z" fill="#5F3926"/>
<path d="M295.116 215.19C295.116 215.19 294.304 211.895 291.333 211.992C288.365 212.087 285.968 216.535 285.968 216.535C285.968 216.535 291.478 223.744 295.116 215.19Z" fill="#C77557"/>
<path d="M284.221 215.331C284.193 215.374 284.827 215.808 286.014 216.237C287.179 216.686 289.012 217.035 290.965 216.654C292.927 216.312 294.451 215.365 295.39 214.6C296.334 213.819 296.742 213.193 296.675 213.151C296.606 213.103 296.091 213.625 295.114 214.302C294.137 214.966 292.669 215.798 290.844 216.116C289.029 216.471 287.315 216.21 286.153 215.87C284.978 215.55 284.272 215.242 284.221 215.331Z" fill="#A66748"/>
<path d="M299.844 196.757C299.844 196.757 297.558 195.27 295.116 195.561C295.116 195.561 294.337 192.764 297.766 193.816C299.834 194.45 299.844 196.757 299.844 196.757Z" fill="#1D0A0A"/>
<path d="M277.272 196.757C277.272 196.757 279.557 195.27 282 195.561C282 195.561 282.779 192.764 279.35 193.816C277.282 194.45 277.272 196.757 277.272 196.757Z" fill="#1D0A0A"/>
<path d="M296.676 225.295C296.676 225.295 291.249 232.514 275.92 223.823C275.92 223.823 285.687 239.284 296.676 225.295Z" fill="#C77557"/>
<path d="M259.776 210.463C259.776 210.463 260.117 210.225 260.569 210.051C261.183 209.814 262.003 209.696 262.441 210.463C263.2 211.794 261.131 217.024 259.199 216.556C257.268 216.088 257.405 212.459 257.268 211.411" fill="#C77557"/>
<path d="M283.579 257.874C283.579 257.874 280.141 262.71 268.889 253.029C257.638 243.349 244.078 223.549 244.078 223.549L242.61 236.792C242.61 236.792 273.628 291.759 283.579 257.874Z" fill="#C77557"/>
<path d="M200.872 219.377L202.107 251.488C202.316 256.989 203.54 262.386 205.688 267.47C207.836 272.544 210.908 277.305 214.81 281.536C226.323 294.017 243.32 301.353 261.323 301.602L308.32 302.248C312.569 302.301 315.076 298.592 314.013 295.445C313.713 294.549 313.136 293.695 312.211 292.986C299.626 283.265 280.122 267.481 265.456 252.384C242.003 228.212 210.712 214.814 210.712 214.814C208.089 213.532 206.173 213.303 204.765 213.636C201.047 214.531 200.872 219.377 200.872 219.377Z" fill="#FFA12D"/>
<path d="M200.872 219.377L202.107 251.488C202.316 256.989 203.54 262.386 205.688 267.47C207.836 272.544 210.908 277.305 214.81 281.536C226.323 294.017 243.32 301.353 261.323 301.602L308.32 302.248C312.569 302.301 315.076 298.592 314.013 295.445C314.013 295.445 283.677 303.04 241.923 272.898C205.272 246.444 215.618 224.899 204.765 213.636C201.047 214.531 200.872 219.377 200.872 219.377Z" fill="#EC9227"/>
<path d="M651.03 294.948C651.03 294.948 661.391 303.78 639.929 302.773C618.466 301.768 511.501 311.341 445.098 311.857C378.694 312.372 305.882 304.316 282.076 308.624C258.268 312.932 209.766 308.307 206.88 300.538C203.993 292.768 200.374 263.198 204.423 264.124C204.423 264.124 232.11 301.019 257.565 301.444C305.59 302.248 314.135 297.977 314.135 297.977C373.661 299.601 464.326 306.403 519.365 302.027C579.485 297.245 651.24 302.773 651.03 294.948Z" fill="#DFAD5F"/>
<path d="M265.442 197.691C265.467 197.718 265.917 197.433 266.604 196.793C267.289 196.157 268.228 195.17 269.111 193.782C269.555 193.092 269.984 192.301 270.33 191.408C270.693 190.511 270.896 189.541 271.344 188.611C272.186 186.712 273.997 185.02 276.401 184.075C278.792 183.108 281.32 182.748 283.592 182.506C285.91 182.299 288.126 181.364 288.932 179.805C289.757 178.303 289.545 176.91 289.368 176.056C289.166 175.179 288.918 174.732 288.881 174.745C288.839 174.758 289.008 175.224 289.133 176.09C289.241 176.934 289.355 178.279 288.553 179.622C287.778 181.002 285.77 181.82 283.535 182.002C281.227 182.221 278.647 182.566 276.147 183.575C274.906 184.085 273.767 184.764 272.857 185.603C271.941 186.44 271.275 187.425 270.826 188.413C270.367 189.41 270.177 190.41 269.852 191.26C269.539 192.129 269.144 192.907 268.734 193.593C267.921 194.972 267.05 195.979 266.429 196.651C265.804 197.324 265.413 197.661 265.442 197.691Z" fill="#462020"/>
<path d="M260.469 191.132C260.535 191.275 261.625 190.669 262.726 189.256C263.294 188.562 263.911 187.702 264.535 186.718C265.156 185.716 265.78 184.66 266.762 183.748C268.713 181.905 271.199 181.023 272.967 180.545C274.761 180.063 275.929 179.96 275.921 179.88C275.921 179.81 274.722 179.773 272.857 180.169C271.021 180.561 268.399 181.412 266.321 183.368C265.281 184.33 264.613 185.499 264.046 186.471C263.455 187.458 262.884 188.325 262.373 189.032C261.863 189.742 261.4 190.282 261.051 190.626C260.704 190.98 260.46 191.101 260.469 191.132Z" fill="#462020"/>
<g opacity="0.639999">
<g opacity="0.639999">
<path opacity="0.639999" d="M524.447 236.164C529.086 225.978 521.399 219.377 521.399 219.377L539.743 219.376L539.752 219.614L543.948 219.93C551.089 220.116 557.114 220.426 561.7 220.721C566.731 221.046 570.07 225.568 568.472 229.886C565.717 237.329 562.061 246.723 560.755 245.742C559.159 244.542 561.441 233.347 562.431 228.854C562.66 227.819 561.912 226.819 560.763 226.622C559.078 226.333 556.672 225.962 554.705 225.818C552.801 229.07 551.7 232.847 554.626 239.646C559.222 250.328 566.512 251.792 560.284 265.189C556.057 274.278 551.968 277.201 551.968 277.201H536.591V277.19L527.722 277.159C502.98 260.249 520.059 245.798 524.447 236.164Z" fill="white"/>
</g>
</g>
<path d="M552.641 220.373C552.641 220.373 554.379 218.947 553.904 217.768C553.429 216.59 527.426 215.61 526.476 216.528C525.525 217.446 527.257 219.538 527.257 219.538L552.641 220.373Z" fill="#DC4B00"/>
<path d="M524.309 245.383C525.007 244.421 526.208 243.848 527.482 243.89C532.908 244.062 547.905 244.559 551.643 244.881C556.233 245.275 560.384 253.117 557.399 262.087C555.017 269.249 549.526 275.533 549.526 275.533H529.512C529.512 275.533 511.683 262.817 524.309 245.383Z" fill="white"/>
<path d="M324.675 116.172L586.873 128.855V11.1699H324.675V116.172Z" fill="white"/>
<path d="M455.774 0H462.234V137.439H455.774V0Z" fill="#E5F2FF"/>
<path d="M781.351 316.332C781.872 318.368 781.402 272.274 808.676 246.229C835.951 220.184 851.809 192.833 837.854 162.727C823.899 132.62 812.186 128.856 812.186 128.856C812.186 128.856 797.792 184.353 781.351 204.844C764.91 225.334 791.795 257.874 791.795 257.874C791.795 257.874 773.654 286.266 781.351 316.332Z" fill="#C4E3FF"/>
<path d="M751.292 140.077C751.292 140.077 790.776 184.667 786.662 218.269C782.55 251.87 781.351 235.116 781.351 235.116C781.351 235.116 694.789 188.176 706.589 123.909C718.389 59.6424 724.147 55.1904 724.147 55.1904C724.147 55.1904 731.419 112.499 751.292 140.077Z" fill="#C4E3FF"/>
<path d="M830.505 292.481H745.123L759.623 397.009H810.645L830.505 292.481Z" fill="#C4E3FF"/>
<g opacity="0.309998">
<g opacity="0.309998">
<path opacity="0.309998" d="M519.788 71.0148L888 243.177L843.019 339.826L519.788 71.0148Z" fill="white"/>
</g>
</g>
<g opacity="0.309998">
<g opacity="0.309998">
<path opacity="0.309998" d="M514.616 92.7351L539.098 100.577L863.548 427.568L688.84 464L514.616 92.7351Z" fill="white"/>
</g>
</g>
<g opacity="0.639999">
<g opacity="0.639999">
<path opacity="0.639999" d="M509.595 248.378C510.511 247.736 502.493 277.16 502.493 277.16L489.665 277.202L485.025 246.228L509.595 248.378Z" fill="white"/>
</g>
</g>
<path d="M505.307 258.095L489.831 256.959L491.565 275.533H501.439L505.307 258.095Z" fill="white"/>
<path d="M155.76 42.9664L185.944 128.856L32.7426 119.557L74.7193 38.9872L155.76 42.9664Z" fill="#C4E3FF"/>
<path d="M111.597 108.488C111.111 113.938 110.856 398.127 110.856 398.127L95.933 397.009L104.332 100.576L111.597 108.488Z" fill="#C4E3FF"/>
<path d="M141.005 401.983C139.038 401.539 62.8155 403.808 62.8155 403.808L75.5999 390.446L141.005 393.733V401.983Z" fill="#C4E3FF"/>
<path d="M444.603 284.453H610.84C613.063 284.453 614.881 282.812 614.881 280.806C614.881 278.802 613.063 277.159 610.84 277.159H444.603C442.379 277.159 440.561 278.802 440.561 280.806C440.561 282.812 442.379 284.453 444.603 284.453Z" fill="#1D0A0A"/>
<path d="M612.545 405.349C612.393 405.006 616.094 405.349 616.094 405.349C609.65 375.835 586.726 284.425 586.726 284.425H574.678L612.545 405.349Z" fill="#1D0A0A"/>
<path d="M440.924 405.349C441.076 405.006 437.374 405.349 437.374 405.349C443.819 375.835 466.741 284.425 466.741 284.425H478.791L440.924 405.349Z" fill="#1D0A0A"/>
</svg>
