<svg width="421" height="373" viewBox="0 0 421 373" fill="none" xmlns="http://www.w3.org/2000/svg">
<path d="M40.2199 338.56H13.6499V338.81H40.2199V338.56Z" fill="#E6E6E6"/>
<path d="M49.8299 333.56H26.9299V333.81H49.8299V333.56Z" fill="#E6E6E6"/>
<path d="M287.41 334.3H225.96V334.55H287.41V334.3Z" fill="#E6E6E6"/>
<path d="M307.91 334.3H293.17V334.55H307.91V334.3Z" fill="#E6E6E6"/>
<path d="M391.72 336.01H343.06V336.26H391.72V336.01Z" fill="#E6E6E6"/>
<path d="M155.17 340H68.54V340.25H155.17V340Z" fill="#E6E6E6"/>
<path d="M407.59 336.01H400.5V336.26H407.59V336.01Z" fill="#E6E6E6"/>
<path d="M199 282.8H5.90996C4.39731 282.797 2.94752 282.195 1.87885 281.124C0.810174 280.054 0.209959 278.603 0.209961 277.09V5.66C0.223129 4.15603 0.829155 2.71798 1.8964 1.65822C2.96365 0.598458 4.40593 0.00257639 5.90996 0H199C200.514 0 201.967 0.601588 203.038 1.67242C204.108 2.74325 204.71 4.19561 204.71 5.71V277.09C204.71 278.604 204.108 280.057 203.038 281.128C201.967 282.198 200.514 282.8 199 282.8V282.8ZM5.90996 0.200001C4.46361 0.20265 3.07741 0.779065 2.05562 1.80273C1.03384 2.82639 0.459959 4.21365 0.459961 5.66V277.09C0.459959 278.536 1.03384 279.924 2.05562 280.947C3.07741 281.971 4.46361 282.547 5.90996 282.55H199C200.447 282.547 201.834 281.971 202.858 280.948C203.881 279.924 204.457 278.537 204.46 277.09V5.66C204.457 4.21273 203.881 2.82549 202.858 1.80212C201.834 0.77874 200.447 0.202644 199 0.200001H5.90996Z" fill="#E6E6E6"/>
<path d="M415.31 282.8H222.21C220.696 282.797 219.246 282.195 218.175 281.125C217.105 280.054 216.503 278.604 216.5 277.09V5.66C216.516 4.15511 217.124 2.71708 218.193 1.65759C219.262 0.598109 220.705 0.00254829 222.21 0H415.31C416.812 0.0052045 418.252 0.602249 419.317 1.66173C420.382 2.72121 420.987 4.15775 421 5.66V277.09C421 278.601 420.401 280.05 419.335 281.121C418.268 282.191 416.821 282.795 415.31 282.8V282.8ZM222.21 0.200001C220.763 0.202644 219.375 0.77874 218.352 1.80212C217.329 2.82549 216.753 4.21273 216.75 5.66V277.09C216.753 278.537 217.329 279.924 218.352 280.948C219.375 281.971 220.763 282.547 222.21 282.55H415.31C416.757 282.547 418.145 281.971 419.168 280.948C420.191 279.924 420.767 278.537 420.77 277.09V5.66C420.767 4.21273 420.191 2.82549 419.168 1.80212C418.145 0.77874 416.757 0.202644 415.31 0.200001H222.21Z" fill="#E6E6E6"/>
<path d="M115.429 155.422C118.212 143.346 110.679 131.299 98.6022 128.516C86.5256 125.732 74.479 133.265 71.6953 145.342C68.9116 157.418 76.4451 169.465 88.5217 172.249C100.598 175.032 112.645 167.499 115.429 155.422Z" fill="#F0F0F0"/>
<path d="M246.58 145.74C243.79 139.74 246.01 135.39 252.85 135.39C257.13 135.39 262.45 137.09 267.63 139.84C268.22 138.27 269.86 137.33 272.51 137.33C277.18 137.33 283.61 140.24 288.65 144.33C290.205 143.289 292.039 142.742 293.91 142.76C298.38 142.58 303.78 144.25 308.48 146.97C308.756 146.709 309.081 146.505 309.436 146.371C309.792 146.237 310.17 146.176 310.55 146.19C312.04 146.24 313.502 146.601 314.844 147.251C316.186 147.9 317.376 148.823 318.34 149.96C318.45 150.09 318.54 150.23 318.64 150.36H243.11C240.72 148.23 243.36 145.85 246.58 145.74Z" fill="#F5F5F5"/>
<path d="M99.4399 192.17L161.32 178V327.4H99.4399V192.17Z" fill="#FAFAFA"/>
<path d="M193.43 178H161.32V327.4H193.43V178Z" fill="#EBEBEB"/>
<path d="M182.94 327.4H235.61L235.61 142.27H182.94L182.94 327.4Z" fill="#FAFAFA"/>
<path d="M262.94 142.27H235.61V327.4H262.94V142.27Z" fill="#EBEBEB"/>
<path d="M190.03 142.27H235.61V128.51H190.03V142.27Z" fill="#FAFAFA"/>
<path d="M190.03 142.27H235.61V139.18H190.03V142.27Z" fill="#EBEBEB"/>
<path d="M255.86 128.51H235.61V142.27H255.86V128.51Z" fill="#EBEBEB"/>
<path d="M197.11 128.51H235.6V114.75H197.11V128.51Z" fill="#FAFAFA"/>
<path d="M197.11 128.51H235.6V125.42H197.11V128.51Z" fill="#EBEBEB"/>
<path d="M248.77 114.76H235.61V128.52H248.77V114.76Z" fill="#EBEBEB"/>
<path d="M224.22 95.54H221.66V114.76H224.22V95.54Z" fill="#EBEBEB"/>
<path d="M254.21 327.4H292.67V166.33H254.21L254.21 327.4Z" fill="#FAFAFA"/>
<path d="M312.64 166.33H292.68V327.4H312.64V166.33Z" fill="#EBEBEB"/>
<path d="M302.66 199L331.82 224V327.4H302.66V199Z" fill="#FAFAFA"/>
<path d="M346.96 224H331.82V327.4H346.96V224Z" fill="#EBEBEB"/>
<path d="M346.96 224H331.82L302.66 199H317.79L346.96 224Z" fill="#EBEBEB"/>
<path d="M401.9 327.4C402.329 324.998 403.35 322.74 404.871 320.832C406.392 318.924 408.364 317.424 410.61 316.47C408.638 319.757 407.743 323.579 408.05 327.4H401.9Z" fill="#EBEBEB"/>
<path d="M148.3 327.4C147.871 324.998 146.85 322.74 145.329 320.832C143.808 318.924 141.836 317.424 139.59 316.47C141.561 319.757 142.457 323.579 142.15 327.4H148.3Z" fill="#EBEBEB"/>
<path d="M20.87 327.4C20.87 327.4 20.38 314.6 15.03 310.88C17.22 316.11 16.75 327.4 16.75 327.4H20.87Z" fill="#EBEBEB"/>
<path d="M18.8599 327.4C18.8599 327.4 19.3599 320.05 24.7099 317.92C22.5099 320.92 22.9899 327.4 22.9899 327.4H18.8599Z" fill="#EBEBEB"/>
<path d="M152.88 327.4C152.88 327.4 152.34 315.28 142.64 310.88C146.98 317.1 146.73 327.4 146.73 327.4H152.88Z" fill="#EBEBEB"/>
<path d="M55.6799 245.81L62.7399 295.61L63.4399 300.59H67.9699L67.2599 295.61L60.1999 245.81H55.6799Z" fill="#E0E0E0"/>
<path d="M249.67 245.81L256.73 295.61L257.43 300.59H261.96L261.25 295.61L254.19 245.81H249.67Z" fill="#E0E0E0"/>
<path d="M84.6699 295.61L85.3799 300.59L89.1899 327.44H93.7199L89.9099 300.59L89.2099 295.61H84.6699Z" fill="#E6E6E6"/>
<path d="M278.67 295.61L279.38 300.59L283.18 327.44H287.7L283.9 300.59L283.2 295.61H278.67Z" fill="#E6E6E6"/>
<path d="M255.81 295.61L255.1 300.59L251.29 327.44H246.76L250.57 300.59L251.27 295.61H255.81Z" fill="#E6E6E6"/>
<path d="M61.81 295.61L61.1 300.59L57.3 327.44H52.78L56.58 300.59L57.29 295.61H61.81Z" fill="#E6E6E6"/>
<path d="M49.1701 252.74H256.5L252.65 238.87H45.3201L49.1701 252.74Z" fill="#F5F5F5"/>
<path d="M53.9 252.74H261.24L257.39 238.87H50.05L53.9 252.74Z" fill="#E6E6E6"/>
<path d="M52.06 270.03H259.39L255.54 256.17H48.2L52.06 270.03Z" fill="#F5F5F5"/>
<path d="M56.7899 270.03H264.12L260.27 256.17H52.9399L56.7899 270.03Z" fill="#E6E6E6"/>
<path d="M54.9398 287.35H262.28L258.43 273.49H51.0898L54.9398 287.35Z" fill="#F5F5F5"/>
<path d="M59.6801 287.35H267.01L263.16 273.49H55.8301L59.6801 287.35Z" fill="#E6E6E6"/>
<path d="M285.88 295.61H79.46V300.59H285.88V295.61Z" fill="#E6E6E6"/>
<path d="M79.4598 295.61H51.0898V300.59H79.4598V295.61Z" fill="#F5F5F5"/>
<path d="M35.4999 92.47C31.6299 84.11 34.7099 78.16 44.1699 78.16C50.0999 78.16 57.4499 80.5 64.6199 84.31C65.4299 82.14 67.7099 80.84 71.3699 80.84C77.8299 80.84 86.7199 84.84 93.6999 90.55C95.8482 89.1086 98.3829 88.3521 100.97 88.38C107.15 88.12 114.63 90.44 121.13 94.2C121.903 93.4756 122.931 93.0871 123.99 93.12C127.55 92.97 132.37 95.31 134.76 98.33C134.91 98.52 135.04 98.7 135.17 98.89H30.6999C27.3999 95.92 31.0499 92.62 35.4999 92.47Z" fill="#F5F5F5"/>
<path d="M309.91 109.71C310.173 109.695 310.437 109.695 310.7 109.71C310.46 106.98 311.87 105.23 314.9 105.23C317.593 105.412 320.199 106.253 322.49 107.68C321.71 102.38 324.22 98.93 329.88 98.93C334.45 98.93 340.24 101.17 345.96 104.83C346.46 102.75 348.14 101.5 350.96 101.5C355.96 101.5 362.96 105.36 368.66 110.8C370.158 109.438 372.116 108.695 374.14 108.72C378.87 108.47 384.75 110.72 389.96 114.3C390.211 113.972 390.537 113.709 390.912 113.535C391.286 113.361 391.697 113.28 392.11 113.3C394.7 113.17 398.26 115.16 400.34 117.82H305.75C303.52 113.7 305.29 110.17 309.91 109.71Z" fill="#F5F5F5"/>
<path d="M150.78 49.23C151.04 49.2148 151.3 49.2148 151.56 49.23C151.32 46.49 152.74 44.75 155.76 44.75C158.456 44.9305 161.066 45.7719 163.36 47.2C162.58 41.89 165.08 38.44 170.74 38.44C175.32 38.44 181.1 40.69 186.82 44.35C187.32 42.27 189 41.02 191.82 41.02C196.82 41.02 203.82 44.87 209.52 50.32C211.021 48.9624 212.976 48.2167 215 48.23C219.73 47.99 225.61 50.23 230.82 53.81C231.071 53.4823 231.398 53.2202 231.772 53.0461C232.147 52.8719 232.558 52.7909 232.97 52.81C235.56 52.67 239.13 54.66 241.2 57.33H146.61C144.39 53.22 146.16 49.69 150.78 49.23Z" fill="#F5F5F5"/>
<path d="M386.77 310.1L369 292.33H355.16L370.52 307.69H366.3V327.4H382.55V310.1H386.77Z" fill="#EBEBEB"/>
<path d="M372.93 310.1L355.16 292.33L337.39 310.1H344.02V327.4H366.3V310.1H372.93Z" fill="#FAFAFA"/>
<path d="M212 372.56C319.082 372.56 405.89 367.492 405.89 361.24C405.89 354.988 319.082 349.92 212 349.92C104.917 349.92 18.1099 354.988 18.1099 361.24C18.1099 367.492 104.917 372.56 212 372.56Z" fill="#F5F5F5"/>
<path d="M363.16 52.72L336.51 26.07H315.75L338.79 49.11H332.45V78.66H356.82V52.72H363.16Z" fill="#6C63FF"/>
<path opacity="0.4" d="M363.16 52.72L336.51 26.07H315.75L338.79 49.11H332.45V78.66H356.82V52.72H363.16Z" fill="white"/>
<path d="M342.4 52.72L315.75 26.07L289.1 52.72H299.05V78.66H332.45V52.72H342.4Z" fill="#6C63FF"/>
<path opacity="0.7" d="M342.4 52.72L315.75 26.07L289.1 52.72H299.05V78.66H332.45V52.72H342.4Z" fill="white"/>
<path d="M380.32 159.1L353.67 132.44H332.91L355.95 155.48H349.61V185.03H373.98V159.1H380.32Z" fill="#6C63FF"/>
<path opacity="0.4" d="M380.32 159.1L353.67 132.44H332.91L355.95 155.48H349.61V185.03H373.98V159.1H380.32Z" fill="white"/>
<path d="M359.56 159.1L332.91 132.44L306.26 159.1H316.2V185.03H349.61V159.1H359.56Z" fill="#6C63FF"/>
<path opacity="0.7" d="M359.56 159.1L332.91 132.44L306.26 159.1H316.2V185.03H349.61V159.1H359.56Z" fill="white"/>
<path d="M260.38 186.81L233.72 160.16H212.97L236.01 183.19H229.67V212.75H254.04V186.81H260.38Z" fill="#6C63FF"/>
<path opacity="0.4" d="M260.38 186.81L233.72 160.16H212.97L236.01 183.19H229.67V212.75H254.04V186.81H260.38Z" fill="white"/>
<path d="M239.62 186.81L212.97 160.16L186.32 186.81H196.26V212.74H229.67V186.81H239.62Z" fill="#6C63FF"/>
<path opacity="0.7" d="M239.62 186.81L212.97 160.16L186.32 186.81H196.26V212.74H229.67V186.81H239.62Z" fill="white"/>
<path d="M258.79 97.26H244.45L242.4 95.22L225.75 64.22L258.79 97.26Z" fill="#2F54C6"/>
<path d="M244.4 127.37H274.61V90.73H244.4V127.37Z" fill="#6C63FF"/>
<path opacity="0.3" d="M244.4 127.37H274.61V90.73H244.4V127.37Z" fill="black"/>
<path d="M256.74 95.22H282.48L249.43 62.17H223.7L256.74 95.22Z" fill="#6C63FF"/>
<path opacity="0.3" d="M256.74 95.22H282.48L249.43 62.17H223.7L256.74 95.22Z" fill="black"/>
<path d="M244.4 85.95V127.37H202.99V85.95L223.7 65.84L223.91 66.05L225.75 67.83L244.4 85.95Z" fill="#6C63FF"/>
<path opacity="0.3" d="M225.75 64.22V78.56L207.04 97.26H202.99V86.98L223.91 66.05L225.75 64.22Z" fill="black"/>
<path d="M256.74 95.22H242.4L223.7 76.51V62.17L256.74 95.22Z" fill="#6C63FF"/>
<path d="M190.65 96.22H204.99L223.7 77.51V63.17L190.65 96.22Z" fill="#6C63FF"/>
<path d="M186 137.38C177.47 144.3 168.67 150.81 159.82 157.21C150.97 163.61 142 169.83 133 176C124 182.17 114.85 188.11 105.66 194C101.09 197 96.45 199.84 91.84 202.76C89.5661 204.327 87.0536 205.516 84.4 206.28C82.9614 206.668 81.4872 206.909 80 207C78.3288 207.138 76.6465 207.047 75 206.73C73.7108 206.468 72.4861 205.954 71.396 205.217C70.3059 204.481 69.3718 203.537 68.6472 202.439C67.9226 201.341 67.4218 200.11 67.1734 198.818C66.9251 197.527 66.9341 196.198 67.2 194.91C67.2 194.76 67.27 194.57 67.31 194.41C67.7587 192.791 68.4319 191.242 69.31 189.81C70.0487 188.534 70.9166 187.338 71.9 186.24C73.7523 184.191 75.9237 182.456 78.33 181.1C82.98 178.24 87.5899 175.33 92.2599 172.53C101.57 166.84 110.97 161.31 120.42 155.85C129.87 150.39 139.42 145.1 149.05 139.94C158.68 134.78 168.39 129.75 178.35 125.11C179.957 124.413 181.761 124.316 183.433 124.838C185.105 125.359 186.535 126.463 187.461 127.949C188.388 129.435 188.75 131.205 188.482 132.936C188.214 134.667 187.333 136.244 186 137.38V137.38Z" fill="#6C63FF"/>
<path d="M186 137.38C177.47 144.3 168.67 150.81 159.82 157.21C150.97 163.61 142 169.83 133 176C124 182.17 114.85 188.11 105.66 194C101.09 197 96.45 199.84 91.84 202.76C89.5661 204.327 87.0536 205.516 84.4 206.28C82.9614 206.668 81.4872 206.909 80 207C78.3288 207.138 76.6465 207.047 75 206.73C73.7108 206.468 72.4861 205.954 71.396 205.217C70.3059 204.481 69.3718 203.537 68.6472 202.439C67.9226 201.341 67.4218 200.11 67.1734 198.818C66.9251 197.527 66.9341 196.198 67.2 194.91C67.2 194.76 67.27 194.57 67.31 194.41C67.7587 192.791 68.4319 191.242 69.31 189.81C70.0487 188.534 70.9166 187.338 71.9 186.24C73.7523 184.191 75.9237 182.456 78.33 181.1C82.98 178.24 87.5899 175.33 92.2599 172.53C101.57 166.84 110.97 161.31 120.42 155.85C129.87 150.39 139.42 145.1 149.05 139.94C158.68 134.78 168.39 129.75 178.35 125.11C179.957 124.413 181.761 124.316 183.433 124.838C185.105 125.359 186.535 126.463 187.461 127.949C188.388 129.435 188.75 131.205 188.482 132.936C188.214 134.667 187.333 136.244 186 137.38V137.38Z" fill="#6C63FF"/>
<path opacity="0.5" d="M186 137.38C177.47 144.3 168.67 150.81 159.82 157.21C150.97 163.61 142 169.83 133 176C124 182.17 114.85 188.11 105.66 194C101.09 197 96.45 199.84 91.84 202.76C89.5661 204.327 87.0536 205.516 84.4 206.28C82.9614 206.668 81.4872 206.909 80 207C78.3288 207.138 76.6465 207.047 75 206.73C73.7108 206.468 72.4861 205.954 71.396 205.217C70.3059 204.481 69.3718 203.537 68.6472 202.439C67.9226 201.341 67.4218 200.11 67.1734 198.818C66.9251 197.527 66.9341 196.198 67.2 194.91C67.2 194.76 67.27 194.57 67.31 194.41C67.7587 192.791 68.4319 191.242 69.31 189.81C70.0487 188.534 70.9166 187.338 71.9 186.24C73.7523 184.191 75.9237 182.456 78.33 181.1C82.98 178.24 87.5899 175.33 92.2599 172.53C101.57 166.84 110.97 161.31 120.42 155.85C129.87 150.39 139.42 145.1 149.05 139.94C158.68 134.78 168.39 129.75 178.35 125.11C179.957 124.413 181.761 124.316 183.433 124.838C185.105 125.359 186.535 126.463 187.461 127.949C188.388 129.435 188.75 131.205 188.482 132.936C188.214 134.667 187.333 136.244 186 137.38V137.38Z" fill="white"/>
<path d="M149.1 352.63L157.26 350.74L153.44 331.71L145.28 333.6L149.1 352.63Z" fill="#EBB376"/>
<path d="M94.0798 125.23C92.9498 129.23 91.8599 133.44 90.8199 137.56C89.7799 141.68 88.8198 145.86 88.0198 150.02C87.5798 152.09 87.1998 154.21 86.8698 156.16C86.5398 158.11 86.3499 160.16 86.2299 162.21C86.1248 164.249 86.1248 166.291 86.2299 168.33C86.2299 169.33 86.3598 170.33 86.4598 171.39C86.5598 172.45 86.7398 173.46 86.8798 174.33L82.8798 175.84C82.355 174.765 81.9039 173.656 81.5298 172.52C81.1386 171.428 80.8048 170.317 80.5298 169.19C79.9826 166.942 79.6082 164.655 79.4099 162.35C79.2247 160.021 79.1913 157.683 79.3098 155.35C79.4698 152.99 79.7498 150.82 80.0598 148.62C80.6898 144.23 81.4998 139.88 82.4598 135.62C83.4198 131.36 84.4598 127.07 85.8098 122.76L94.0798 125.23Z" fill="#EBB376"/>
<path d="M82.3101 126.61L90.7201 133.31L95.7701 137.31C95.7701 137.31 96.3001 135.9 96.9401 133.88C98.1601 129.98 99.7501 123.8 98.6501 120.96C96.9201 116.46 93.6501 112.4 89.5101 113.3C86.0001 114.09 82.3101 126.61 82.3101 126.61Z" fill="#263238"/>
<path d="M93.93 352.69H102.3L101.65 333.29H93.27L93.93 352.69Z" fill="#EBB376"/>
<path d="M153.44 331.72L155.49 341.91L147.25 343.41L145.27 333.61L153.44 331.72Z" fill="#DA9D62"/>
<path d="M93.27 333.29H101.65L101.98 343.29H93.6L93.27 333.29Z" fill="#DA9D62"/>
<path d="M120.57 164.12C120.57 164.12 115.71 221.61 110.67 254.01C106.6 280.18 103.38 341.36 103.38 341.36H92C92 341.36 86.56 282.28 88.63 256.36C93.86 190.87 84.63 179.27 95.58 164.09L120.57 164.12Z" fill="#6C63FF"/>
<path opacity="0.6" d="M120.57 164.12C120.57 164.12 115.71 221.61 110.67 254.01C106.6 280.18 103.38 341.36 103.38 341.36H92C92 341.36 86.56 282.28 88.63 256.36C93.86 190.87 84.63 179.27 95.58 164.09L120.57 164.12Z" fill="black"/>
<path d="M83.43 175.19L78.49 178.55L79.19 181.42C79.19 181.42 89.48 176.08 86.73 173.94L83.43 175.19Z" fill="#EBB376"/>
<path d="M105.83 352.18C105.085 352.161 104.343 352.061 103.62 351.88C103.583 351.869 103.55 351.848 103.524 351.82C103.497 351.792 103.479 351.757 103.47 351.72C103.464 351.681 103.469 351.642 103.485 351.607C103.501 351.571 103.527 351.541 103.56 351.52C103.85 351.33 106.38 349.69 107.36 350.13C107.471 350.178 107.567 350.256 107.637 350.355C107.708 350.453 107.75 350.569 107.76 350.69C107.799 350.879 107.789 351.074 107.731 351.258C107.674 351.442 107.57 351.608 107.43 351.74C106.967 352.074 106.399 352.23 105.83 352.18V352.18ZM104.18 351.59C105.64 351.89 106.74 351.83 107.18 351.45C107.272 351.359 107.339 351.246 107.376 351.122C107.413 350.998 107.417 350.866 107.39 350.74C107.386 350.687 107.369 350.636 107.339 350.592C107.309 350.548 107.268 350.513 107.22 350.49C106.69 350.26 105.22 351 104.18 351.59V351.59Z" fill="#6C63FF"/>
<path d="M103.67 352.88C103.637 352.891 103.602 352.891 103.57 352.88C103.541 352.862 103.516 352.837 103.499 352.807C103.481 352.778 103.471 352.744 103.47 352.71C103.47 352.6 103.47 350.19 104.39 349.38C104.501 349.275 104.634 349.198 104.78 349.153C104.925 349.108 105.079 349.096 105.23 349.12C105.388 349.121 105.54 349.177 105.662 349.277C105.784 349.377 105.868 349.516 105.9 349.67C106.09 350.67 104.56 352.43 103.77 352.88C103.737 352.889 103.703 352.889 103.67 352.88V352.88ZM105.09 349.49C104.928 349.494 104.773 349.554 104.65 349.66C104.125 350.439 103.856 351.361 103.88 352.3C104.67 351.66 105.63 350.3 105.51 349.73C105.51 349.64 105.44 349.52 105.18 349.49H105.09Z" fill="#6C63FF"/>
<path d="M158 349.48C157.963 349.478 157.927 349.466 157.895 349.445C157.864 349.424 157.839 349.396 157.823 349.362C157.807 349.328 157.8 349.291 157.803 349.254C157.806 349.216 157.818 349.181 157.84 349.15C158.11 348.83 160.44 346.09 161.63 346.09H161.71C161.818 346.098 161.923 346.134 162.013 346.196C162.102 346.257 162.174 346.341 162.22 346.44C162.301 346.594 162.343 346.766 162.343 346.94C162.343 347.114 162.301 347.286 162.22 347.44C161.7 348.54 159.35 349.16 157.99 349.44L158 349.48ZM161.62 346.48C160.97 346.48 159.53 347.84 158.54 348.95C160.37 348.52 161.61 347.95 161.9 347.3C161.959 347.198 161.99 347.083 161.99 346.965C161.99 346.847 161.959 346.732 161.9 346.63C161.883 346.59 161.855 346.554 161.82 346.528C161.785 346.502 161.743 346.485 161.7 346.48H161.62Z" fill="#6C63FF"/>
<path d="M158 349.48C157.966 349.475 157.935 349.46 157.91 349.436C157.885 349.413 157.868 349.383 157.86 349.35C157.86 349.26 157.14 347.1 157.78 345.89C157.868 345.713 157.992 345.556 158.143 345.428C158.294 345.301 158.47 345.206 158.66 345.15C159.19 344.99 159.45 345.15 159.56 345.38C160.07 346.2 158.94 348.62 158.19 349.38C158.17 349.412 158.142 349.438 158.109 349.456C158.075 349.474 158.038 349.482 158 349.48V349.48ZM159 345.48C158.924 345.468 158.846 345.468 158.77 345.48C158.63 345.52 158.5 345.589 158.388 345.682C158.276 345.775 158.185 345.89 158.12 346.02C157.83 346.931 157.83 347.909 158.12 348.82C158.83 347.82 159.52 346.03 159.22 345.54C159.187 345.5 159.141 345.472 159.09 345.461C159.04 345.45 158.987 345.457 158.94 345.48H159Z" fill="#6C63FF"/>
<path d="M104.4 93.0699C105.4 98.0699 107.4 108.07 103.95 111.42C103.95 111.42 105.31 116.42 114.55 116.42C124.7 116.42 119.4 111.42 119.4 111.42C113.86 110.1 114 105.99 114.97 102.12L104.4 93.0699Z" fill="#EBB376"/>
<path d="M124.58 82.41C124.498 82.4114 124.417 82.3869 124.35 82.34C124.307 82.3092 124.271 82.2703 124.243 82.2254C124.216 82.1806 124.197 82.1307 124.189 82.0787C124.18 82.0266 124.182 81.9734 124.195 81.9222C124.207 81.8709 124.229 81.8226 124.26 81.78C124.621 81.2661 125.098 80.8444 125.652 80.5491C126.206 80.2537 126.822 80.093 127.45 80.08C127.544 80.095 127.63 80.143 127.691 80.2154C127.753 80.2878 127.787 80.3798 127.787 80.475C127.787 80.5701 127.753 80.6622 127.691 80.7346C127.63 80.807 127.544 80.855 127.45 80.8699C126.951 80.8837 126.462 81.016 126.024 81.2559C125.585 81.4959 125.211 81.8366 124.93 82.25C124.891 82.3046 124.838 82.3481 124.776 82.3761C124.715 82.4042 124.647 82.4158 124.58 82.41V82.41Z" fill="#263238"/>
<path d="M126.8 87.1799C127.339 88.7465 128.093 90.2306 129.04 91.5899C128.684 91.8206 128.283 91.9713 127.863 92.0317C127.444 92.0921 127.016 92.0608 126.61 91.9399L126.8 87.1799Z" fill="#DE5753"/>
<path d="M126.24 86C126.24 86.68 126.55 87.24 126.99 87.25C127.43 87.26 127.81 86.74 127.84 86.06C127.87 85.38 127.53 84.83 127.09 84.81C126.65 84.79 126.27 85.33 126.24 86Z" fill="#263238"/>
<path d="M126.89 84.8399L128.53 84.4399C128.53 84.4399 127.65 85.6699 126.89 84.8399Z" fill="#263238"/>
<path d="M103 351.72H93.59C93.4272 351.714 93.268 351.769 93.1439 351.874C93.0199 351.98 92.9399 352.128 92.92 352.29L91.85 359.73C91.8272 359.918 91.8449 360.11 91.9021 360.291C91.9592 360.472 92.0545 360.638 92.1814 360.779C92.3084 360.921 92.464 361.033 92.638 361.109C92.812 361.185 93.0002 361.223 93.19 361.22C96.47 361.17 98.05 360.97 102.19 360.97C104.74 360.97 108.45 361.24 111.97 361.24C115.49 361.24 115.67 357.76 114.21 357.45C107.65 356.03 106.61 354.09 104.4 352.23C104.006 351.903 103.512 351.723 103 351.72Z" fill="#263238"/>
<path d="M157.1 348.59L148.41 352.2C148.259 352.259 148.135 352.37 148.062 352.514C147.988 352.658 147.97 352.824 148.01 352.98L149.87 360.27C149.923 360.452 150.013 360.62 150.136 360.765C150.259 360.909 150.411 361.025 150.582 361.107C150.753 361.188 150.939 361.232 151.128 361.236C151.318 361.24 151.506 361.204 151.68 361.13C154.68 359.82 156.08 359.04 159.9 357.45C162.25 356.45 167.22 354.7 170.47 353.35C173.72 352 172.55 348.72 171.08 348.99C164.48 350.21 161.34 349.4 158.59 348.53C158.102 348.374 157.574 348.395 157.1 348.59V348.59Z" fill="#263238"/>
<path d="M138.18 121.79C139.81 125.63 141.57 129.56 143.35 133.38C144.25 135.3 145.187 137.187 146.16 139.04C147.16 140.9 148.16 142.72 149.16 144.46C149.69 145.32 150.22 146.18 150.77 146.97L151.59 148.11C151.758 148.348 151.949 148.569 152.16 148.77C153.251 149.717 154.611 150.298 156.05 150.43C159.46 150.92 163.74 150.23 167.57 149.2L169.35 153.05C168.338 153.658 167.289 154.202 166.21 154.68C165.148 155.174 164.056 155.602 162.94 155.96C160.588 156.761 158.124 157.182 155.64 157.21C154.255 157.222 152.875 157.041 151.54 156.67C150.058 156.262 148.665 155.584 147.43 154.67C146.798 154.189 146.212 153.65 145.68 153.06C145.23 152.55 144.9 152.12 144.5 151.64C143.75 150.7 143.08 149.75 142.41 148.8C139.918 145.05 137.673 141.142 135.69 137.1C133.69 133.1 131.89 129.1 130.23 124.96L138.18 121.79Z" fill="#EBB376"/>
<path d="M166.71 153.52L175.85 152.08L173.42 146.9C173.42 146.9 166.34 148.13 164.98 151.33L166.71 153.52Z" fill="#EBB376"/>
<path d="M175.84 148.04L174.84 145.83L173.42 146.9L175.84 152.08V148.04Z" fill="#EBB376"/>
<path d="M103.64 82.79C103.82 91.1 103.72 94.62 107.74 99.04C113.74 105.69 123.96 103.65 126.26 95.45C128.33 88.07 127.68 75.72 119.7 72.1C117.943 71.2943 116.009 70.9512 114.082 71.1031C112.155 71.2551 110.299 71.897 108.69 72.9681C107.081 74.0391 105.772 75.5037 104.889 77.2227C104.005 78.9417 103.575 80.8581 103.64 82.79V82.79Z" fill="#EBB376"/>
<path d="M96.9399 67.78C105.48 61.59 115.02 65.1 120.24 69.38C125.7 73.86 124.83 82.47 121.49 86.03C121.836 86.5565 122.066 87.1513 122.162 87.7741C122.259 88.3969 122.221 89.0332 122.05 89.64C122.471 92.3041 121.886 95.0297 120.406 97.2853C118.927 99.5408 116.661 101.165 114.05 101.84L113.58 101.96C102.91 104.5 90.5799 97.28 88.7199 86.48C87.5899 79.89 89.3899 73.24 96.9399 67.78Z" fill="#263238"/>
<path d="M119.58 86.64C119.717 88.2066 120.387 89.6788 121.48 90.81C122.96 92.34 124.48 91.4599 124.75 89.6499C124.98 88.0199 124.49 85.26 122.69 84.39C120.89 83.52 119.45 84.79 119.58 86.64Z" fill="#EBB376"/>
<path opacity="0.3" d="M109 191C108.05 208.18 112.19 221.15 114.08 228.74C115.42 217.52 116.65 205.81 117.68 195.48C114.15 183.78 109.69 178.07 109 191Z" fill="black"/>
<path d="M104.95 341.58H90.3999L89.6299 336.48L105.03 335.96L104.95 341.58Z" fill="#6C63FF"/>
<path opacity="0.3" d="M90.72 133.31L95.77 137.31C95.77 137.31 96.3 135.9 96.94 133.88L93.94 119.03L90.72 133.31Z" fill="black"/>
<path d="M101.7 69.1699C104.31 66.2799 113.18 61.8699 120.79 65.3299C122.961 66.3187 124.8 67.9125 126.088 69.9203C127.375 71.9281 128.057 74.2647 128.05 76.6499L121.19 81.2499L101.7 69.1699Z" fill="#263238"/>
<path d="M94.7001 76.7599C98.4701 73.6699 102.7 62.4699 94.7001 66.3699C86.7001 70.2699 84.2701 85.3099 94.7001 76.7599Z" fill="#6C63FF"/>
<path d="M95.5499 69.58C97.1799 64.82 86.4299 55.35 79.1799 64.35C71.9299 73.35 90.8599 83.28 95.5499 69.58Z" fill="#263238"/>
<path d="M112.37 76.22C106.12 73.56 103.01 63.48 113.74 63.77C124.47 64.06 124.16 81.25 112.37 76.22Z" fill="#6C63FF"/>
<path d="M110.35 71C106.56 66.27 110.75 54.11 121.62 58C132.49 61.89 119.05 81.81 110.35 71Z" fill="#263238"/>
<path d="M129.56 164.12C129.56 164.12 139 228.62 142.32 254C145.77 280.35 155.85 339.43 155.85 339.43L144.65 341.14C144.65 341.14 126.95 284.79 122.02 259.14C116.64 231.19 106.02 164.14 106.02 164.14L129.56 164.12Z" fill="#6C63FF"/>
<path opacity="0.6" d="M129.56 164.12C129.56 164.12 139 228.62 142.32 254C145.77 280.35 155.85 339.43 155.85 339.43L144.65 341.14C144.65 341.14 126.95 284.79 122.02 259.14C116.64 231.19 106.02 164.14 106.02 164.14L129.56 164.12Z" fill="black"/>
<path d="M133.56 113.57C137.72 114.57 142.85 126.01 142.85 126.01L132.94 138.71C132.94 138.71 122.7 124.22 124.07 119.8C125.49 115.19 128.51 112.34 133.56 113.57Z" fill="#263238"/>
<path d="M120 113.05C121.37 113.25 120.1 110.12 119.53 109.79C118.22 109.01 101.53 107.44 101.72 109.2C101.821 110.25 102.272 111.236 103 112C103.75 112.5 108 111.12 120 113.05Z" fill="#6C63FF"/>
<path opacity="0.6" d="M120 113.05C121.37 113.25 120.1 110.12 119.53 109.79C118.22 109.01 101.53 107.44 101.72 109.2C101.821 110.25 102.272 111.236 103 112C103.75 112.5 108 111.12 120 113.05Z" fill="white"/>
<path d="M133.56 113.57C133.56 113.57 137.56 114.97 129.56 164.12H95.5601C96.1301 150.28 96.1501 141.74 89.5601 113.32C94.321 112.337 99.147 111.702 104 111.42C109.143 111.05 114.307 111.05 119.45 111.42C126 112 133.56 113.57 133.56 113.57Z" fill="#263238"/>
<path d="M95 162.13L93.47 165.13C93.35 165.37 93.63 165.61 94.02 165.61H129.7C130 165.61 130.26 165.46 130.28 165.26L130.58 162.26C130.58 162.05 130.34 161.87 130 161.87H95.58C95.4686 161.855 95.3553 161.871 95.2527 161.917C95.1502 161.963 95.0626 162.037 95 162.13V162.13Z" fill="#6C63FF"/>
<path opacity="0.6" d="M95 162.13L93.47 165.13C93.35 165.37 93.63 165.61 94.02 165.61H129.7C130 165.61 130.26 165.46 130.28 165.26L130.58 162.26C130.58 162.05 130.34 161.87 130 161.87H95.58C95.4686 161.855 95.3553 161.871 95.2527 161.917C95.1502 161.963 95.0626 162.037 95 162.13V162.13Z" fill="white"/>
<path d="M99.6599 166H98.7299C98.5499 166 98.4099 165.9 98.4199 165.79L98.8599 161.79C98.8599 161.67 99.0299 161.58 99.2099 161.58H100.14C100.32 161.58 100.46 161.67 100.45 161.79L100.01 165.79C99.9999 165.88 99.8399 166 99.6599 166Z" fill="#6C63FF"/>
<path d="M122 166H121.08C120.89 166 120.75 165.9 120.77 165.79L121.2 161.79C121.2 161.67 121.37 161.58 121.56 161.58H122.48C122.66 161.58 122.8 161.67 122.79 161.79L122.36 165.79C122.36 165.88 122.2 166 122 166Z" fill="#6C63FF"/>
<path opacity="0.6" d="M99.6599 166H98.7299C98.5499 166 98.4099 165.9 98.4199 165.79L98.8599 161.79C98.8599 161.67 99.0299 161.58 99.2099 161.58H100.14C100.32 161.58 100.46 161.67 100.45 161.79L100.01 165.79C99.9999 165.88 99.8399 166 99.6599 166Z" fill="black"/>
<path opacity="0.6" d="M122 166H121.08C120.89 166 120.75 165.9 120.77 165.79L121.2 161.79C121.2 161.67 121.37 161.58 121.56 161.58H122.48C122.66 161.58 122.8 161.67 122.79 161.79L122.36 165.79C122.36 165.88 122.2 166 122 166Z" fill="black"/>
<path d="M157.5 339.43L143.16 341.87L141.53 336.46L156.88 333.83L157.5 339.43Z" fill="#6C63FF"/>
<path d="M300.41 60.26C292.782 48.0461 281.704 38.3682 268.577 32.4501C255.449 26.532 240.862 24.6394 226.658 27.0117C212.455 29.384 199.274 35.9146 188.783 45.7778C178.291 55.6409 170.959 68.3936 167.715 82.4234C164.471 96.4531 165.46 111.13 170.557 124.598C175.653 138.065 184.629 149.719 196.349 158.086C208.069 166.453 222.007 171.156 236.4 171.602C250.793 172.048 264.995 168.215 277.21 160.59C285.322 155.526 292.356 148.914 297.912 141.131C303.469 133.348 307.437 124.547 309.591 115.23C311.746 105.914 312.044 96.2638 310.468 86.8319C308.893 77.4 305.475 68.3708 300.41 60.26V60.26ZM189.92 129.26C183.903 119.621 180.88 108.415 181.232 97.0583C181.584 85.7014 185.296 74.704 191.898 65.4566C198.5 56.2092 207.696 49.1272 218.323 45.1062C228.95 41.0851 240.531 40.3055 251.601 42.8661C262.671 45.4266 272.733 51.2123 280.515 59.4914C288.297 67.7705 293.449 78.1713 295.32 89.3786C297.191 100.586 295.697 112.096 291.026 122.454C286.355 132.812 278.718 141.552 269.08 147.57C262.679 151.565 255.555 154.261 248.112 155.502C240.67 156.744 233.056 156.507 225.705 154.806C218.355 153.105 211.411 149.972 205.271 145.587C199.131 141.203 193.914 135.651 189.92 129.25V129.26Z" fill="#6C63FF"/>
<path d="M300.41 60.26C292.782 48.0461 281.704 38.3682 268.577 32.4501C255.449 26.532 240.862 24.6394 226.658 27.0117C212.455 29.384 199.274 35.9146 188.783 45.7778C178.291 55.6409 170.959 68.3936 167.715 82.4234C164.471 96.4531 165.46 111.13 170.557 124.598C175.653 138.065 184.629 149.719 196.349 158.086C208.069 166.453 222.007 171.156 236.4 171.602C250.793 172.048 264.995 168.215 277.21 160.59C285.322 155.526 292.356 148.914 297.912 141.131C303.469 133.348 307.437 124.547 309.591 115.23C311.746 105.914 312.044 96.2638 310.468 86.8319C308.893 77.4 305.475 68.3708 300.41 60.26V60.26ZM189.92 129.26C183.903 119.621 180.88 108.415 181.232 97.0583C181.584 85.7014 185.296 74.704 191.898 65.4566C198.5 56.2092 207.696 49.1272 218.323 45.1062C228.95 41.0851 240.531 40.3055 251.601 42.8661C262.671 45.4266 272.733 51.2123 280.515 59.4914C288.297 67.7705 293.449 78.1713 295.32 89.3786C297.191 100.586 295.697 112.096 291.026 122.454C286.355 132.812 278.718 141.552 269.08 147.57C262.679 151.565 255.555 154.261 248.112 155.502C240.67 156.744 233.056 156.507 225.705 154.806C218.355 153.105 211.411 149.972 205.271 145.587C199.131 141.203 193.914 135.651 189.92 129.25V129.26Z" fill="#6C63FF"/>
<path opacity="0.5" d="M300.41 60.26C292.782 48.0461 281.704 38.3682 268.577 32.4501C255.449 26.532 240.862 24.6394 226.658 27.0117C212.455 29.384 199.274 35.9146 188.783 45.7778C178.291 55.6409 170.959 68.3936 167.715 82.4234C164.471 96.4531 165.46 111.13 170.557 124.598C175.653 138.065 184.629 149.719 196.349 158.086C208.069 166.453 222.007 171.156 236.4 171.602C250.793 172.048 264.995 168.215 277.21 160.59C285.322 155.526 292.356 148.914 297.912 141.131C303.469 133.348 307.437 124.547 309.591 115.23C311.746 105.914 312.044 96.2638 310.468 86.8319C308.893 77.4 305.475 68.3708 300.41 60.26V60.26ZM189.92 129.26C183.903 119.621 180.88 108.415 181.232 97.0583C181.584 85.7014 185.296 74.704 191.898 65.4566C198.5 56.2092 207.696 49.1272 218.323 45.1062C228.95 41.0851 240.531 40.3055 251.601 42.8661C262.671 45.4266 272.733 51.2123 280.515 59.4914C288.297 67.7705 293.449 78.1713 295.32 89.3786C297.191 100.586 295.697 112.096 291.026 122.454C286.355 132.812 278.718 141.552 269.08 147.57C262.679 151.565 255.555 154.261 248.112 155.502C240.67 156.744 233.056 156.507 225.705 154.806C218.355 153.105 211.411 149.972 205.271 145.587C199.131 141.203 193.914 135.651 189.92 129.25V129.26Z" fill="white"/>
<path opacity="0.2" d="M292.2 65.39C298.81 75.9815 302.131 88.2952 301.743 100.774C301.356 113.253 297.276 125.337 290.022 135.497C282.767 145.658 272.662 153.44 260.985 157.858C249.308 162.276 236.583 163.133 224.419 160.32C212.256 157.507 201.199 151.15 192.647 142.054C184.096 132.957 178.434 121.53 176.377 109.215C174.319 96.9011 175.96 84.2534 181.09 72.8713C186.221 61.4893 194.611 51.884 205.2 45.2699C212.233 40.877 220.063 37.9127 228.242 36.5463C236.421 35.18 244.789 35.4384 252.868 37.3068C260.947 39.1753 268.579 42.617 275.328 47.4356C282.076 52.2542 287.81 58.3551 292.2 65.39Z" fill="#FAFAFA"/>
<path opacity="0.1" d="M301.17 89.8899L203.17 151.07C195.178 145.647 188.538 138.463 183.76 130.07L290.76 63.2599C296.22 71.2242 299.781 80.3342 301.17 89.8899Z" fill="#E6E6E6"/>
</svg>
