<svg width="232" height="313" viewBox="0 0 232 313" fill="none" xmlns="http://www.w3.org/2000/svg">
<g opacity="0.3">
<path d="M147.025 244.04H19.4548C17.4034 244.011 15.4388 243.207 13.9551 241.79C12.4714 240.373 11.5782 238.448 11.4548 236.4L0.0148042 14.85C-0.0486197 13.8645 0.0922035 12.8766 0.428455 11.9481C0.764706 11.0196 1.28913 10.1705 1.96886 9.45421C2.64859 8.73786 3.46896 8.16964 4.37856 7.78518C5.28816 7.40073 6.26736 7.2083 7.2548 7.21998H134.825C136.875 7.24656 138.84 8.04801 140.324 9.46333C141.808 10.8787 142.701 12.803 142.825 14.85L154.245 236.4C154.308 237.384 154.168 238.371 153.833 239.299C153.498 240.226 152.975 241.075 152.298 241.792C151.621 242.509 150.803 243.078 149.896 243.465C148.988 243.852 148.011 244.048 147.025 244.04Z" fill="#6C63FF"/>
<path opacity="0.8" d="M147.025 244.04H19.4548C17.4034 244.011 15.4388 243.207 13.9551 241.79C12.4714 240.373 11.5782 238.448 11.4548 236.4L0.0148042 14.85C-0.0486197 13.8645 0.0922035 12.8766 0.428455 11.9481C0.764706 11.0196 1.28913 10.1705 1.96886 9.45421C2.64859 8.73786 3.46896 8.16964 4.37856 7.78518C5.28816 7.40073 6.26736 7.2083 7.2548 7.21998H134.825C136.875 7.24656 138.84 8.04801 140.324 9.46333C141.808 10.8787 142.701 12.803 142.825 14.85L154.245 236.4C154.308 237.384 154.168 238.371 153.833 239.299C153.498 240.226 152.975 241.075 152.298 241.792C151.621 242.509 150.803 243.078 149.896 243.465C148.988 243.852 148.011 244.048 147.025 244.04Z" fill="white"/>
<path d="M122.235 0H108.125V1H122.235V0Z" fill="#6C63FF"/>
<path d="M103.235 0H98.0648V1H103.235V0Z" fill="#6C63FF"/>
<path d="M152.515 229.98H30.5148C28.5502 229.961 26.6657 229.198 25.2407 227.846C23.8157 226.493 22.9561 224.651 22.8348 222.69L11.9148 10.79C11.8541 9.84691 11.9889 8.90143 12.3108 8.01288C12.6327 7.12433 13.1348 6.31188 13.7854 5.62648C14.4361 4.94107 15.2214 4.3975 16.092 4.02986C16.9626 3.66222 17.8998 3.47842 18.8448 3.49002H140.845C142.809 3.51171 144.693 4.2768 146.116 5.63125C147.539 6.98571 148.396 8.82898 148.515 10.79L159.435 222.69C159.495 223.632 159.361 224.576 159.04 225.463C158.718 226.351 158.217 227.162 157.567 227.847C156.917 228.531 156.133 229.074 155.264 229.441C154.394 229.808 153.458 229.992 152.515 229.98Z" fill="#6C63FF"/>
<path d="M152.515 225.11H30.5148C29.7993 225.085 29.1178 224.799 28.5998 224.305C28.0817 223.811 27.7632 223.143 27.7048 222.43L16.7748 10.54C16.75 10.2581 16.7854 9.97422 16.8785 9.70703C16.9715 9.43984 17.1203 9.19544 17.3148 8.98998C17.5099 8.78498 17.7462 8.62372 18.0082 8.51685C18.2703 8.40997 18.552 8.35991 18.8348 8.36998H140.835C141.549 8.39696 142.228 8.68458 142.744 9.17844C143.26 9.67229 143.577 10.3381 143.635 11.05L154.615 222.94C154.639 223.221 154.603 223.504 154.51 223.77C154.418 224.036 154.27 224.279 154.076 224.484C153.882 224.689 153.648 224.851 153.387 224.959C153.127 225.066 152.847 225.118 152.565 225.11H152.515ZM18.8348 8.61998C18.5862 8.61194 18.3386 8.6558 18.1079 8.74878C17.8772 8.84176 17.6684 8.9818 17.4948 9.15997C17.3278 9.34466 17.2001 9.5613 17.1193 9.79678C17.0385 10.0323 17.0064 10.2817 17.0248 10.53L27.9448 222.42C28.0004 223.069 28.2914 223.675 28.7629 224.125C29.2344 224.574 29.8539 224.836 30.5048 224.86H152.505C152.752 224.87 152.999 224.827 153.228 224.734C153.457 224.64 153.664 224.499 153.835 224.32C154.006 224.138 154.136 223.922 154.217 223.686C154.298 223.449 154.328 223.199 154.305 222.95L143.395 11.06C143.341 10.4119 143.053 9.80574 142.583 9.35616C142.113 8.90657 141.495 8.64468 140.845 8.61998H18.8348Z" fill="white"/>
<path opacity="0.3" d="M109.842 85.5958C123.718 71.3565 122.814 47.9708 107.823 33.3623C92.8325 18.7538 69.4312 18.4545 55.5551 32.6938C41.679 46.933 42.5826 70.3188 57.5734 84.9273C72.5642 99.5357 95.9654 99.835 109.842 85.5958Z" fill="white"/>
<path d="M112.615 59.15C112.895 64.0642 111.906 68.9678 109.745 73.39C107.405 78.1332 103.773 82.1188 99.2664 84.8876C94.7602 87.6564 89.5634 89.0959 84.2748 89.04C78.7941 88.9906 73.4195 87.5233 68.674 84.7808C63.9286 82.0384 59.9739 78.1141 57.1948 73.39C54.6048 69.0699 53.1145 64.1803 52.8548 59.15C52.6082 55.2922 53.1606 51.4251 54.4772 47.7907C55.7939 44.1562 57.8465 40.8326 60.5067 38.0278C63.1669 35.2231 66.3773 32.9976 69.9371 31.4907C73.4969 29.9837 77.3294 29.2277 81.1948 29.27C89.2398 29.3538 96.9543 32.483 102.784 38.0274C108.614 43.5717 112.127 51.1193 112.615 59.15Z" fill="white"/>
<path d="M109.715 73.39C107.375 78.1332 103.743 82.1188 99.2364 84.8876C94.7302 87.6565 89.5334 89.0959 84.2448 89.04C78.7641 88.9907 73.3895 87.5233 68.644 84.7809C63.8986 82.0384 59.9439 78.1141 57.1648 73.39C64.764 68.1419 73.7896 65.3497 83.0248 65.39C92.507 65.4257 101.776 68.2041 109.715 73.39Z" fill="#6C63FF"/>
<path d="M91.9621 58.4551C96.9614 53.325 96.6341 44.898 91.231 39.6328C85.828 34.3675 77.3953 34.258 72.3961 39.3881C67.3968 44.5182 67.7241 52.9452 73.1271 58.2105C78.5301 63.4757 86.9628 63.5852 91.9621 58.4551Z" fill="#6C63FF"/>
<path d="M135.025 147.54H39.4948C38.6627 147.531 37.8648 147.208 37.2618 146.635C36.6587 146.061 36.2953 145.281 36.2448 144.45L35.5248 130.45C35.5 130.052 35.5576 129.653 35.6941 129.278C35.8306 128.903 36.043 128.56 36.3181 128.271C36.5931 127.982 36.9248 127.753 37.2925 127.598C37.6601 127.443 38.0558 127.365 38.4548 127.37H133.985C134.815 127.378 135.612 127.701 136.215 128.272C136.817 128.843 137.182 129.621 137.235 130.45L137.955 144.45C137.981 144.849 137.924 145.249 137.789 145.625C137.653 146.001 137.441 146.345 137.165 146.636C136.89 146.926 136.558 147.156 136.19 147.312C135.821 147.467 135.425 147.545 135.025 147.54Z" fill="white"/>
<path opacity="0.3" d="M105.775 119.64H65.8748C65.0394 119.634 64.2376 119.31 63.6322 118.734C63.0268 118.159 62.663 117.374 62.6148 116.54L62.4648 113.54C62.4386 113.141 62.4952 112.741 62.631 112.365C62.7669 111.989 62.979 111.645 63.2542 111.354C63.5294 111.064 63.8616 110.834 64.2299 110.678C64.5983 110.523 64.9949 110.445 65.3948 110.45H105.285C106.117 110.459 106.915 110.782 107.518 111.355C108.121 111.929 108.484 112.709 108.535 113.54L108.695 116.54C108.719 116.938 108.662 117.337 108.526 117.713C108.391 118.088 108.18 118.432 107.906 118.722C107.632 119.013 107.302 119.244 106.935 119.402C106.569 119.56 106.174 119.641 105.775 119.64Z" fill="black"/>
<path opacity="0.3" d="M120.615 214.85H60.8448C59.4295 214.833 58.0731 214.281 57.0475 213.305C56.0219 212.33 55.403 211.003 55.3148 209.59L54.9648 202.69C54.9295 202.012 55.0327 201.334 55.2681 200.697C55.5035 200.06 55.8662 199.477 56.3341 198.985C56.8019 198.493 57.3651 198.101 57.9894 197.834C58.6136 197.567 59.2857 197.429 59.9648 197.43H119.715C121.13 197.447 122.487 197.999 123.512 198.975C124.538 199.95 125.157 201.277 125.245 202.69L125.595 209.59C125.63 210.267 125.527 210.943 125.293 211.579C125.059 212.214 124.698 212.796 124.232 213.288C123.767 213.78 123.206 214.172 122.584 214.44C121.962 214.709 121.292 214.848 120.615 214.85Z" fill="black"/>
<path d="M136.775 181.4H41.2348C40.4034 181.389 39.6069 181.065 39.0043 180.492C38.4017 179.919 38.0376 179.14 37.9848 178.31L37.2648 164.31C37.2401 163.911 37.2977 163.512 37.4341 163.136C37.5705 162.761 37.7827 162.417 38.0576 162.128C38.3325 161.838 38.6641 161.608 39.0317 161.451C39.3994 161.295 39.7953 161.216 40.1948 161.22H135.725C136.557 161.229 137.355 161.552 137.958 162.125C138.561 162.699 138.924 163.479 138.975 164.31L139.705 178.31C139.728 178.708 139.669 179.107 139.532 179.482C139.396 179.857 139.183 180.2 138.909 180.489C138.634 180.779 138.303 181.009 137.936 181.166C137.569 181.322 137.174 181.402 136.775 181.4Z" fill="white"/>
<path d="M51.6148 137.45C51.6423 137.892 51.5784 138.335 51.4271 138.751C51.2757 139.167 51.0402 139.547 50.7352 139.868C50.4302 140.189 50.0623 140.444 49.6544 140.616C49.2466 140.789 48.8075 140.875 48.3648 140.87C47.445 140.859 46.5635 140.5 45.8975 139.866C45.2314 139.231 44.8303 138.368 44.7748 137.45C44.7458 137.009 44.8084 136.566 44.9586 136.15C45.1088 135.734 45.3434 135.353 45.6476 135.032C45.9518 134.711 46.3192 134.456 46.7265 134.284C47.1339 134.111 47.5725 134.025 48.0148 134.03C48.9356 134.041 49.8183 134.399 50.486 135.033C51.1536 135.668 51.5568 136.531 51.6148 137.45Z" fill="#263238"/>
<path d="M62.1448 137.45C62.1738 137.891 62.1112 138.334 61.961 138.75C61.8108 139.166 61.5762 139.547 61.272 139.868C60.9678 140.189 60.6004 140.444 60.1931 140.616C59.7857 140.789 59.3471 140.875 58.9048 140.87C57.9843 140.861 57.1014 140.503 56.4349 139.868C55.7684 139.233 55.368 138.369 55.3148 137.45C55.2858 137.009 55.3484 136.566 55.4986 136.15C55.6488 135.734 55.8834 135.353 56.1876 135.032C56.4918 134.711 56.8591 134.456 57.2665 134.284C57.6738 134.111 58.1125 134.025 58.5548 134.03C59.4753 134.039 60.3582 134.397 61.0247 135.032C61.6912 135.667 62.0916 136.531 62.1448 137.45Z" fill="#263238"/>
<path d="M72.6148 137.45C72.6438 137.891 72.5812 138.334 72.431 138.75C72.2808 139.166 72.0462 139.547 71.742 139.868C71.4378 140.189 71.0705 140.444 70.6631 140.616C70.2557 140.789 69.8171 140.875 69.3748 140.87C68.454 140.859 67.5713 140.501 66.9036 139.866C66.236 139.232 65.8328 138.369 65.7748 137.45C65.7473 137.008 65.8112 136.565 65.9625 136.149C66.1139 135.733 66.3494 135.353 66.6544 135.032C66.9594 134.711 67.3273 134.456 67.7352 134.284C68.143 134.111 68.5821 134.025 69.0248 134.03C69.9446 134.041 70.8261 134.4 71.4922 135.034C72.1582 135.669 72.5593 136.532 72.6148 137.45Z" fill="#263238"/>
<path d="M83.1648 137.45C83.1923 137.891 83.1286 138.333 82.9779 138.748C82.8272 139.164 82.5925 139.544 82.2886 139.865C81.9847 140.185 81.6179 140.44 81.2113 140.613C80.8046 140.786 80.3667 140.874 79.9248 140.87C79.004 140.859 78.1213 140.501 77.4536 139.867C76.786 139.232 76.3828 138.369 76.3248 137.45C76.2973 137.009 76.361 136.567 76.5117 136.152C76.6624 135.736 76.8971 135.356 77.201 135.035C77.5049 134.715 77.8716 134.46 78.2783 134.287C78.685 134.114 79.1229 134.026 79.5648 134.03C80.4856 134.041 81.3683 134.399 82.036 135.034C82.7036 135.668 83.1068 136.531 83.1648 137.45Z" fill="#263238"/>
<path d="M53.3848 171.29C53.4138 171.731 53.3512 172.174 53.201 172.59C53.0508 173.006 52.8162 173.387 52.512 173.708C52.2078 174.029 51.8405 174.284 51.4331 174.456C51.0258 174.629 50.5871 174.715 50.1448 174.71C49.224 174.699 48.3413 174.341 47.6736 173.706C47.006 173.072 46.6028 172.209 46.5448 171.29C46.5173 170.848 46.5812 170.405 46.7325 169.989C46.8839 169.573 47.1194 169.193 47.4244 168.872C47.7294 168.551 48.0974 168.296 48.5052 168.124C48.9131 167.951 49.3521 167.865 49.7948 167.87C50.7146 167.881 51.5961 168.24 52.2622 168.874C52.9282 169.509 53.3293 170.372 53.3848 171.29Z" fill="#263238"/>
<path d="M63.8948 171.29C63.9223 171.731 63.8586 172.173 63.7079 172.588C63.5571 173.004 63.3225 173.384 63.0186 173.705C62.7147 174.025 62.348 174.28 61.9413 174.453C61.5346 174.626 61.0967 174.714 60.6548 174.71C59.734 174.699 58.8513 174.341 58.1836 173.706C57.516 173.072 57.1128 172.209 57.0548 171.29C57.0258 170.849 57.0884 170.406 57.2386 169.99C57.3888 169.574 57.6234 169.193 57.9276 168.872C58.2318 168.551 58.5991 168.296 59.0065 168.124C59.4139 167.951 59.8525 167.865 60.2948 167.87C61.2156 167.881 62.0983 168.239 62.766 168.873C63.4336 169.508 63.8368 170.371 63.8948 171.29Z" fill="#263238"/>
<path d="M74.4048 171.29C74.4323 171.732 74.3684 172.175 74.2171 172.591C74.0657 173.007 73.8302 173.387 73.5252 173.708C73.2202 174.029 72.8522 174.284 72.4444 174.456C72.0365 174.629 71.5975 174.715 71.1548 174.71C70.2343 174.701 69.3514 174.343 68.6849 173.708C68.0184 173.073 67.618 172.209 67.5648 171.29C67.5358 170.849 67.5984 170.406 67.7486 169.99C67.8988 169.574 68.1334 169.193 68.4376 168.872C68.7418 168.551 69.1091 168.296 69.5165 168.124C69.9239 167.951 70.3625 167.865 70.8048 167.87C71.7256 167.881 72.6083 168.239 73.276 168.873C73.9436 169.508 74.3468 170.371 74.4048 171.29Z" fill="#263238"/>
<path d="M84.9048 171.29C84.9338 171.731 84.8712 172.174 84.721 172.59C84.5708 173.006 84.3362 173.387 84.032 173.708C83.7278 174.029 83.3604 174.284 82.9531 174.456C82.5457 174.629 82.1071 174.715 81.6648 174.71C80.744 174.699 79.8613 174.341 79.1936 173.706C78.526 173.072 78.1228 172.209 78.0648 171.29C78.0373 170.848 78.1012 170.405 78.2525 169.989C78.4039 169.573 78.6394 169.193 78.9444 168.872C79.2494 168.551 79.6174 168.296 80.0252 168.124C80.4331 167.951 80.8721 167.865 81.3148 167.87C82.2353 167.879 83.1182 168.237 83.7847 168.872C84.4512 169.506 84.8516 170.371 84.9048 171.29Z" fill="#263238"/>
<path d="M95.4148 171.29C95.4438 171.731 95.3812 172.174 95.231 172.59C95.0808 173.006 94.8462 173.387 94.542 173.708C94.2378 174.029 93.8705 174.284 93.4631 174.456C93.0557 174.629 92.6171 174.715 92.1748 174.71C91.254 174.699 90.3713 174.341 89.7036 173.706C89.036 173.072 88.6328 172.209 88.5748 171.29C88.5473 170.849 88.611 170.407 88.7617 169.992C88.9124 169.576 89.1471 169.196 89.451 168.875C89.7549 168.555 90.1216 168.3 90.5283 168.127C90.935 167.954 91.3729 167.866 91.8148 167.87C92.7356 167.881 93.6183 168.239 94.286 168.873C94.9536 169.508 95.3568 170.371 95.4148 171.29Z" fill="#263238"/>
<path d="M105.925 171.29C105.952 171.732 105.888 172.175 105.737 172.591C105.586 173.007 105.35 173.387 105.045 173.708C104.74 174.029 104.372 174.284 103.964 174.456C103.557 174.629 103.118 174.715 102.675 174.71C101.755 174.699 100.873 174.34 100.207 173.706C99.5414 173.071 99.1403 172.208 99.0848 171.29C99.0558 170.849 99.1184 170.406 99.2686 169.99C99.4188 169.574 99.6534 169.193 99.9576 168.872C100.262 168.551 100.629 168.296 101.037 168.124C101.444 167.951 101.882 167.865 102.325 167.87C103.246 167.881 104.128 168.239 104.796 168.873C105.464 169.508 105.867 170.371 105.925 171.29Z" fill="#263238"/>
<path d="M219.88 73.0253C220.13 73.4053 220.26 73.6053 220.42 73.8753L220.87 74.6153C221.16 75.1153 221.42 75.6153 221.67 76.1053C222.17 77.1053 222.67 78.1053 223.07 79.1053C223.908 81.0914 224.63 83.1249 225.23 85.1953C226.441 89.2852 227.238 93.4863 227.61 97.7353L227.68 98.5253C227.688 98.6852 227.688 98.8454 227.68 99.0053V99.5353C227.697 100.231 227.656 100.926 227.56 101.615C227.368 102.892 227.033 104.144 226.56 105.345C225.681 107.492 224.518 109.51 223.1 111.345C220.455 114.732 217.317 117.702 213.79 120.155L211.03 116.925C213.541 114.089 215.766 111.01 217.67 107.735C218.527 106.25 219.199 104.664 219.67 103.015C219.861 102.317 219.972 101.599 220 100.875C220.031 100.566 220.031 100.255 220 99.9453V99.7353C220.01 99.6423 220.01 99.5484 220 99.4553L219.88 98.7553C219.237 95.0285 218.328 91.3524 217.16 87.7553C216.58 85.9653 215.87 84.2353 215.16 82.5453C214.81 81.6953 214.41 80.8653 214.01 80.0653L213.39 78.8853L213.08 78.3353L212.82 77.8953L219.88 73.0253Z" fill="#803E3C"/>
<path d="M210.58 120.175L214.2 127.825L217.07 121.355C217.07 121.355 214.52 115.755 211.07 116.275L210.58 120.175Z" fill="#7F3E3B"/>
<path d="M216.79 128.205L219.67 123.485L217.07 121.355L214.2 127.825L216.79 128.205Z" fill="#7F3E3B"/>
<path d="M200.51 304.625C201.259 304.607 202.003 304.506 202.73 304.325C202.767 304.314 202.8 304.293 202.826 304.265C202.853 304.237 202.871 304.203 202.88 304.165C202.886 304.127 202.881 304.088 202.865 304.052C202.849 304.016 202.823 303.986 202.79 303.965C202.5 303.775 199.96 302.135 198.98 302.575C198.871 302.626 198.778 302.705 198.71 302.803C198.641 302.901 198.6 303.016 198.59 303.135C198.56 303.316 198.574 303.502 198.631 303.676C198.689 303.85 198.788 304.008 198.92 304.135C199.373 304.486 199.938 304.66 200.51 304.625ZM202.16 304.035C200.71 304.335 199.61 304.285 199.16 303.895C199.068 303.804 199.001 303.691 198.964 303.567C198.927 303.443 198.923 303.312 198.95 303.185C198.95 303.015 199.05 302.965 199.12 302.935C199.66 302.695 201.13 303.405 202.16 304.035Z" fill="#6C63FF"/>
<path d="M202.68 304.325H202.78C202.81 304.306 202.835 304.279 202.852 304.248C202.87 304.216 202.879 304.181 202.88 304.145C202.88 304.045 202.88 301.635 201.96 300.825C201.847 300.724 201.714 300.648 201.569 300.603C201.424 300.558 201.27 300.545 201.12 300.565C200.962 300.567 200.81 300.622 200.688 300.722C200.566 300.822 200.482 300.961 200.45 301.115C200.26 302.065 201.78 303.865 202.58 304.325H202.68ZM201.25 300.935C201.331 300.933 201.412 300.947 201.487 300.976C201.563 301.005 201.632 301.049 201.69 301.105C202.218 301.883 202.49 302.806 202.47 303.745C201.67 303.105 200.72 301.745 200.84 301.175C200.84 301.085 200.91 300.965 201.16 300.935H201.25Z" fill="#6C63FF"/>
<path d="M191.07 300.545C191.093 300.516 191.109 300.481 191.114 300.444C191.119 300.407 191.115 300.369 191.1 300.334C191.086 300.299 191.063 300.269 191.033 300.246C191.003 300.224 190.967 300.21 190.93 300.205C190.52 300.205 186.93 300.035 186.11 300.915V300.975C186.042 301.062 185.998 301.165 185.982 301.273C185.967 301.382 185.98 301.493 186.02 301.595C186.073 301.767 186.168 301.923 186.295 302.05C186.422 302.178 186.578 302.272 186.75 302.325C187.91 302.685 189.96 301.375 191.08 300.565L191.07 300.545ZM186.41 301.175C186.86 300.695 188.84 300.565 190.32 300.585C188.77 301.645 187.48 302.145 186.83 301.945C186.717 301.911 186.614 301.849 186.53 301.765C186.446 301.682 186.384 301.579 186.35 301.465C186.33 301.427 186.319 301.384 186.319 301.34C186.319 301.297 186.33 301.254 186.35 301.215L186.41 301.175Z" fill="#6C63FF"/>
<path d="M191.07 300.545C191.085 300.514 191.093 300.48 191.093 300.445C191.093 300.411 191.085 300.377 191.07 300.345C191.02 300.265 189.9 298.345 188.58 297.945C188.39 297.89 188.192 297.874 187.996 297.898C187.8 297.922 187.61 297.986 187.44 298.085C186.96 298.365 186.93 298.695 186.99 298.905C187.25 299.835 189.8 300.655 190.9 300.645C190.935 300.645 190.968 300.635 190.998 300.618C191.028 300.6 191.053 300.575 191.07 300.545ZM187.48 298.545C187.536 298.49 187.6 298.443 187.67 298.405C187.793 298.327 187.933 298.276 188.078 298.257C188.223 298.238 188.37 298.251 188.51 298.295C189.38 298.525 190.19 299.645 190.56 300.195C189.37 300.065 187.56 299.335 187.41 298.775C187.397 298.733 187.397 298.688 187.41 298.645C187.422 298.602 187.446 298.564 187.48 298.535V298.545Z" fill="#6C63FF"/>
<path d="M202.08 43.7354C201.08 48.7354 198.92 59.5454 202.39 62.8654C202.39 62.8654 201.03 67.8654 191.8 67.8654C181.64 67.8654 186.95 62.8654 186.95 62.8654C192.49 61.5454 192.35 57.4254 191.38 53.5654L202.08 43.7354Z" fill="#7F3E3B"/>
<path d="M185.16 32.0154C185.216 32.0245 185.274 32.0245 185.33 32.0154C185.378 31.992 185.42 31.9594 185.455 31.9195C185.49 31.8796 185.516 31.8332 185.533 31.783C185.55 31.7327 185.556 31.6797 185.552 31.6269C185.548 31.5741 185.534 31.5226 185.51 31.4754C185.241 30.9049 184.839 30.4074 184.338 30.0246C183.837 29.6417 183.251 29.3848 182.63 29.2754C182.526 29.2666 182.422 29.298 182.341 29.3631C182.259 29.4281 182.205 29.5219 182.19 29.6254C182.179 29.73 182.209 29.8349 182.275 29.9172C182.34 29.9996 182.436 30.0528 182.54 30.0654C183.03 30.1595 183.491 30.3692 183.884 30.677C184.277 30.9848 184.591 31.3819 184.8 31.8354C184.839 31.8945 184.892 31.9423 184.956 31.9739C185.019 32.0056 185.089 32.0199 185.16 32.0154Z" fill="#263238"/>
<path d="M182.13 36.4053C181.343 37.8651 180.36 39.2108 179.21 40.4053C179.521 40.6903 179.891 40.9041 180.294 41.0319C180.696 41.1597 181.121 41.1984 181.54 41.1453L182.13 36.4053Z" fill="#630F0F"/>
<path d="M182.88 35.2754C182.8 35.9454 182.37 36.4454 181.94 36.3954C181.51 36.3454 181.21 35.7554 181.29 35.0854C181.37 34.4154 181.8 33.9154 182.29 33.9654C182.78 34.0154 182.95 34.6054 182.88 35.2754Z" fill="#263238"/>
<path d="M182.42 34.0253L180.88 33.4053C180.88 33.4053 181.53 34.7253 182.42 34.0253Z" fill="#263238"/>
<path d="M199.9 298.645L191.74 300.545L186.78 281.785L194.94 279.885L199.9 298.645Z" fill="#7F3E3B"/>
<path d="M212.42 304.125H204.05L204.7 284.735H213.08L212.42 304.125Z" fill="#7F3E3B"/>
<path d="M203.38 303.155H212.79C212.953 303.154 213.111 303.212 213.235 303.319C213.358 303.426 213.438 303.574 213.46 303.735L214.53 311.175C214.551 311.363 214.532 311.554 214.475 311.734C214.417 311.915 214.321 312.081 214.195 312.221C214.068 312.362 213.913 312.475 213.74 312.551C213.567 312.628 213.379 312.667 213.19 312.665C209.91 312.615 208.33 312.415 204.19 312.415C201.64 312.415 197.92 312.685 194.41 312.685C190.9 312.685 190.7 309.205 192.17 308.895C198.73 307.475 199.77 305.535 201.98 303.675C202.37 303.342 202.867 303.158 203.38 303.155Z" fill="#263238"/>
<path d="M191.02 299.295L199.57 295.365C199.715 295.296 199.881 295.282 200.035 295.326C200.19 295.371 200.323 295.47 200.41 295.605L204.5 301.925C204.596 302.088 204.656 302.269 204.677 302.456C204.699 302.644 204.68 302.833 204.624 303.013C204.567 303.193 204.474 303.359 204.349 303.501C204.224 303.643 204.071 303.756 203.9 303.835C200.9 305.155 199.38 305.645 195.62 307.375C193.31 308.435 188.62 310.875 185.44 312.375C182.26 313.875 180.62 310.765 181.82 309.865C187.19 305.865 188.73 302.995 189.96 300.385C190.168 299.904 190.545 299.517 191.02 299.295Z" fill="#263238"/>
<path opacity="0.2" d="M186.78 281.785L189.44 291.845L197.5 289.555L194.95 279.885L186.78 281.785Z" fill="black"/>
<path opacity="0.2" d="M213.08 284.735H204.7L204.37 294.735H212.75L213.08 284.735Z" fill="black"/>
<path d="M216.88 64.7654C220.36 65.5354 224.08 78.0454 224.08 78.0454L214.24 88.5154C214.24 88.5154 206.07 76.7554 207.74 72.4354C209.43 67.9254 212.73 63.8654 216.88 64.7654Z" fill="#263238"/>
<path opacity="0.4" d="M211.32 72.7354C209.56 71.1254 208.37 71.6053 207.56 72.8853C206.76 76.6053 211.5 84.3954 213.41 87.3454C214.29 83.8254 215.3 76.4054 211.32 72.7354Z" fill="black"/>
<path d="M172.79 65.0153C172.79 65.0153 168.79 66.4153 176.79 115.565H210.79C210.22 101.725 210.2 93.1853 216.79 64.7653C212.026 63.7824 207.196 63.1474 202.34 62.8653C197.2 62.4949 192.04 62.4949 186.9 62.8653C180.31 63.4753 172.79 65.0153 172.79 65.0153Z" fill="#263238"/>
<path opacity="0.4" d="M172.48 83.8754C172.7 86.2654 172.99 88.9554 173.37 91.9954C176.16 89.4854 178.44 82.3454 177.6 78.1854C175.607 79.8031 173.879 81.7231 172.48 83.8754Z" fill="black"/>
<path d="M176.12 76.4053C174.285 81.023 172.219 85.5454 169.93 89.9554C167.667 94.5245 164.989 98.8761 161.93 102.955L161.29 103.745L160.97 104.135C160.86 104.265 160.77 104.385 160.6 104.565C159.998 105.222 159.328 105.812 158.6 106.325C157.314 107.216 155.906 107.916 154.42 108.405C151.829 109.233 149.138 109.711 146.42 109.825C141.33 110.028 136.234 109.574 131.26 108.475L131.81 104.275C134.11 104.275 136.52 104.275 138.81 104.085C141.11 103.972 143.401 103.718 145.67 103.325C147.777 102.997 149.838 102.419 151.81 101.605C152.606 101.265 153.35 100.814 154.02 100.265C154.276 100.051 154.507 99.8098 154.71 99.5453C154.71 99.5453 154.83 99.3853 154.91 99.2753L155.14 98.9453L155.61 98.2854C158.119 94.4094 160.355 90.3629 162.3 86.1754C164.3 81.9254 166.3 77.5154 168.13 73.1754L176.12 76.4053Z" fill="#803E3C"/>
<path d="M172.79 65.0153C168.62 66.0153 163.5 77.4553 163.5 77.4553L172.14 90.1553C172.14 90.1553 183.65 75.6653 182.28 71.2453C180.88 66.6353 177.88 63.7753 172.79 65.0153Z" fill="#263238"/>
<path d="M134.21 104.915L127 101.585L126.28 108.755C126.28 108.755 132.28 110.525 135.28 108.755L134.21 104.915Z" fill="#7F3E3B"/>
<path d="M122.69 100.865L122 106.325L126.28 108.755L127 101.585L122.69 100.865Z" fill="#7F3E3B"/>
<path d="M205.7 35.7654C204.17 43.9354 203.7 47.4354 199.02 51.1454C192.02 56.7254 182.27 53.0654 181.33 44.6054C180.47 36.9854 183.11 24.9054 191.58 22.6054C193.446 22.0906 195.412 22.0624 197.292 22.5235C199.172 22.9845 200.902 23.9194 202.318 25.239C203.734 26.5586 204.788 28.2189 205.38 30.0617C205.972 31.9044 206.082 33.868 205.7 35.7654Z" fill="#7F3E3B"/>
<path d="M187.75 37.4853C187.28 41.6553 187.1 52.4853 196.26 52.8253C207.47 53.2353 210.83 43.6553 209.83 39.8253C215.67 35.0753 216.51 26.9053 209.95 20.6553C203.39 14.4053 188.95 17.8953 184.95 23.9853C179.88 31.5353 187.75 37.4853 187.75 37.4853Z" fill="#263238"/>
<path d="M198.98 23.0853C198.44 18.6853 198.86 15.6553 202.98 15.6553C207.1 15.6553 212.72 17.1453 214.78 21.3553C216.84 25.5653 217.01 32.1553 211.26 31.4853C205.51 30.8153 199.63 28.3453 198.98 23.0853Z" fill="#6C63FF"/>
<path d="M205.36 22.0253C204.36 16.7853 209.05 2.02534 220.44 1.02534C225.72 0.575341 228.16 6.25534 225.44 7.19534C230.44 7.13534 233.64 13.7453 228.98 14.7353C232.66 17.0953 231.75 21.9353 226.5 24.3153C222.59 26.1153 206.71 29.2853 205.36 22.0253Z" fill="#263238"/>
<path d="M217.53 27.6553C213.86 27.6553 210.03 27.1153 207.65 25.5253C206.985 25.1242 206.424 24.5703 206.016 23.9094C205.607 23.2486 205.362 22.4999 205.3 21.7253C205.297 21.6596 205.319 21.5952 205.362 21.545C205.404 21.4949 205.465 21.4629 205.53 21.4554C205.563 21.4512 205.597 21.4539 205.629 21.4635C205.661 21.473 205.69 21.4891 205.716 21.5107C205.741 21.5324 205.762 21.5591 205.776 21.5892C205.791 21.6192 205.799 21.652 205.8 21.6853C205.86 22.3843 206.085 23.0592 206.455 23.6552C206.825 24.2512 207.33 24.7514 207.93 25.1154C212.46 28.1154 222.93 27.1154 226.19 26.1154C229.01 25.1954 230.92 23.4054 231.3 21.3454C231.418 20.5894 231.325 19.8154 231.03 19.1093C230.736 18.4032 230.251 17.7926 229.63 17.3454C229.606 17.3229 229.587 17.2958 229.574 17.2657C229.561 17.2356 229.554 17.2031 229.554 17.1703C229.554 17.1376 229.561 17.1051 229.574 17.075C229.587 17.0449 229.606 17.0178 229.63 16.9953C229.677 16.9495 229.74 16.9239 229.805 16.9239C229.87 16.9239 229.933 16.9495 229.98 16.9953C230.678 17.5047 231.221 18.198 231.547 18.998C231.874 19.798 231.972 20.673 231.83 21.5254C231.42 23.7754 229.39 25.6954 226.39 26.6754C223.495 27.405 220.514 27.7348 217.53 27.6553Z" fill="#263238"/>
<path d="M185.2 36.4053C184.269 37.7116 183.885 39.33 184.13 40.9153C184.46 43.0153 186.5 43.1553 187.98 41.8153C189.46 40.4753 190.75 38.0553 189.66 36.3153C189.418 35.9395 189.083 35.6318 188.689 35.4218C188.294 35.2117 187.852 35.1061 187.405 35.1152C186.958 35.1242 186.52 35.2475 186.135 35.4733C185.749 35.6991 185.427 36.02 185.2 36.4053Z" fill="#7F3E3B"/>
<path d="M185.77 115.565C185.77 115.565 190.63 173.055 195.68 205.455C199.75 231.625 202.97 292.795 202.97 292.795H214.39C214.39 292.795 218.45 233.455 216.39 207.575C211.16 142.075 222.83 136.735 210.82 115.575L185.77 115.565Z" fill="#6C63FF"/>
<path opacity="0.4" d="M200.15 137.295C195.624 142.045 191.972 147.557 189.36 153.575C190.69 166.495 192.27 180.835 193.95 193.395C200.844 175.549 202.98 156.217 200.15 137.295Z" fill="black"/>
<path d="M177.78 115.205C177.78 115.205 167.23 177.995 165.57 206.295C169.71 232.465 186.65 287.785 186.65 287.785L197.04 284.015C197.04 284.015 191.29 223.695 185.04 207.185C199.11 159.815 209.45 147.835 206.44 115.565C199.23 115.565 177.78 115.205 177.78 115.205Z" fill="#6C63FF"/>
<path d="M185.26 290.545L199.3 286.735L198.5 281.135L183.47 285.205L185.26 290.545Z" fill="#263238"/>
<path d="M201.4 293.025H215.95L216.71 287.925L201.32 287.405L201.4 293.025Z" fill="#263238"/>
<path d="M211.32 113.565L212.85 116.615C212.97 116.855 212.69 117.095 212.3 117.095H176.62C176.32 117.095 176.06 116.945 176.04 116.745L175.73 113.745C175.73 113.535 175.98 113.355 176.31 113.355H210.76C210.863 113.341 210.969 113.353 211.067 113.39C211.164 113.426 211.251 113.487 211.32 113.565Z" fill="#6C63FF"/>
<path opacity="0.5" d="M211.32 113.565L212.85 116.615C212.97 116.855 212.69 117.095 212.3 117.095H176.62C176.32 117.095 176.06 116.945 176.04 116.745L175.73 113.745C175.73 113.535 175.98 113.355 176.31 113.355H210.76C210.863 113.341 210.969 113.353 211.067 113.39C211.164 113.426 211.251 113.487 211.32 113.565Z" fill="black"/>
<path d="M206.69 117.405H207.61C207.8 117.405 207.94 117.305 207.93 117.195L207.49 113.195C207.49 113.075 207.32 112.985 207.14 112.985H206.21C206.03 112.985 205.89 113.075 205.9 113.195L206.33 117.195C206.35 117.325 206.51 117.405 206.69 117.405Z" fill="#6C63FF"/>
<path d="M194.31 88.2853C194.2 88.2837 194.093 88.2469 194.005 88.1804C193.916 88.1139 193.852 88.021 193.82 87.9153C190.56 75.8553 183.82 65.9153 180.55 64.4153C180.296 64.2593 179.991 64.209 179.7 64.2753C179.64 64.3072 179.573 64.3263 179.505 64.3315C179.437 64.3368 179.369 64.328 179.304 64.3058C179.24 64.2836 179.18 64.2484 179.13 64.2024C179.08 64.1565 179.039 64.1006 179.011 64.0384C178.983 63.9762 178.968 63.9088 178.967 63.8406C178.966 63.7724 178.979 63.7046 179.005 63.6415C179.031 63.5785 179.07 63.5215 179.119 63.474C179.168 63.4265 179.226 63.3895 179.29 63.3654C179.563 63.265 179.855 63.2255 180.145 63.2497C180.436 63.2739 180.717 63.3611 180.97 63.5053C184.43 65.1453 191.27 74.9453 194.69 87.2753C197.14 87.2753 200.92 86.9454 201.84 86.8654C202.98 85.5054 211.36 75.0253 208.23 63.5553C208.212 63.4923 208.207 63.4263 208.215 63.3612C208.222 63.2961 208.243 63.2332 208.276 63.1763C208.309 63.1194 208.352 63.0697 208.405 63.03C208.457 62.9903 208.516 62.9615 208.58 62.9453C208.707 62.9116 208.843 62.9294 208.957 62.995C209.071 63.0605 209.155 63.1684 209.19 63.2953C212.68 76.0553 202.56 87.5653 202.45 87.6753C202.411 87.7239 202.362 87.764 202.307 87.7932C202.252 87.8224 202.192 87.8402 202.13 87.8453C202.08 87.8453 197.09 88.2853 194.31 88.2853Z" fill="#6C63FF"/>
<path d="M210.88 95.3453C205.43 85.1353 203.2 84.4153 202.23 81.1353C202.965 79.3012 204.014 77.6092 205.33 76.1353C204.67 75.9453 203.25 75.6653 202.33 75.4953C202.43 75.0453 202.54 74.6054 202.64 74.1754C201.639 74.0633 200.626 74.1106 199.64 74.3153V73.3153C198.37 73.039 197.065 72.9547 195.77 73.0653C195.883 73.5387 195.993 74.0187 196.1 74.5054C195.1 74.6954 193.58 75.0053 192.85 75.2153C194.269 76.8219 195.31 78.7249 195.9 80.7854C192.96 85.8354 181.54 118.295 200.12 120.785C218.7 123.275 216.32 105.565 210.88 95.3453Z" fill="#6C63FF"/>
<path opacity="0.4" d="M210.88 95.3453C205.43 85.1353 203.2 84.4153 202.23 81.1353C202.965 79.3012 204.014 77.6092 205.33 76.1353C204.67 75.9453 203.25 75.6653 202.33 75.4953C202.43 75.0453 202.54 74.6054 202.64 74.1754C201.639 74.0633 200.626 74.1106 199.64 74.3153V73.3153C198.37 73.039 197.065 72.9547 195.77 73.0653C195.883 73.5387 195.993 74.0187 196.1 74.5054C195.1 74.6954 193.58 75.0053 192.85 75.2153C194.269 76.8219 195.31 78.7249 195.9 80.7854C192.96 85.8354 181.54 118.295 200.12 120.785C218.7 123.275 216.32 105.565 210.88 95.3453Z" fill="white"/>
<path d="M195.14 79.8154C195.024 80.3303 194.974 80.8578 194.99 81.3854C194.99 81.7554 195.99 82.0054 197.1 82.1154C198.21 82.2254 202.87 82.4054 202.72 81.8854C202.57 81.3654 202.95 80.6554 202.97 80.2154C202.99 79.7754 201.12 79.7554 199.55 79.8154C197.98 79.8754 195.45 79.2554 195.14 79.8154Z" fill="#6C63FF"/>
<path d="M184.33 117.405H185.25C185.43 117.405 185.57 117.305 185.56 117.195L185.13 113.195C185.13 113.075 184.96 112.985 184.77 112.985H183.88C183.7 112.985 183.56 113.075 183.57 113.195L184 117.195C183.98 117.325 184.14 117.405 184.33 117.405Z" fill="#6C63FF"/>
</g>
</svg>
