<svg width="624" height="553" viewBox="0 0 624 553" fill="none" xmlns="http://www.w3.org/2000/svg">
<path d="M294.791 419.767H8.45267C6.20952 419.763 4.05959 418.868 2.47483 417.279C0.890071 415.69 -3.43998e-06 413.537 0 411.291V8.40128C0.0195271 6.16889 0.918218 4.03436 2.50087 2.46133C4.08352 0.888306 6.22231 0.0038242 8.45267 0H294.791C297.036 0 299.19 0.892952 300.778 2.48241C302.366 4.07188 303.258 6.22765 303.258 8.47549V411.291C303.258 413.539 302.366 415.695 300.778 417.285C299.19 418.874 297.036 419.767 294.791 419.767V419.767ZM8.45267 0.296866C6.30785 0.300798 4.25221 1.15639 2.73698 2.67583C1.22174 4.19528 0.370728 6.25442 0.370731 8.40128V411.291C0.370728 413.438 1.22174 415.497 2.73698 417.017C4.25221 418.536 6.30785 419.392 8.45267 419.396H294.791C296.937 419.392 298.994 418.537 300.512 417.018C302.029 415.499 302.883 413.44 302.887 411.291V8.40128C302.883 6.25306 302.029 4.19395 300.512 2.67493C298.994 1.1559 296.937 0.30079 294.791 0.296866H8.45267Z" fill="#EBEBEB"/>
<path d="M615.562 419.767H329.209C326.965 419.763 324.813 418.869 323.226 417.28C321.639 415.692 320.746 413.538 320.742 411.291V8.40128C320.765 6.16754 321.667 4.03302 323.252 2.46041C324.837 0.887787 326.978 0.00378249 329.209 0H615.562C617.79 0.00772516 619.925 0.893933 621.504 2.46654C623.084 4.03915 623.981 6.17145 624 8.40128V411.291C624 413.534 623.112 415.685 621.53 417.274C619.949 418.863 617.803 419.759 615.562 419.767V419.767ZM329.209 0.296866C327.063 0.30079 325.006 1.1559 323.488 2.67493C321.971 4.19395 321.117 6.25306 321.113 8.40128V411.291C321.117 413.44 321.971 415.499 323.488 417.018C325.006 418.537 327.063 419.392 329.209 419.396H615.562C617.708 419.392 619.766 418.537 621.283 417.018C622.801 415.499 623.655 413.44 623.659 411.291V8.40128C623.655 6.25306 622.801 4.19395 621.283 2.67493C619.766 1.1559 617.708 0.30079 615.562 0.296866H329.209Z" fill="#EBEBEB"/>
<path d="M113.874 177.57C122.098 177.57 129.985 174.3 135.8 168.479C141.615 162.659 144.882 154.764 144.882 146.533C144.882 138.301 141.615 130.407 135.8 124.586C129.985 118.765 122.098 115.495 113.874 115.495H110.063V177.57H113.874Z" fill="#E0E0E0"/>
<path d="M110.033 177.57C127.158 177.57 141.041 163.674 141.041 146.533C141.041 129.391 127.158 115.495 110.033 115.495C92.9078 115.495 79.025 129.391 79.025 146.533C79.025 163.674 92.9078 177.57 110.033 177.57Z" fill="#F5F5F5"/>
<path d="M108.609 150.421C97.597 150.421 87.0358 146.043 79.2489 138.249C71.462 130.454 67.0874 119.883 67.0874 108.86V84.0573C67.0874 83.022 67.4983 82.0291 68.2297 81.297C68.9611 80.5649 69.9531 80.1536 70.9875 80.1536C72.0219 80.1536 73.0139 80.5649 73.7453 81.297C74.4767 82.0291 74.8876 83.022 74.8876 84.0573V108.875C74.8954 117.822 78.4487 126.401 84.7679 132.729C91.087 139.057 99.6559 142.617 108.594 142.629C109.126 142.596 109.658 142.672 110.159 142.853C110.66 143.034 111.118 143.316 111.506 143.681C111.894 144.046 112.203 144.487 112.415 144.976C112.626 145.465 112.735 145.992 112.735 146.525C112.735 147.058 112.626 147.585 112.415 148.074C112.203 148.564 111.894 149.004 111.506 149.369C111.118 149.734 110.66 150.016 110.159 150.197C109.658 150.378 109.126 150.454 108.594 150.421H108.609Z" fill="#E0E0E0"/>
<path d="M36.5096 105.907H105.495C106.598 105.907 107.687 105.653 108.677 105.166C109.667 104.679 110.532 103.97 111.205 103.096C111.879 102.221 112.343 101.203 112.561 100.121C112.779 99.0382 112.746 97.92 112.465 96.8522L106.459 74.2163C106.054 72.6785 105.152 71.318 103.894 70.3462C102.636 69.3745 101.093 68.846 99.5042 68.843H42.5006C40.9098 68.8453 39.3643 69.3732 38.104 70.3448C36.8437 71.3164 35.9391 72.6773 35.5308 74.2163L29.5991 96.8225C29.3104 97.8876 29.2702 99.0048 29.4816 100.088C29.6929 101.171 30.1502 102.191 30.8182 103.069C31.4861 103.947 32.3467 104.659 33.3335 105.151C34.3204 105.644 35.4071 105.902 36.5096 105.907V105.907Z" fill="#F5F5F5"/>
<path d="M551.752 177.57C559.975 177.57 567.862 174.3 573.678 168.479C579.493 162.659 582.76 154.764 582.76 146.533C582.76 138.301 579.493 130.407 573.678 124.586C567.862 118.765 559.975 115.495 551.752 115.495H547.94V177.57H551.752Z" fill="#E0E0E0"/>
<path d="M547.941 177.57C565.066 177.57 578.949 163.674 578.949 146.533C578.949 129.391 565.066 115.495 547.941 115.495C530.815 115.495 516.933 129.391 516.933 146.533C516.933 163.674 530.815 177.57 547.941 177.57Z" fill="#F5F5F5"/>
<path d="M546.517 150.421C535.505 150.421 524.944 146.043 517.157 138.249C509.37 130.454 504.995 119.883 504.995 108.86V84.0573C504.995 83.022 505.406 82.0291 506.138 81.297C506.869 80.5649 507.861 80.1536 508.895 80.1536C509.93 80.1536 510.922 80.5649 511.653 81.297C512.385 82.0291 512.795 83.022 512.795 84.0573V108.875C512.803 117.822 516.357 126.401 522.676 132.729C528.995 139.057 537.564 142.617 546.502 142.629C547.034 142.596 547.566 142.672 548.067 142.853C548.568 143.034 549.026 143.316 549.414 143.681C549.802 144.046 550.111 144.487 550.322 144.976C550.534 145.465 550.643 145.992 550.643 146.525C550.643 147.058 550.534 147.585 550.322 148.074C550.111 148.564 549.802 149.004 549.414 149.369C549.026 149.734 548.568 150.016 548.067 150.197C547.566 150.378 547.034 150.454 546.502 150.421H546.517Z" fill="#E0E0E0"/>
<path d="M474.417 105.907H543.403C544.506 105.907 545.595 105.653 546.585 105.166C547.575 104.679 548.44 103.97 549.113 103.096C549.786 102.221 550.25 101.203 550.468 100.121C550.687 99.0381 550.654 97.9199 550.373 96.8522L544.441 74.2459C544.035 72.7082 543.134 71.3476 541.876 70.3759C540.618 69.4041 539.075 68.8757 537.486 68.8727H480.408C478.817 68.8749 477.272 69.4028 476.012 70.3744C474.751 71.3461 473.847 72.707 473.438 74.2459L467.507 96.8522C467.223 97.9153 467.187 99.0293 467.401 100.109C467.615 101.188 468.073 102.204 468.741 103.078C469.408 103.952 470.267 104.662 471.251 105.152C472.235 105.643 473.318 105.901 474.417 105.907V105.907Z" fill="#F5F5F5"/>
<path d="M142.02 387.201H164.575V299.73H142.02V387.201Z" fill="#E6E6E6"/>
<path d="M80.8787 387.186H155.722L167.022 284.812H92.1786L80.8787 387.186Z" fill="#F0F0F0"/>
<path d="M72.7671 387.186H150.087L161.387 284.812H84.0818L72.7671 387.186Z" fill="#F5F5F5"/>
<path d="M144.496 379.126L154.017 292.887H89.6576L80.1373 379.126H144.496Z" fill="white"/>
<path d="M131.209 358.212L131.669 354.754C134.056 333.112 120.562 313.831 103.034 313.831L102.633 317.349C100.246 338.975 113.74 358.257 131.283 358.257L131.209 358.212Z" fill="#F5F5F5"/>
<path d="M30.9636 485.968H97.4579L97.4579 387.186H30.9636L30.9636 485.968Z" fill="#E6E6E6"/>
<path d="M37.6365 485.968H30.9485V466.924H44.6508L37.6365 485.968Z" fill="#F0F0F0"/>
<path d="M217.323 485.968H283.817V387.186H217.323V485.968Z" fill="#E6E6E6"/>
<path d="M30.9485 474.286H223.15V387.201H30.9485V474.286Z" fill="#F0F0F0"/>
<path d="M216.462 485.968H223.15V466.924H209.448L216.462 485.968Z" fill="#F0F0F0"/>
<path d="M36.1388 427.782H217.96V392.634H36.1388V427.782Z" fill="#E6E6E6"/>
<path d="M114.927 415.611H139.173C144.386 415.613 149.544 414.551 154.333 412.488C159.121 410.426 163.439 407.408 167.022 403.618H87.0775C90.662 407.406 94.9801 410.423 99.7683 412.485C104.556 414.547 109.714 415.611 114.927 415.611V415.611Z" fill="#F0F0F0"/>
<path d="M36.1388 468.601H217.96V433.452H36.1388V468.601Z" fill="#E6E6E6"/>
<path d="M114.927 456.37H139.173C144.386 456.373 149.544 455.31 154.333 453.248C159.121 451.186 163.439 448.167 167.022 444.377H87.0775C90.662 448.165 94.9801 451.182 99.7683 453.244C104.556 455.306 109.714 456.37 114.927 456.37V456.37Z" fill="#F0F0F0"/>
<path d="M210.976 383.164H212.696C212.696 379.616 212.696 370.636 212.874 350.048C213.185 312.718 213.778 310.447 213.778 310.447L209.686 327.68C207.09 346.753 210.442 365.931 210.976 383.164Z" fill="#E6E6E6"/>
<path d="M207.58 325.067C201.648 318.046 189.117 315.998 176.246 314.246C171.189 313.564 189.518 325.127 198.49 333.335C205.459 339.717 209.908 341.484 211.836 347.837C212.815 339.91 212.651 331.168 207.58 325.067Z" fill="#E6E6E6"/>
<path d="M215.395 337.654C221.326 330.633 233.857 328.6 246.729 326.848C251.786 326.165 233.383 337.728 224.485 345.937C217.515 352.319 213.067 354.086 211.139 360.438C210.16 352.512 210.264 343.71 215.395 337.654Z" fill="#E6E6E6"/>
<path d="M212.874 308.739C217.323 300.338 228.385 292.412 240.857 289.443C245.75 288.271 229.512 304.94 223.343 315.701C218.553 324.043 212.207 333.869 211.213 340.934C209.73 327.011 208.455 317.185 212.874 308.739Z" fill="#E6E6E6"/>
<path d="M212.34 387.186C207.09 387.186 202.745 384.559 202.434 381.175L201.559 375.415H223.136L222.246 381.175C221.949 384.559 217.678 387.186 212.34 387.186Z" fill="#F0F0F0"/>
<path d="M224.53 377.627H200.165L199.468 371.2H225.227L224.53 377.627Z" fill="#F0F0F0"/>
<path d="M194.753 254.888L432.332 254.888V37.9838L194.753 37.9838L194.753 254.888Z" fill="#E6E6E6"/>
<path d="M189.414 254.888L430.004 254.888V37.9838L189.414 37.9838L189.414 254.888Z" fill="#F5F5F5"/>
<path d="M420.394 245.181V47.7063L198.994 47.7063V245.181H420.394Z" fill="#FAFAFA"/>
<path d="M393.242 245.181L306.105 47.7063H276.506L363.643 245.181H393.242Z" fill="white"/>
<path d="M355.249 245.181L268.113 47.7063H247.737L334.874 245.181H355.249Z" fill="white"/>
<path d="M281.207 245.166V47.6914H269.759V245.166H281.207Z" fill="#E6E6E6"/>
<path d="M357.311 245.166V47.6914H345.862V245.166H357.311Z" fill="#E6E6E6"/>
<path d="M279.146 251.341V40.4775H264.672V251.341H279.146Z" fill="#F5F5F5"/>
<path d="M355.249 251.341V40.4775H340.776V251.341H355.249Z" fill="#F5F5F5"/>
<path d="M200.032 245.181V47.7063H199.007V245.181H200.032Z" fill="#E6E6E6"/>
<path d="M185.38 25.4858H442.757C443.086 25.4897 443.401 25.6223 443.633 25.8553C443.866 26.0883 443.999 26.4032 444.002 26.7327C443.999 27.0608 443.866 27.3741 443.632 27.6047C443.399 27.8354 443.085 27.9647 442.757 27.9647H185.38C185.053 27.9647 184.738 27.8354 184.505 27.6047C184.272 27.3741 184.139 27.0608 184.135 26.7327V26.7327C184.139 26.4032 184.271 26.0883 184.504 25.8553C184.737 25.6223 185.051 25.4897 185.38 25.4858Z" fill="#E6E6E6"/>
<path d="M432.332 33.6644C432.774 33.6605 433.196 33.4821 433.507 33.1679C433.818 32.8538 433.993 32.4294 433.993 31.9871V28.3951C433.995 28.1755 433.953 27.9577 433.871 27.7543C433.788 27.5509 433.666 27.3659 433.512 27.2099C433.357 27.054 433.173 26.9302 432.971 26.8457C432.769 26.7613 432.551 26.7178 432.332 26.7178V26.7178C431.89 26.7178 431.466 26.8924 431.152 27.2038C430.838 27.5151 430.66 27.938 430.656 28.3802V31.9723C430.656 32.4185 430.832 32.8467 431.146 33.1636C431.46 33.4805 431.886 33.6605 432.332 33.6644V33.6644Z" fill="#E6E6E6"/>
<path d="M204.036 33.6644C204.479 33.6605 204.903 33.4826 205.216 33.1689C205.53 32.8551 205.707 32.4308 205.711 31.9871V28.3951C205.711 27.9502 205.535 27.5236 205.22 27.209C204.906 26.8945 204.48 26.7178 204.036 26.7178V26.7178C203.595 26.7178 203.173 26.8929 202.861 27.2047C202.55 27.5165 202.375 27.9393 202.375 28.3802V31.9723C202.373 32.1926 202.414 32.411 202.497 32.6153C202.579 32.8195 202.701 33.0055 202.855 33.1627C203.009 33.3198 203.193 33.445 203.395 33.5311C203.598 33.6172 203.816 33.6625 204.036 33.6644Z" fill="#E6E6E6"/>
<path opacity="0.6" d="M185.766 196.584L426.193 196.584V26.7179L185.766 26.7179L185.766 196.584Z" fill="#E0E0E0"/>
<path d="M447.962 304.242H406.499C402.093 304.242 398.521 307.817 398.521 312.228V331.435C398.521 335.845 402.093 339.42 406.499 339.42H447.962C452.368 339.42 455.94 335.845 455.94 331.435V312.228C455.94 307.817 452.368 304.242 447.962 304.242Z" fill="#FAFAFA"/>
<path d="M453.256 297.741H401.205C399.723 297.741 398.521 298.943 398.521 300.427V302.594C398.521 304.078 399.723 305.281 401.205 305.281H453.256C454.738 305.281 455.94 304.078 455.94 302.594V300.427C455.94 298.943 454.738 297.741 453.256 297.741Z" fill="#E6E6E6"/>
<path d="M399.366 378.503C399.366 378.503 400.123 403.247 428.921 403.247C457.72 403.247 458.476 378.503 458.476 378.503H399.366Z" fill="#F0F0F0"/>
<path d="M465.031 378.503C465.031 378.503 465.787 403.247 494.585 403.247C523.384 403.247 524.14 378.503 524.14 378.503H465.031Z" fill="#F0F0F0"/>
<path d="M509.874 288.315H452.93C446.869 288.315 441.956 293.233 441.956 299.299V328.451C441.956 334.518 446.869 339.435 452.93 339.435H509.874C515.935 339.435 520.848 334.518 520.848 328.451V299.299C520.848 293.233 515.935 288.315 509.874 288.315Z" fill="#F0F0F0"/>
<path d="M517.17 279.38H445.634C443.603 279.38 441.956 281.028 441.956 283.061V286.059C441.956 288.092 443.603 289.74 445.634 289.74H517.17C519.201 289.74 520.848 288.092 520.848 286.059V283.061C520.848 281.028 519.201 279.38 517.17 279.38Z" fill="#F5F5F5"/>
<path d="M377.671 485.968H385.145V363.303H377.671V485.968Z" fill="#E6E6E6"/>
<path d="M593.481 339.421H553.012V363.288H593.481V339.421Z" fill="#E6E6E6"/>
<path d="M351.794 363.303H552.998V339.435H351.794V363.303Z" fill="#F5F5F5"/>
<path d="M593.481 403.172H553.012V427.04H593.481V403.172Z" fill="#E6E6E6"/>
<path d="M351.794 427.04H552.998V403.172H351.794V427.04Z" fill="#F5F5F5"/>
<path d="M578.874 485.968H586.348V363.303H578.874V485.968Z" fill="#E6E6E6"/>
<path d="M545.538 485.968H553.012V363.303H545.538V485.968Z" fill="#F5F5F5"/>
<path d="M351.794 485.968H359.268V363.303H351.794V485.968Z" fill="#F5F5F5"/>
<path d="M314.069 553C472.864 553 601.593 545.477 601.593 536.198C601.593 526.918 472.864 519.395 314.069 519.395C155.273 519.395 26.5443 526.918 26.5443 536.198C26.5443 545.477 155.273 553 314.069 553Z" fill="#F5F5F5"/>
<path d="M329.506 460.883H140.329C137.287 460.84 134.374 459.647 132.174 457.544C129.973 455.44 128.649 452.582 128.466 449.543L111.501 120.69C111.407 119.228 111.616 117.761 112.115 116.383C112.613 115.005 113.391 113.745 114.399 112.681C115.407 111.618 116.623 110.775 117.972 110.204C119.321 109.633 120.773 109.348 122.238 109.365H311.414C314.455 109.404 317.368 110.594 319.569 112.695C321.769 114.796 323.094 117.652 323.278 120.69L340.213 449.543C340.306 451.003 340.098 452.468 339.602 453.845C339.105 455.222 338.33 456.482 337.326 457.546C336.321 458.61 335.108 459.455 333.763 460.029C332.418 460.603 330.968 460.894 329.506 460.883V460.883Z" fill="#6C63FF"/>
<path opacity="0.8" d="M329.506 460.883H140.329C137.287 460.84 134.374 459.647 132.174 457.544C129.973 455.44 128.649 452.582 128.466 449.543L111.501 120.69C111.407 119.228 111.616 117.761 112.115 116.383C112.613 115.005 113.391 113.745 114.399 112.681C115.407 111.618 116.623 110.775 117.972 110.204C119.321 109.633 120.773 109.348 122.238 109.365H311.414C314.455 109.404 317.368 110.594 319.569 112.695C321.769 114.796 323.094 117.652 323.278 120.69L340.213 449.543C340.306 451.003 340.098 452.468 339.602 453.845C339.105 455.222 338.33 456.482 337.326 457.546C336.321 458.61 335.108 459.455 333.763 460.029C332.418 460.603 330.968 460.894 329.506 460.883V460.883Z" fill="#D3D2E3"/>
<path d="M292.744 98.6482H271.82V100.133H292.744V98.6482Z" fill="#6C63FF"/>
<path d="M264.569 98.6482H256.902V100.133H264.569V98.6482Z" fill="#6C63FF"/>
<path d="M337.647 440.013H156.73C153.817 439.985 151.022 438.853 148.909 436.845C146.796 434.838 145.521 432.103 145.341 429.192L129.148 114.664C129.058 113.264 129.258 111.861 129.735 110.542C130.213 109.223 130.957 108.017 131.922 107C132.887 105.982 134.051 105.176 135.342 104.63C136.633 104.084 138.023 103.811 139.425 103.829H320.341C323.255 103.861 326.048 104.996 328.158 107.007C330.268 109.017 331.539 111.753 331.715 114.664L347.909 429.192C347.999 430.59 347.799 431.992 347.323 433.309C346.846 434.626 346.103 435.83 345.139 436.846C344.176 437.862 343.013 438.668 341.724 439.213C340.434 439.758 339.047 440.03 337.647 440.013Z" fill="#6C63FF"/>
<path d="M337.647 432.784H156.73C155.669 432.748 154.659 432.323 153.89 431.589C153.122 430.856 152.65 429.866 152.563 428.806L136.355 114.293C136.318 113.875 136.371 113.453 136.509 113.057C136.647 112.66 136.867 112.297 137.156 111.992C137.445 111.688 137.796 111.449 138.184 111.29C138.573 111.131 138.99 111.057 139.41 111.072H320.327C321.385 111.112 322.392 111.539 323.157 112.272C323.922 113.005 324.392 113.993 324.479 115.05L340.761 429.563C340.797 429.98 340.744 430.4 340.607 430.795C340.469 431.19 340.249 431.552 339.962 431.856C339.675 432.16 339.327 432.4 338.941 432.56C338.555 432.72 338.139 432.796 337.721 432.784H337.647ZM139.41 111.443C139.041 111.431 138.674 111.496 138.332 111.634C137.99 111.772 137.68 111.98 137.423 112.245C137.175 112.519 136.986 112.84 136.866 113.19C136.746 113.539 136.698 113.91 136.726 114.278L152.919 428.792C153.002 429.755 153.433 430.655 154.132 431.322C154.832 431.989 155.75 432.377 156.715 432.413H337.632C337.999 432.428 338.365 432.364 338.705 432.226C339.045 432.087 339.352 431.878 339.605 431.612C339.858 431.342 340.052 431.021 340.172 430.67C340.292 430.32 340.336 429.947 340.302 429.578L324.123 115.065C324.044 114.103 323.615 113.203 322.919 112.536C322.222 111.868 321.305 111.48 320.341 111.443H139.41Z" fill="white"/>
<path opacity="0.3" d="M274.366 225.7C294.943 204.564 293.603 169.852 271.373 148.169C249.143 126.485 214.441 126.041 193.863 147.176C173.286 168.312 174.626 203.024 196.856 224.708C219.086 246.392 253.789 246.836 274.366 225.7Z" fill="white"/>
<path d="M278.478 186.446C278.893 193.74 277.428 201.019 274.222 207.583C270.753 214.623 265.366 220.539 258.684 224.649C252.001 228.759 244.295 230.895 236.452 230.812C228.325 230.739 220.355 228.561 213.318 224.49C206.28 220.42 200.416 214.595 196.295 207.583C192.454 201.17 190.244 193.912 189.859 186.446C189.493 180.72 190.312 174.98 192.265 169.585C194.217 164.19 197.261 159.257 201.206 155.094C205.151 150.931 209.912 147.627 215.191 145.391C220.47 143.154 226.153 142.032 231.885 142.094C243.815 142.219 255.255 146.864 263.901 155.093C272.546 163.323 277.755 174.526 278.478 186.446V186.446Z" fill="white"/>
<path d="M274.178 207.583C270.708 214.623 265.322 220.539 258.639 224.649C251.957 228.759 244.25 230.895 236.408 230.812C228.28 230.739 220.31 228.561 213.273 224.49C206.236 220.42 200.371 214.595 196.25 207.583C207.519 199.793 220.904 195.648 234.599 195.708C248.66 195.761 262.406 199.885 274.178 207.583V207.583Z" fill="#6C63FF"/>
<path d="M247.852 185.415C255.266 177.8 254.78 165.291 246.768 157.476C238.756 149.661 226.251 149.498 218.837 157.113C211.424 164.728 211.909 177.236 219.921 185.051C227.934 192.867 240.439 193.029 247.852 185.415Z" fill="#6C63FF"/>
<path d="M311.711 317.645H170.047C168.813 317.633 167.63 317.152 166.736 316.301C165.841 315.45 165.302 314.292 165.228 313.059L164.16 292.278C164.123 291.687 164.209 291.095 164.411 290.538C164.613 289.982 164.928 289.473 165.336 289.044C165.744 288.615 166.236 288.275 166.781 288.044C167.326 287.814 167.913 287.699 168.505 287.707H310.169C311.4 287.719 312.581 288.197 313.475 289.045C314.369 289.893 314.91 291.048 314.988 292.278L316.056 313.059C316.095 313.651 316.011 314.245 315.809 314.803C315.608 315.362 315.293 315.872 314.885 316.303C314.477 316.734 313.985 317.075 313.438 317.306C312.892 317.537 312.304 317.653 311.711 317.645V317.645Z" fill="white"/>
<path opacity="0.3" d="M268.335 276.233H209.167C207.928 276.224 206.739 275.743 205.841 274.888C204.943 274.034 204.404 272.869 204.332 271.631L204.11 267.178C204.071 266.586 204.155 265.992 204.356 265.434C204.558 264.876 204.873 264.365 205.281 263.934C205.689 263.504 206.181 263.162 206.728 262.931C207.274 262.7 207.862 262.584 208.455 262.592H267.609C268.843 262.605 270.026 263.085 270.92 263.936C271.814 264.787 272.353 265.946 272.428 267.178L272.666 271.631C272.702 272.223 272.617 272.815 272.416 273.372C272.215 273.929 271.901 274.439 271.496 274.87C271.09 275.302 270.6 275.645 270.057 275.879C269.513 276.114 268.927 276.234 268.335 276.233V276.233Z" fill="black"/>
<path opacity="0.3" d="M290.342 417.555H201.708C199.609 417.53 197.597 416.711 196.076 415.263C194.556 413.815 193.638 411.845 193.507 409.748L192.988 399.506C192.936 398.499 193.089 397.493 193.438 396.547C193.787 395.602 194.325 394.737 195.018 394.007C195.712 393.276 196.547 392.695 197.473 392.298C198.399 391.901 199.396 391.697 200.403 391.698H289.007C291.106 391.724 293.118 392.543 294.638 393.991C296.159 395.439 297.077 397.409 297.208 399.506L297.727 409.748C297.779 410.752 297.627 411.756 297.28 412.7C296.932 413.643 296.397 414.506 295.707 415.236C295.016 415.966 294.184 416.548 293.262 416.947C292.34 417.346 291.346 417.553 290.342 417.555V417.555Z" fill="black"/>
<path d="M314.306 367.905H172.627C171.394 367.888 170.213 367.407 169.32 366.557C168.426 365.706 167.886 364.55 167.808 363.318L166.74 342.537C166.703 341.946 166.789 341.353 166.991 340.795C167.193 340.238 167.508 339.728 167.916 339.298C168.323 338.868 168.815 338.526 169.36 338.294C169.906 338.063 170.493 337.946 171.085 337.951H312.749C313.983 337.964 315.166 338.444 316.06 339.295C316.955 340.146 317.493 341.305 317.568 342.537L318.651 363.318C318.685 363.909 318.598 364.501 318.395 365.058C318.192 365.614 317.877 366.123 317.47 366.553C317.063 366.982 316.572 367.324 316.028 367.557C315.484 367.789 314.898 367.908 314.306 367.905V367.905Z" fill="white"/>
<path d="M188.02 302.669C188.061 303.325 187.966 303.982 187.742 304.599C187.517 305.217 187.168 305.782 186.716 306.258C186.263 306.735 185.718 307.113 185.113 307.368C184.508 307.624 183.857 307.752 183.201 307.745C181.837 307.729 180.529 307.196 179.542 306.254C178.554 305.313 177.959 304.032 177.877 302.669C177.834 302.013 177.927 301.356 178.149 300.739C178.372 300.121 178.72 299.556 179.171 299.08C179.622 298.603 180.167 298.225 180.771 297.969C181.375 297.713 182.026 297.585 182.682 297.592C184.047 297.608 185.356 298.14 186.346 299.082C187.336 300.023 187.934 301.304 188.02 302.669V302.669Z" fill="#263238"/>
<path d="M203.635 302.669C203.678 303.324 203.585 303.981 203.363 304.598C203.14 305.216 202.792 305.781 202.341 306.258C201.89 306.734 201.345 307.112 200.741 307.368C200.137 307.624 199.487 307.753 198.831 307.745C197.466 307.732 196.156 307.201 195.168 306.258C194.18 305.316 193.586 304.033 193.507 302.669C193.464 302.013 193.557 301.356 193.779 300.739C194.002 300.121 194.35 299.556 194.801 299.08C195.252 298.603 195.797 298.225 196.401 297.969C197.005 297.713 197.656 297.585 198.312 297.592C199.677 297.605 200.986 298.136 201.974 299.079C202.963 300.021 203.556 301.305 203.635 302.669V302.669Z" fill="#263238"/>
<path d="M219.161 302.669C219.204 303.324 219.112 303.981 218.889 304.598C218.666 305.216 218.318 305.781 217.867 306.258C217.416 306.734 216.871 307.112 216.267 307.368C215.663 307.624 215.013 307.753 214.357 307.745C212.991 307.729 211.682 307.197 210.692 306.255C209.702 305.314 209.104 304.033 209.018 302.669C208.977 302.013 209.072 301.355 209.297 300.738C209.521 300.12 209.87 299.555 210.323 299.079C210.775 298.603 211.321 298.225 211.925 297.969C212.53 297.713 213.181 297.585 213.838 297.592C215.202 297.608 216.509 298.141 217.497 299.083C218.484 300.025 219.079 301.306 219.161 302.669Z" fill="#263238"/>
<path d="M234.806 302.669C234.847 303.323 234.753 303.979 234.529 304.596C234.306 305.213 233.958 305.777 233.507 306.253C233.056 306.729 232.513 307.107 231.91 307.364C231.307 307.621 230.657 307.75 230.002 307.745C228.636 307.729 227.327 307.197 226.337 306.255C225.347 305.314 224.749 304.033 224.663 302.669C224.623 302.014 224.717 301.358 224.94 300.741C225.164 300.125 225.512 299.561 225.963 299.084C226.413 298.608 226.957 298.23 227.56 297.973C228.163 297.717 228.813 297.587 229.468 297.592C230.833 297.608 232.142 298.14 233.133 299.082C234.123 300.023 234.721 301.304 234.806 302.669V302.669Z" fill="#263238"/>
<path d="M190.645 352.898C190.688 353.553 190.595 354.21 190.372 354.828C190.15 355.445 189.802 356.01 189.351 356.487C188.899 356.964 188.355 357.342 187.751 357.598C187.147 357.854 186.496 357.982 185.84 357.974C184.475 357.958 183.166 357.426 182.176 356.485C181.186 355.543 180.588 354.262 180.502 352.898C180.461 352.242 180.556 351.585 180.78 350.967C181.004 350.35 181.354 349.785 181.806 349.308C182.258 348.832 182.804 348.454 183.409 348.198C184.014 347.942 184.665 347.814 185.321 347.822C186.685 347.838 187.992 348.37 188.98 349.312C189.968 350.254 190.563 351.535 190.645 352.898Z" fill="#263238"/>
<path d="M206.23 352.898C206.271 353.553 206.177 354.209 205.953 354.825C205.73 355.442 205.382 356.006 204.931 356.482C204.48 356.958 203.936 357.337 203.333 357.593C202.73 357.85 202.081 357.98 201.426 357.974C200.06 357.958 198.751 357.426 197.761 356.485C196.771 355.543 196.173 354.262 196.087 352.898C196.044 352.243 196.137 351.586 196.36 350.968C196.582 350.351 196.93 349.786 197.381 349.309C197.833 348.832 198.377 348.454 198.981 348.198C199.585 347.942 200.236 347.814 200.892 347.822C202.257 347.838 203.566 348.37 204.556 349.311C205.546 350.253 206.144 351.534 206.23 352.898Z" fill="#263238"/>
<path d="M221.816 352.898C221.857 353.554 221.762 354.211 221.538 354.829C221.313 355.447 220.964 356.011 220.512 356.488C220.059 356.964 219.514 357.342 218.909 357.598C218.304 357.854 217.653 357.982 216.996 357.974C215.631 357.962 214.322 357.43 213.334 356.488C212.345 355.545 211.752 354.262 211.673 352.898C211.63 352.243 211.723 351.586 211.945 350.968C212.168 350.351 212.516 349.786 212.967 349.309C213.418 348.832 213.963 348.454 214.567 348.198C215.171 347.942 215.821 347.814 216.477 347.822C217.843 347.838 219.152 348.37 220.142 349.311C221.132 350.253 221.73 351.534 221.816 352.898Z" fill="#263238"/>
<path d="M237.387 352.898C237.43 353.553 237.337 354.21 237.114 354.828C236.891 355.445 236.544 356.01 236.092 356.487C235.641 356.964 235.097 357.342 234.492 357.598C233.888 357.854 233.238 357.982 232.582 357.974C231.217 357.958 229.908 357.426 228.917 356.485C227.927 355.543 227.329 354.262 227.243 352.898C227.203 352.242 227.297 351.585 227.522 350.967C227.746 350.35 228.096 349.785 228.548 349.308C229 348.832 229.546 348.454 230.151 348.198C230.755 347.942 231.406 347.814 232.063 347.822C233.428 347.834 234.737 348.366 235.726 349.308C236.714 350.251 237.308 351.534 237.387 352.898Z" fill="#263238"/>
<path d="M252.972 352.898C253.015 353.553 252.922 354.21 252.7 354.828C252.477 355.445 252.129 356.01 251.678 356.487C251.227 356.964 250.682 357.342 250.078 357.598C249.474 357.854 248.824 357.982 248.168 357.975C246.802 357.958 245.493 357.426 244.503 356.485C243.513 355.544 242.915 354.262 242.829 352.898C242.788 352.243 242.883 351.587 243.106 350.971C243.33 350.354 243.678 349.79 244.128 349.314C244.579 348.838 245.123 348.46 245.726 348.203C246.329 347.946 246.978 347.816 247.634 347.822C248.999 347.838 250.308 348.37 251.298 349.311C252.288 350.253 252.886 351.534 252.972 352.898Z" fill="#263238"/>
<path d="M268.558 352.898C268.599 353.554 268.504 354.211 268.279 354.829C268.055 355.447 267.706 356.011 267.253 356.488C266.801 356.964 266.255 357.342 265.651 357.598C265.046 357.854 264.395 357.982 263.738 357.974C262.374 357.958 261.067 357.426 260.079 356.484C259.092 355.542 258.497 354.261 258.415 352.898C258.372 352.243 258.464 351.586 258.687 350.968C258.91 350.351 259.258 349.786 259.709 349.309C260.16 348.832 260.705 348.454 261.309 348.198C261.913 347.942 262.563 347.814 263.219 347.822C264.585 347.838 265.894 348.37 266.884 349.311C267.874 350.253 268.472 351.534 268.558 352.898V352.898Z" fill="#263238"/>
<path d="M437.151 180.524C437.522 181.088 437.715 181.385 437.952 181.785L438.62 182.884C439.05 183.626 439.435 184.368 439.806 185.095C440.547 186.58 441.289 188.064 441.882 189.548C443.125 192.496 444.195 195.515 445.085 198.588C446.881 204.659 448.063 210.894 448.615 217.201L448.718 218.374C448.731 218.611 448.731 218.849 448.718 219.086V219.873C448.743 220.905 448.683 221.938 448.54 222.961C448.256 224.856 447.759 226.713 447.057 228.497C445.755 231.683 444.029 234.679 441.926 237.403C438.005 242.43 433.351 246.838 428.12 250.48L424.028 245.686C427.752 241.475 431.05 236.906 433.874 232.045C435.145 229.839 436.141 227.486 436.84 225.039C437.123 224.002 437.287 222.936 437.329 221.862C437.375 221.403 437.375 220.941 437.329 220.482V220.17C437.344 220.032 437.344 219.893 437.329 219.754L437.151 218.715C436.198 213.183 434.85 207.727 433.118 202.388C432.258 199.731 431.205 197.163 430.152 194.654C429.633 193.393 429.04 192.161 428.447 190.973L427.527 189.222L427.068 188.405L426.682 187.752L437.151 180.524Z" fill="#803E3C"/>
<path d="M423.36 250.51L428.728 261.865L432.984 252.261C432.984 252.261 429.203 243.949 424.087 244.721L423.36 250.51Z" fill="#7F3E3B"/>
<path d="M432.569 262.429L436.84 255.423L432.985 252.261L428.729 261.865L432.569 262.429Z" fill="#7F3E3B"/>
<path d="M408.427 524.293C409.537 524.266 410.641 524.116 411.719 523.848C411.774 523.831 411.823 523.801 411.862 523.759C411.901 523.717 411.929 523.666 411.942 523.611C411.951 523.553 411.943 523.495 411.919 523.442C411.896 523.389 411.857 523.345 411.808 523.314C411.378 523.032 407.612 520.597 406.158 521.25C405.997 521.326 405.859 521.442 405.757 521.588C405.656 521.734 405.595 521.904 405.58 522.082C405.535 522.35 405.556 522.626 405.641 522.884C405.727 523.143 405.873 523.377 406.069 523.566C406.742 524.086 407.579 524.344 408.427 524.293V524.293ZM410.874 523.418C408.724 523.863 407.092 523.789 406.425 523.21C406.289 523.074 406.189 522.907 406.135 522.723C406.08 522.539 406.073 522.344 406.114 522.156C406.114 521.904 406.262 521.829 406.366 521.785C407.167 521.429 409.347 522.482 410.874 523.418V523.418Z" fill="#6C63FF"/>
<path d="M411.645 523.848H411.793C411.838 523.819 411.875 523.779 411.901 523.733C411.926 523.686 411.941 523.634 411.942 523.581C411.942 523.432 411.942 519.855 410.577 518.653C410.41 518.502 410.212 518.389 409.997 518.323C409.782 518.256 409.555 518.237 409.332 518.267C409.098 518.269 408.872 518.351 408.691 518.499C408.51 518.648 408.386 518.854 408.338 519.083C408.056 520.493 410.31 523.165 411.497 523.848H411.645ZM409.524 518.816C409.644 518.812 409.764 518.833 409.876 518.876C409.988 518.92 410.09 518.985 410.177 519.068C410.959 520.223 411.363 521.592 411.334 522.987C410.147 522.037 408.738 520.018 408.916 519.172C408.916 519.039 409.02 518.86 409.391 518.816H409.524Z" fill="#6C63FF"/>
<path d="M394.428 518.237C394.463 518.194 394.486 518.142 394.494 518.086C394.502 518.031 394.495 517.975 394.473 517.924C394.452 517.872 394.418 517.827 394.373 517.793C394.329 517.76 394.276 517.739 394.221 517.732C393.613 517.732 388.289 517.48 387.073 518.786V518.875C386.973 519.004 386.907 519.156 386.884 519.318C386.861 519.479 386.88 519.644 386.94 519.796C387.019 520.051 387.159 520.282 387.347 520.471C387.536 520.66 387.767 520.8 388.022 520.879C389.742 521.414 392.782 519.469 394.443 518.267L394.428 518.237ZM387.518 519.172C388.185 518.46 391.121 518.267 393.316 518.297C391.018 519.87 389.105 520.612 388.141 520.315C387.973 520.264 387.82 520.172 387.696 520.048C387.572 519.924 387.48 519.771 387.429 519.603C387.399 519.545 387.383 519.482 387.383 519.417C387.383 519.353 387.399 519.289 387.429 519.232L387.518 519.172Z" fill="#6C63FF"/>
<path d="M394.428 518.237C394.451 518.191 394.462 518.14 394.462 518.089C394.462 518.038 394.451 517.987 394.428 517.94C394.354 517.822 392.693 514.972 390.736 514.378C390.455 514.296 390.16 514.272 389.869 514.307C389.579 514.343 389.298 514.438 389.045 514.586C388.334 515.001 388.289 515.491 388.378 515.803C388.764 517.183 392.545 518.401 394.176 518.386C394.228 518.385 394.278 518.371 394.322 518.345C394.366 518.319 394.403 518.282 394.428 518.237ZM389.105 515.269C389.188 515.187 389.283 515.117 389.386 515.061C389.57 514.944 389.776 514.869 389.991 514.841C390.206 514.812 390.425 514.832 390.632 514.898C391.922 515.239 393.123 516.901 393.672 517.718C391.907 517.525 389.223 516.441 389.001 515.61C388.982 515.547 388.982 515.48 389 515.417C389.019 515.353 389.055 515.297 389.105 515.254V515.269Z" fill="#6C63FF"/>
<path d="M410.755 137.048C409.273 144.469 406.069 160.515 411.215 165.443C411.215 165.443 409.198 172.865 395.511 172.865C380.444 172.865 388.319 165.443 388.319 165.443C396.534 163.484 396.327 157.368 394.888 151.639L410.755 137.048Z" fill="#7F3E3B"/>
<path d="M385.664 119.652C385.748 119.665 385.833 119.665 385.917 119.652C385.987 119.617 386.05 119.569 386.101 119.509C386.153 119.45 386.192 119.381 386.217 119.307C386.242 119.232 386.252 119.153 386.246 119.075C386.24 118.997 386.219 118.92 386.183 118.85C385.785 118.003 385.189 117.265 384.445 116.697C383.702 116.128 382.834 115.747 381.913 115.585C381.758 115.572 381.605 115.618 381.483 115.715C381.362 115.811 381.282 115.951 381.26 116.104C381.243 116.259 381.289 116.415 381.386 116.537C381.483 116.66 381.624 116.739 381.779 116.757V116.757C382.506 116.897 383.19 117.208 383.772 117.665C384.355 118.122 384.821 118.711 385.131 119.384C385.188 119.472 385.268 119.543 385.361 119.59C385.455 119.637 385.56 119.658 385.664 119.652Z" fill="#263238"/>
<path d="M381.171 126.168C380.004 128.334 378.547 130.332 376.841 132.105C377.303 132.528 377.851 132.845 378.448 133.035C379.044 133.225 379.675 133.282 380.296 133.203L381.171 126.168Z" fill="#630F0F"/>
<path d="M382.283 124.49C382.165 125.485 381.527 126.227 380.889 126.153C380.252 126.079 379.807 125.203 379.925 124.208C380.044 123.214 380.682 122.472 381.408 122.546C382.135 122.62 382.387 123.496 382.283 124.49Z" fill="#263238"/>
<path d="M381.601 122.635L379.317 121.715C379.317 121.715 380.281 123.674 381.601 122.635Z" fill="#263238"/>
<path d="M407.523 515.417L395.422 518.237L388.067 490.391L400.167 487.571L407.523 515.417Z" fill="#7F3E3B"/>
<path d="M426.089 523.551H413.677L414.641 494.77H427.068L426.089 523.551Z" fill="#7F3E3B"/>
<path d="M412.683 522.111H426.638C426.879 522.109 427.114 522.195 427.297 522.354C427.48 522.512 427.599 522.732 427.631 522.972L429.218 534.016C429.249 534.295 429.221 534.578 429.136 534.845C429.05 535.113 428.908 535.359 428.721 535.568C428.533 535.777 428.303 535.944 428.046 536.058C427.789 536.171 427.511 536.229 427.231 536.227C422.367 536.153 420.024 535.856 413.884 535.856C410.103 535.856 404.586 536.257 399.381 536.257C394.176 536.257 393.88 531.092 396.06 530.631C405.788 528.524 407.33 525.644 410.607 522.883C411.186 522.388 411.922 522.115 412.683 522.111Z" fill="#263238"/>
<path d="M394.354 516.382L407.033 510.548C407.249 510.445 407.494 510.425 407.723 510.491C407.953 510.556 408.15 510.703 408.279 510.905L414.344 520.285C414.486 520.527 414.575 520.795 414.607 521.074C414.638 521.352 414.611 521.633 414.528 521.901C414.444 522.168 414.305 522.414 414.12 522.624C413.935 522.834 413.708 523.003 413.454 523.12C409.005 525.08 406.751 525.807 401.176 528.375C397.75 529.948 390.795 533.57 386.079 535.797C381.364 538.023 378.932 533.407 380.711 532.071C388.675 526.134 390.958 521.874 392.782 518C393.091 517.286 393.65 516.71 394.354 516.382V516.382Z" fill="#263238"/>
<path opacity="0.2" d="M388.067 490.391L392.011 505.324L403.964 501.924L400.182 487.571L388.067 490.391Z" fill="black"/>
<path opacity="0.2" d="M427.068 494.77H414.641L414.151 509.613H426.578L427.068 494.77Z" fill="black"/>
<path d="M432.703 168.263C437.863 169.406 443.38 187.975 443.38 187.975L428.788 203.516C428.788 203.516 416.672 186.06 419.149 179.648C421.655 172.954 426.548 166.927 432.703 168.263Z" fill="#263238"/>
<path opacity="0.4" d="M424.458 180.093C421.848 177.704 420.083 178.416 418.882 180.316C417.695 185.838 424.724 197.401 427.557 201.779C428.862 196.554 430.36 185.541 424.458 180.093Z" fill="black"/>
<path d="M367.321 168.634C367.321 168.634 361.389 170.712 373.252 243.667H423.672C422.826 223.124 422.797 210.448 432.569 168.263C425.504 166.804 418.343 165.861 411.141 165.443C403.519 164.893 395.867 164.893 388.245 165.443C378.472 166.348 367.321 168.634 367.321 168.634Z" fill="#263238"/>
<path opacity="0.4" d="M366.861 196.629C367.187 200.176 367.617 204.169 368.18 208.681C372.318 204.956 375.699 194.358 374.453 188.183C371.497 190.584 368.936 193.434 366.861 196.629Z" fill="black"/>
<path d="M372.259 185.541C369.538 192.395 366.474 199.108 363.079 205.653C359.723 212.435 355.752 218.895 351.216 224.95L350.267 226.122L349.792 226.701C349.629 226.894 349.496 227.072 349.244 227.339C348.351 228.314 347.357 229.19 346.278 229.952C344.37 231.273 342.283 232.313 340.079 233.039C336.236 234.268 332.246 234.976 328.216 235.147C320.667 235.447 313.111 234.774 305.735 233.143L306.55 226.909C309.961 226.909 313.535 226.909 316.931 226.627C320.341 226.459 323.739 226.082 327.104 225.499C330.229 225.011 333.285 224.154 336.209 222.946C337.389 222.441 338.493 221.771 339.486 220.957C339.865 220.639 340.208 220.281 340.509 219.888C340.509 219.888 340.687 219.65 340.806 219.487L341.147 218.997L341.844 218.018C345.565 212.265 348.88 206.258 351.765 200.043C354.73 193.734 357.696 187.188 360.41 180.746L372.259 185.541Z" fill="#803E3C"/>
<path d="M367.32 168.634C361.137 170.119 353.544 187.099 353.544 187.099L366.357 205.95C366.357 205.95 383.425 184.442 381.393 177.882C379.317 171.039 374.869 166.794 367.32 168.634Z" fill="#263238"/>
<path d="M310.109 227.859L299.417 222.916L298.35 233.559C298.35 233.559 307.247 236.186 311.696 233.559L310.109 227.859Z" fill="#7F3E3B"/>
<path d="M293.026 221.847L292.003 229.952L298.35 233.559L299.417 222.916L293.026 221.847Z" fill="#7F3E3B"/>
<path d="M416.124 125.218C413.855 137.345 413.158 142.54 406.218 148.047C395.837 156.329 381.379 150.897 379.985 138.339C378.709 127.029 382.624 109.098 395.185 105.684C397.951 104.92 400.868 104.878 403.655 105.562C406.443 106.247 409.009 107.634 411.108 109.593C413.208 111.552 414.771 114.016 415.649 116.752C416.527 119.487 416.691 122.401 416.124 125.218V125.218Z" fill="#7F3E3B"/>
<path d="M389.505 127.771C388.808 133.96 388.541 150.036 402.125 150.54C418.748 151.149 423.731 136.929 422.248 131.244C430.908 124.194 432.154 112.067 422.426 102.79C412.698 93.5126 391.285 98.6929 385.353 107.732C377.834 118.939 389.505 127.771 389.505 127.771Z" fill="#263238"/>
<path d="M406.158 106.396C405.358 99.8654 405.98 95.3679 412.09 95.3679C418.2 95.3679 426.534 97.5796 429.589 103.829C432.643 110.078 432.895 119.859 424.369 118.865C415.842 117.87 407.122 114.204 406.158 106.396Z" fill="#6C63FF"/>
<path d="M415.619 104.823C414.136 97.0453 421.091 75.1367 437.982 73.6524C445.812 72.9844 449.43 81.4154 445.396 82.8106C452.811 82.7216 457.556 92.533 450.646 94.0024C456.103 97.5055 454.754 104.69 446.968 108.222C441.17 110.894 417.621 115.599 415.619 104.823Z" fill="#263238"/>
<path d="M433.666 113.18C428.224 113.18 422.544 112.378 419.015 110.018C418.028 109.423 417.198 108.601 416.591 107.62C415.985 106.639 415.622 105.528 415.53 104.378C415.526 104.28 415.559 104.185 415.622 104.11C415.685 104.036 415.774 103.988 415.871 103.977C415.92 103.971 415.97 103.975 416.018 103.989C416.065 104.003 416.109 104.027 416.147 104.059C416.184 104.091 416.215 104.131 416.237 104.176C416.258 104.22 416.27 104.269 416.272 104.319C416.361 105.356 416.694 106.358 417.243 107.242C417.791 108.127 418.541 108.87 419.43 109.41C426.148 113.863 441.674 112.378 446.509 110.894C450.69 109.529 453.523 106.872 454.086 103.814C454.262 102.692 454.124 101.543 453.686 100.495C453.249 99.4468 452.53 98.5405 451.61 97.8766C451.574 97.8432 451.546 97.803 451.527 97.7583C451.507 97.7136 451.498 97.6655 451.498 97.6168C451.498 97.5681 451.507 97.52 451.527 97.4753C451.546 97.4306 451.574 97.3904 451.61 97.357C451.679 97.289 451.772 97.251 451.869 97.251C451.966 97.251 452.06 97.289 452.129 97.357C453.164 98.113 453.969 99.1422 454.453 100.33C454.938 101.517 455.083 102.816 454.872 104.081C454.264 107.421 451.254 110.271 446.805 111.725C442.513 112.808 438.092 113.298 433.666 113.18V113.18Z" fill="#263238"/>
<path d="M385.724 126.168C384.343 128.107 383.773 130.509 384.137 132.862C384.626 135.979 387.651 136.187 389.846 134.198C392.041 132.209 393.954 128.617 392.337 126.034C391.978 125.476 391.482 125.02 390.897 124.708C390.312 124.396 389.656 124.239 388.993 124.253C388.33 124.266 387.682 124.449 387.109 124.784C386.537 125.12 386.06 125.596 385.724 126.168Z" fill="#7F3E3B"/>
<path d="M386.569 243.667C386.569 243.667 393.776 329.001 401.265 377.093C407.3 415.938 412.075 506.734 412.075 506.734H429.01C429.01 506.734 435.031 418.654 431.976 380.24C424.22 283.016 441.526 275.09 423.716 243.682L386.569 243.667Z" fill="#6C63FF"/>
<path opacity="0.4" d="M407.893 275.921C401.182 282.972 395.765 291.152 391.892 300.086C393.865 319.264 396.208 340.549 398.699 359.192C408.922 332.702 412.09 304.007 407.893 275.921V275.921Z" fill="black"/>
<path d="M374.72 243.133C374.72 243.133 359.075 336.333 356.614 378.34C362.753 417.184 387.874 499.297 387.874 499.297L403.281 493.701C403.281 493.701 394.754 404.167 385.486 379.661C406.351 309.348 421.684 291.566 417.221 243.667C406.529 243.667 374.72 243.133 374.72 243.133Z" fill="#6C63FF"/>
<path d="M385.813 503.394L406.633 497.739L405.446 489.427L383.158 495.468L385.813 503.394Z" fill="#263238"/>
<path d="M409.747 507.075H431.323L432.45 499.505L409.628 498.733L409.747 507.075Z" fill="#263238"/>
<path d="M424.458 240.698L426.726 245.225C426.904 245.582 426.489 245.938 425.911 245.938H373C372.555 245.938 372.17 245.715 372.14 245.418L371.68 240.965C371.68 240.654 372.051 240.387 372.54 240.387H423.627C423.781 240.366 423.937 240.383 424.082 240.437C424.227 240.492 424.356 240.581 424.458 240.698V240.698Z" fill="#6C63FF"/>
<path opacity="0.5" d="M424.458 240.698L426.726 245.225C426.904 245.582 426.489 245.938 425.911 245.938H373C372.555 245.938 372.17 245.715 372.14 245.418L371.68 240.965C371.68 240.654 372.051 240.387 372.54 240.387H423.627C423.781 240.366 423.937 240.383 424.082 240.437C424.227 240.492 424.356 240.581 424.458 240.698V240.698Z" fill="black"/>
<path d="M417.592 246.398H418.956C419.238 246.398 419.445 246.25 419.431 246.086L418.778 240.149C418.778 239.971 418.526 239.837 418.259 239.837H416.88C416.613 239.837 416.405 239.971 416.42 240.149L417.058 246.086C417.088 246.279 417.325 246.398 417.592 246.398Z" fill="#6C63FF"/>
<path d="M399.233 203.174C399.069 203.172 398.911 203.117 398.78 203.019C398.65 202.92 398.554 202.782 398.507 202.625C393.672 184.724 383.677 169.97 378.828 167.744C378.451 167.512 377.999 167.437 377.568 167.536C377.478 167.583 377.38 167.611 377.279 167.619C377.178 167.627 377.077 167.614 376.981 167.581C376.885 167.548 376.797 167.496 376.722 167.428C376.648 167.359 376.588 167.276 376.546 167.184C376.504 167.092 376.482 166.992 376.481 166.89C376.479 166.789 376.498 166.689 376.537 166.595C376.576 166.501 376.633 166.417 376.706 166.346C376.779 166.276 376.865 166.221 376.96 166.185C377.365 166.036 377.798 165.977 378.228 166.013C378.659 166.049 379.076 166.179 379.451 166.393C384.582 168.827 394.725 183.374 399.797 201.675C403.43 201.675 409.035 201.185 410.4 201.067C412.09 199.048 424.517 183.492 419.875 166.467C419.849 166.374 419.841 166.276 419.853 166.179C419.864 166.082 419.895 165.989 419.944 165.904C419.992 165.82 420.057 165.746 420.134 165.687C420.212 165.628 420.3 165.586 420.395 165.562C420.583 165.512 420.784 165.538 420.953 165.635C421.123 165.733 421.247 165.893 421.299 166.081C426.474 185.021 411.467 202.106 411.304 202.269C411.246 202.341 411.174 202.401 411.093 202.444C411.011 202.487 410.922 202.514 410.83 202.521C410.755 202.521 403.356 203.174 399.233 203.174Z" fill="#6C63FF"/>
<path d="M423.805 213.654C415.723 198.499 412.416 197.43 410.978 192.562C412.068 189.839 413.623 187.328 415.575 185.14C414.596 184.858 412.49 184.442 411.126 184.19C411.274 183.522 411.438 182.869 411.586 182.231C410.101 182.065 408.6 182.135 407.137 182.439V180.954C405.253 180.544 403.319 180.419 401.398 180.583C401.566 181.286 401.729 181.998 401.887 182.721C400.405 183.003 398.151 183.463 397.068 183.774C399.171 186.159 400.717 188.984 401.591 192.042C397.231 199.538 380.296 247.719 407.849 251.415C435.402 255.111 431.872 228.824 423.805 213.654Z" fill="#6C63FF"/>
<path opacity="0.4" d="M423.805 213.654C415.723 198.499 412.416 197.43 410.978 192.562C412.068 189.839 413.623 187.328 415.575 185.14C414.596 184.858 412.49 184.442 411.126 184.19C411.274 183.522 411.438 182.869 411.586 182.231C410.101 182.065 408.6 182.135 407.137 182.439V180.954C405.253 180.544 403.319 180.419 401.398 180.583C401.566 181.286 401.729 181.998 401.887 182.721C400.405 183.003 398.151 183.463 397.068 183.774C399.171 186.159 400.717 188.984 401.591 192.042C397.231 199.538 380.296 247.719 407.849 251.415C435.402 255.111 431.872 228.824 423.805 213.654Z" fill="white"/>
<path d="M400.464 190.602C400.292 191.367 400.218 192.15 400.241 192.933C400.241 193.482 401.724 193.853 403.37 194.016C405.016 194.18 411.927 194.447 411.704 193.675C411.482 192.903 412.045 191.849 412.075 191.196C412.105 190.543 409.332 190.513 407.004 190.602C404.675 190.691 400.924 189.771 400.464 190.602Z" fill="#6C63FF"/>
<path d="M384.433 246.398H385.798C386.065 246.398 386.272 246.25 386.257 246.086L385.62 240.149C385.62 239.971 385.368 239.837 385.086 239.837H383.766C383.499 239.837 383.292 239.971 383.306 240.149L383.944 246.086C383.914 246.279 384.152 246.398 384.433 246.398Z" fill="#6C63FF"/>
</svg>
