<svg width="176" height="34" viewBox="0 0 176 34" fill="none" xmlns="http://www.w3.org/2000/svg">
<path d="M16.1821 6.952L21.8551 13.2927C22.0625 13.5244 22.3436 13.6546 22.6368 13.6546H30.6993V30.5274H1.30084V13.6545H9.36334C9.65653 13.6545 9.93766 13.5243 10.145 13.2926L15.818 6.95193C15.9185 6.83956 16.0815 6.83956 16.1821 6.952Z" fill="#EAB14D"/>
<path d="M22.6367 13.6545C22.3435 13.6545 22.0624 13.5243 21.855 13.2926L16.1821 6.95194C16.0815 6.83957 15.9185 6.83957 15.818 6.95194L10.145 13.2926C9.93766 13.5243 9.65653 13.6545 9.36334 13.6545H1.30084V15.2545H9.3659C10.0435 15.2545 10.6806 14.9595 11.1595 14.4238L15.5402 9.52544C15.7942 9.24142 16.206 9.24142 16.46 9.52544L20.8405 14.4237C21.3196 14.9595 21.9567 15.2545 22.6342 15.2545H28.618C28.9772 15.2545 29.2684 15.5801 29.2684 15.9818V30.5273H30.6993V13.6545H22.6367Z" fill="#E7A52E"/>
<path d="M15.2182 4.12574C15.65 3.64289 16.3501 3.64289 16.7818 4.12574L23.0921 11.1818H30.6991L27.632 1.94808C27.4427 1.37816 26.9563 1 26.4126 1H5.58744C5.04369 1 4.55731 1.37816 4.368 1.94808L1.30081 11.1818H8.90781L15.2182 4.12574Z" fill="#5E54AC"/>
<path d="M27.632 1.94808C27.4427 1.37816 26.9563 1 26.4126 1H24.4613C25.0051 1 25.4914 1.37816 25.6808 1.94808L28.748 11.1818H30.6992L27.632 1.94808Z" fill="#524798"/>
<path d="M32 12.9273C32 13.329 31.7088 13.6546 31.3496 13.6546H22.6341C22.3409 13.6546 22.0596 13.5243 21.8523 13.2925L16.1821 6.95218C16.0816 6.83973 15.9185 6.83973 15.8179 6.95218L10.1477 13.2925C9.94038 13.5244 9.65913 13.6546 9.36588 13.6546H0.650437C0.291187 13.6546 0 13.329 0 12.9273V11.9091C0 11.5075 0.291187 11.1819 0.650375 11.1819H8.90781L15.2182 4.12576C15.65 3.64291 16.3501 3.64291 16.7818 4.12576L23.0921 11.1818H31.3496C31.7087 11.1818 31.9999 11.5074 31.9999 11.9091V12.9273H32Z" fill="#E7ECF6"/>
<path d="M31.3496 11.1818H29.1382C29.4974 11.1818 29.7886 11.5074 29.7886 11.9091V12.9272C29.7886 13.3289 29.4974 13.6545 29.1382 13.6545H31.3496C31.7088 13.6545 32 13.3289 32 12.9272V11.9091C32 11.5074 31.7088 11.1818 31.3496 11.1818Z" fill="#D8E2F1"/>
<path d="M22.0487 19.7563V26.3091H28.5528V19.7563C28.5528 19.3587 28.2645 19.0363 27.9089 19.0363H22.6926C22.337 19.0363 22.0487 19.3587 22.0487 19.7563Z" fill="#9DC6FB"/>
<path d="M22.0487 26.3091V27.9164C22.0487 28.314 22.337 28.6364 22.6926 28.6364H27.9089C28.2645 28.6364 28.5528 28.314 28.5528 27.9164V26.3091H22.0487Z" fill="#AA8080"/>
<path d="M9.95126 19.7563V26.3091H3.44714V19.7563C3.44714 19.3587 3.73539 19.0363 4.09102 19.0363H9.30733C9.66295 19.0363 9.95126 19.3587 9.95126 19.7563Z" fill="#9DC6FB"/>
<path d="M9.95126 26.3091V27.9164C9.95126 28.314 9.66301 28.6364 9.30739 28.6364H4.09102C3.73539 28.6364 3.44714 28.314 3.44714 27.9164V26.3091H9.95126Z" fill="#AA8080"/>
<path d="M19.6423 19.756V30.5272H12.3577V26.0491L12.6886 25.5092L12.3577 24.9692V19.7561C12.3577 19.3584 12.6459 19.0361 13.0015 19.0361H18.9985C19.354 19.0361 19.6423 19.3584 19.6423 19.756Z" fill="#8B5E5E"/>
<path d="M14.439 23.2589V21.7956C14.439 21.557 14.612 21.3636 14.8253 21.3636H17.1747C17.388 21.3636 17.561 21.557 17.561 21.7956V23.2589C17.561 23.4975 17.388 23.6909 17.1747 23.6909H14.8253C14.612 23.6909 14.439 23.4975 14.439 23.2589Z" fill="#9DC6FB"/>
<path d="M16 16.3455C17.1495 16.3455 18.0813 15.3035 18.0813 14.0182C18.0813 12.7328 17.1495 11.6909 16 11.6909C14.8505 11.6909 13.9187 12.7328 13.9187 14.0182C13.9187 15.3035 14.8505 16.3455 16 16.3455Z" fill="#9DC6FB"/>
<path d="M31.3561 33H0.643875C0.28825 33 0 32.6777 0 32.28V31.2473C0 30.8496 0.28825 30.5273 0.643875 30.5273H31.3561C31.7118 30.5273 32 30.8496 32 31.2473V32.28C32 32.6777 31.7118 33 31.3561 33Z" fill="#5E54AC"/>
<path d="M29.7886 30.5273V33H31.3561C31.7118 33 32 32.6777 32 32.28V31.2473C32 30.8496 31.7118 30.5273 31.3561 30.5273H29.7886Z" fill="#524798"/>
<path d="M28.5529 22.1327H25.7837V19.0363H24.8179V22.1327H22.0488V23.2127H24.8179V26.3091H25.7837V23.2127H28.5529V22.1327Z" fill="#80B4FB"/>
<path d="M9.95126 22.1327H9.9512H7.18214V19.0363H6.21633V22.1327H3.44714V23.2127H6.21633V26.3091H7.18214V23.2127H9.9512H9.95126V22.1327Z" fill="#80B4FB"/>
<path d="M12.3577 24.9691H13.5284C13.7952 24.9691 14.0113 25.2109 14.0113 25.5091C14.0113 25.8073 13.7951 26.049 13.5284 26.049H12.3577V24.9691Z" fill="#FFD064"/>
<path d="M99.104 17.528C99.168 17.464 99.264 17.432 99.392 17.432C99.5627 17.432 99.648 17.496 99.648 17.624C99.648 17.6667 99.6267 17.72 99.584 17.784C98.8373 18.872 98.2933 19.9707 97.952 21.08C97.6107 22.1893 97.44 23.2773 97.44 24.344C97.44 25.3467 97.5787 26.296 97.856 27.192C98.1333 28.088 98.5067 28.8667 98.976 29.528C99.4667 30.2107 100.032 30.744 100.672 31.128C101.333 31.512 102.048 31.704 102.816 31.704C103.989 31.704 105.109 31.2667 106.176 30.392C107.243 29.5387 108.245 28.408 109.184 27C110.144 25.6133 111.029 24.024 111.84 22.232C112.672 20.44 113.419 18.616 114.08 16.76C114.741 14.904 115.328 13.0907 115.84 11.32C116.352 9.54933 116.779 7.98133 117.12 6.616C117.483 5.22933 117.739 4.13067 117.888 3.32C118.059 2.50933 118.133 2.136 118.112 2.2C118.219 1.96533 118.421 1.79467 118.72 1.688C119.019 1.56 119.339 1.496 119.68 1.496C120.128 1.496 120.533 1.592 120.896 1.784C121.28 1.976 121.472 2.25333 121.472 2.616C121.472 3.66133 121.461 4.792 121.44 6.008C121.419 7.20267 121.387 8.42933 121.344 9.688C121.323 10.9467 121.301 12.216 121.28 13.496C121.259 14.7547 121.248 15.9707 121.248 17.144C121.248 18.4667 121.259 19.704 121.28 20.856C121.323 21.9867 121.387 22.9787 121.472 23.832C121.579 24.664 121.717 25.3253 121.888 25.816C122.059 26.3067 122.272 26.552 122.528 26.552C122.784 26.552 123.072 26.2533 123.392 25.656C123.733 25.0587 124.085 24.2587 124.448 23.256C124.832 22.232 125.227 21.0587 125.632 19.736C126.059 18.4133 126.485 17.0267 126.912 15.576C127.339 14.1253 127.776 12.664 128.224 11.192C128.672 9.69867 129.109 8.29067 129.536 6.968C129.963 5.624 130.379 4.41867 130.784 3.352C131.189 2.264 131.573 1.4 131.936 0.759998C131.979 0.674665 132.053 0.631998 132.16 0.631998C132.224 0.631998 132.32 0.706665 132.448 0.855999C132.491 0.919999 132.576 1.02667 132.704 1.176C132.832 1.304 132.981 1.45333 133.152 1.624C133.323 1.77333 133.493 1.93333 133.664 2.104C133.835 2.25333 133.995 2.37067 134.144 2.456C134.464 2.69067 134.624 2.97867 134.624 3.32C134.624 3.42667 134.613 3.53333 134.592 3.64C134.571 3.74667 134.539 3.864 134.496 3.992C134.325 4.568 134.144 5.34667 133.952 6.328C133.781 7.288 133.621 8.376 133.472 9.592C133.323 10.808 133.195 12.1093 133.088 13.496C133.003 14.8613 132.96 16.2267 132.96 17.592C132.96 18.8293 133.003 20.0347 133.088 21.208C133.195 22.3813 133.355 23.4693 133.568 24.472C133.781 25.4533 134.059 26.328 134.4 27.096C134.763 27.864 135.2 28.4613 135.712 28.888C135.947 29.08 136.107 29.24 136.192 29.368C136.213 29.3893 136.224 29.4213 136.224 29.464C136.224 29.5493 136.149 29.592 136 29.592C135.915 29.592 135.829 29.5707 135.744 29.528C135.744 29.5707 135.723 29.6027 135.68 29.624C135.595 29.6667 135.509 29.688 135.424 29.688C135.125 29.688 134.72 29.5707 134.208 29.336C133.717 29.1227 133.195 28.7707 132.64 28.28C132.107 27.8107 131.595 27.2027 131.104 26.456C130.635 25.7093 130.293 24.8133 130.08 23.768C129.781 22.3173 129.568 20.9733 129.44 19.736C129.333 18.4773 129.28 17.272 129.28 16.12C129.28 15.096 129.312 14.104 129.376 13.144C129.44 12.184 129.515 11.224 129.6 10.264C129.579 10.2427 129.568 10.2213 129.568 10.2C129.525 10.1573 129.504 10.136 129.504 10.136C129.461 10.136 129.429 10.168 129.408 10.232C129.28 10.5307 129.099 11.0533 128.864 11.8C128.651 12.5253 128.395 13.3893 128.096 14.392C127.797 15.3947 127.467 16.4827 127.104 17.656C126.741 18.8293 126.368 20.0027 125.984 21.176C125.6 22.328 125.205 23.4373 124.8 24.504C124.395 25.5707 124 26.488 123.616 27.256C122.891 28.6853 122.144 29.4 121.376 29.4C120.843 29.4 120.384 29.1333 120 28.6C119.616 28.088 119.296 27.4053 119.04 26.552C118.784 25.6773 118.571 24.6853 118.4 23.576C118.251 22.4453 118.133 21.2933 118.048 20.12C117.963 18.9253 117.909 17.752 117.888 16.6C117.867 15.4267 117.856 14.3493 117.856 13.368C117.856 12.28 117.867 11.1387 117.888 9.944C117.909 8.728 117.941 7.448 117.984 6.104C117.856 6.38133 117.685 6.98933 117.472 7.928C117.259 8.86667 116.992 10.008 116.672 11.352C116.352 12.696 115.957 14.1787 115.488 15.8C115.04 17.4213 114.517 19.0533 113.92 20.696C113.344 22.3387 112.672 23.9387 111.904 25.496C111.157 27.032 110.315 28.3973 109.376 29.592C108.437 30.7867 107.403 31.7467 106.272 32.472C105.163 33.1973 103.936 33.56 102.592 33.56C101.675 33.56 100.8 33.368 99.968 32.984C99.1573 32.6 98.4427 32.056 97.824 31.352C97.2267 30.6693 96.7467 29.8587 96.384 28.92C96.0213 27.9813 95.84 26.9467 95.84 25.816C95.84 24.5573 96.096 23.2347 96.608 21.848C97.12 20.44 97.952 19 99.104 17.528ZM140.937 14.2C141.79 14.2 142.43 14.4453 142.857 14.936C143.305 15.4053 143.582 16.0133 143.689 16.76C143.988 16.8453 144.286 16.952 144.585 17.08C144.905 17.208 145.065 17.368 145.065 17.56C145.065 17.7947 145.044 18.136 145.001 18.584C144.958 19.032 144.905 19.544 144.841 20.12C144.777 20.6747 144.724 21.2613 144.681 21.88C144.638 22.4987 144.617 23.096 144.617 23.672C144.617 24.4827 144.681 25.176 144.809 25.752C144.958 26.3067 145.236 26.584 145.641 26.584C146.004 26.584 146.366 26.4453 146.729 26.168C147.092 25.8907 147.358 25.56 147.529 25.176C147.7 25.1333 147.817 25.0373 147.881 24.888C147.945 24.7387 147.998 24.664 148.041 24.664C148.105 24.664 148.137 24.7067 148.137 24.792C148.158 24.856 148.169 24.9093 148.169 24.952C148.169 25.3787 148.084 25.784 147.913 26.168C147.742 26.552 147.518 26.8933 147.241 27.192C146.964 27.4907 146.644 27.7253 146.281 27.896C145.918 28.088 145.556 28.184 145.193 28.184C144.574 28.184 143.998 27.8853 143.465 27.288C142.932 26.6907 142.58 25.6667 142.409 24.216C141.982 25.3467 141.47 26.2853 140.873 27.032C140.297 27.8 139.7 28.184 139.081 28.184C138.526 28.184 138.046 28.0453 137.641 27.768C137.257 27.512 136.937 27.1493 136.681 26.68C136.425 26.2107 136.233 25.6667 136.105 25.048C135.977 24.4293 135.913 23.7787 135.913 23.096C135.913 22.0933 136.03 21.0693 136.265 20.024C136.5 18.9787 136.83 18.0293 137.257 17.176C137.705 16.3013 138.238 15.5867 138.857 15.032C139.476 14.4773 140.169 14.2 140.937 14.2ZM138.729 26.616C139.177 26.616 139.572 26.456 139.913 26.136C140.254 25.816 140.564 25.4 140.841 24.888C141.118 24.3547 141.353 23.768 141.545 23.128C141.737 22.4667 141.897 21.8053 142.025 21.144C142.174 20.4827 142.292 19.8533 142.377 19.256C142.484 18.6587 142.558 18.1467 142.601 17.72C142.068 17.0373 141.556 16.696 141.065 16.696C140.574 16.696 140.126 16.984 139.721 17.56C139.316 18.1147 138.964 18.7973 138.665 19.608C138.388 20.3973 138.164 21.2293 137.993 22.104C137.844 22.9787 137.769 23.736 137.769 24.376C137.769 25.0373 137.844 25.5813 137.993 26.008C138.164 26.4133 138.409 26.616 138.729 26.616ZM149.657 6.648C149.699 6.60533 149.742 6.56267 149.785 6.52C149.849 6.47733 149.923 6.456 150.009 6.456C150.073 6.456 150.115 6.46667 150.137 6.488C150.307 6.616 150.521 6.712 150.777 6.776C151.033 6.84 151.278 6.904 151.513 6.968C151.747 7.032 151.939 7.11733 152.089 7.224C152.259 7.30933 152.345 7.43733 152.345 7.608C152.195 8.376 152.046 9.10133 151.897 9.784C151.747 10.4667 151.587 11.256 151.417 12.152C152.249 12.088 153.059 12.0027 153.849 11.896C154.659 11.7893 155.395 11.6933 156.057 11.608C156.718 11.5013 157.273 11.416 157.721 11.352C158.169 11.2667 158.478 11.224 158.649 11.224C158.841 11.224 159.043 11.2347 159.257 11.256C159.47 11.2773 159.577 11.352 159.577 11.48C159.577 11.5867 159.502 11.6613 159.353 11.704C159.225 11.7253 159.139 11.7787 159.097 11.864C158.99 12.0133 158.915 12.1627 158.873 12.312C158.851 12.376 158.83 12.4293 158.809 12.472C158.659 12.536 158.329 12.6427 157.817 12.792C157.326 12.92 156.718 13.0693 155.993 13.24C155.267 13.3893 154.467 13.5493 153.593 13.72C152.739 13.8907 151.875 14.04 151.001 14.168C150.702 15.704 150.435 17.4 150.201 19.256C149.987 21.112 149.881 23.0747 149.881 25.144C149.881 25.6347 149.977 26.008 150.169 26.264C150.361 26.52 150.595 26.648 150.873 26.648C151.171 26.648 151.491 26.488 151.833 26.168C152.174 25.8267 152.451 25.3147 152.665 24.632C152.707 24.504 152.803 24.44 152.953 24.44C153.038 24.44 153.081 24.472 153.081 24.536C153.102 24.6 153.113 24.6533 153.113 24.696C152.878 25.912 152.515 26.7867 152.025 27.32C151.534 27.8747 151.011 28.152 150.457 28.152C149.966 28.152 149.55 27.992 149.209 27.672C148.889 27.352 148.622 26.9147 148.409 26.36C148.217 25.784 148.078 25.112 147.993 24.344C147.907 23.576 147.865 22.744 147.865 21.848C147.865 20.76 147.918 19.5547 148.025 18.232C148.153 16.9093 148.291 15.6613 148.441 14.488C148.078 14.5307 147.726 14.5627 147.385 14.584C147.043 14.6053 146.723 14.616 146.425 14.616C145.571 14.616 144.942 14.456 144.537 14.136C144.131 13.816 143.929 13.2187 143.929 12.344C143.929 12.1947 143.95 12.0347 143.993 11.864C144.035 11.672 144.11 11.576 144.217 11.576C144.281 11.576 144.345 11.6187 144.409 11.704C144.899 11.9173 145.497 12.0667 146.201 12.152C146.883 12.2373 147.63 12.28 148.441 12.28H148.761C148.995 10.744 149.198 9.48533 149.369 8.504C149.561 7.52267 149.657 6.904 149.657 6.648ZM153.634 22.584C153.634 21.5813 153.773 20.568 154.05 19.544C154.327 18.4987 154.711 17.56 155.202 16.728C155.693 15.8747 156.269 15.1813 156.93 14.648C157.591 14.1147 158.306 13.848 159.074 13.848C159.714 13.848 160.247 14.104 160.674 14.616C161.122 15.128 161.389 15.928 161.474 17.016C161.517 17.2293 161.538 17.4 161.538 17.528C161.538 18.04 161.357 18.4667 160.994 18.808C160.631 19.1493 160.173 19.32 159.618 19.32C159.277 19.32 159.031 19.2773 158.882 19.192C158.754 19.0853 158.69 18.9893 158.69 18.904C158.69 18.84 158.722 18.808 158.786 18.808C158.85 18.808 158.925 18.744 159.01 18.616C159.117 18.4667 159.213 18.296 159.298 18.104C159.383 17.8907 159.458 17.6773 159.522 17.464C159.586 17.2293 159.618 17.016 159.618 16.824C159.618 16.5467 159.543 16.376 159.394 16.312C158.967 16.3547 158.541 16.6 158.114 17.048C157.687 17.4747 157.303 18.0293 156.962 18.712C156.621 19.3733 156.343 20.1093 156.13 20.92C155.917 21.7307 155.81 22.5093 155.81 23.256C155.81 23.8747 155.885 24.4187 156.034 24.888C156.183 25.336 156.375 25.72 156.61 26.04C156.866 26.3387 157.143 26.5733 157.442 26.744C157.762 26.8933 158.082 26.968 158.402 26.968C158.978 26.968 159.49 26.712 159.938 26.2C160.407 25.6667 160.642 24.8667 160.642 23.8C160.642 23.1387 160.514 22.4027 160.258 21.592C160.258 21.5707 160.269 21.5387 160.29 21.496C160.333 21.432 160.45 21.4 160.642 21.4C161.111 21.4 161.495 21.6987 161.794 22.296C162.114 22.8933 162.274 23.576 162.274 24.344C162.274 25.0267 162.167 25.6347 161.954 26.168C161.762 26.68 161.495 27.1067 161.154 27.448C160.813 27.7893 160.418 28.0453 159.97 28.216C159.522 28.3867 159.053 28.472 158.562 28.472C157.986 28.472 157.399 28.344 156.802 28.088C156.226 27.8533 155.703 27.4907 155.234 27C154.765 26.5093 154.381 25.9013 154.082 25.176C153.783 24.4293 153.634 23.5653 153.634 22.584ZM167.47 3.832C167.363 4.74933 167.246 5.74133 167.118 6.808C167.011 7.87467 166.894 8.96267 166.766 10.072C166.659 11.1813 166.552 12.28 166.446 13.368C166.339 14.456 166.243 15.48 166.158 16.44C166.072 17.4 166.008 18.2747 165.966 19.064C165.923 19.832 165.902 20.4507 165.902 20.92C165.902 21.0053 165.934 21.048 165.998 21.048C166.019 21.048 166.104 20.9093 166.254 20.632C166.424 20.3333 166.616 19.96 166.83 19.512C167.064 19.064 167.32 18.5947 167.598 18.104C167.896 17.592 168.184 17.112 168.462 16.664C168.76 16.216 169.038 15.8533 169.294 15.576C169.571 15.2773 169.816 15.128 170.03 15.128C170.115 15.128 170.19 15.1493 170.254 15.192C170.339 15.2133 170.403 15.2453 170.446 15.288C170.51 15.3307 170.563 15.3733 170.606 15.416C170.926 15.4373 171.214 15.5013 171.47 15.608C171.726 15.6933 171.854 15.9067 171.854 16.248C171.683 17.528 171.544 18.7333 171.438 19.864C171.352 20.9947 171.31 22.104 171.31 23.192C171.31 23.5973 171.32 24.0027 171.342 24.408C171.363 24.8133 171.416 25.1867 171.502 25.528C171.587 25.848 171.694 26.1147 171.822 26.328C171.95 26.5413 172.131 26.648 172.366 26.648C172.686 26.648 172.974 26.52 173.23 26.264C173.507 25.9867 173.752 25.6987 173.966 25.4C174.179 25.08 174.35 24.792 174.478 24.536C174.606 24.2587 174.702 24.12 174.766 24.12C174.894 24.12 174.979 24.184 175.022 24.312C175.064 24.4187 175.086 24.5147 175.086 24.6C175.086 25.112 174.968 25.592 174.734 26.04C174.52 26.488 174.243 26.8827 173.902 27.224C173.582 27.5653 173.219 27.832 172.814 28.024C172.43 28.216 172.078 28.312 171.758 28.312C171.054 28.312 170.499 28.0667 170.094 27.576C169.71 27.1067 169.411 26.5413 169.198 25.88C169.006 25.1973 168.888 24.4933 168.846 23.768C168.803 23.0427 168.782 22.4453 168.782 21.976C168.782 21.2293 168.792 20.5147 168.814 19.832C168.856 19.1493 168.899 18.584 168.942 18.136C168.942 18.072 168.931 17.9653 168.91 17.816C168.888 17.6667 168.856 17.592 168.814 17.592C168.771 17.592 168.654 17.752 168.462 18.072C168.27 18.3707 168.067 18.7227 167.854 19.128C167.64 19.5333 167.427 19.9387 167.214 20.344C167.022 20.728 166.894 21.0053 166.83 21.176C166.467 21.9867 166.19 22.8827 165.998 23.864C165.827 24.824 165.742 25.7093 165.742 26.52V28.024C165.742 28.2587 165.752 28.472 165.774 28.664C165.774 29.0267 165.699 29.208 165.549 29.208C165.528 29.208 165.411 29.144 165.198 29.016C165.006 28.9093 164.782 28.7707 164.526 28.6C164.27 28.4507 164.024 28.3013 163.79 28.152C163.555 28.0027 163.405 27.896 163.341 27.832C163.363 27.576 163.395 27 163.438 26.104C163.502 25.208 163.576 24.1093 163.662 22.808C163.768 21.5067 163.886 20.0773 164.014 18.52C164.142 16.9413 164.259 15.352 164.366 13.752C164.494 12.152 164.611 10.6053 164.718 9.112C164.846 7.59733 164.952 6.25333 165.038 5.08C165.123 3.90667 165.198 2.968 165.262 2.264C165.326 1.56 165.358 1.208 165.358 1.208C165.464 1.208 165.635 1.304 165.87 1.496C166.104 1.66667 166.339 1.88 166.574 2.136C166.83 2.37067 167.043 2.616 167.214 2.872C167.406 3.128 167.502 3.33067 167.502 3.48C167.502 3.62933 167.491 3.74667 167.47 3.832Z" fill="#524798"/>
<path d="M42.88 28.84L42.336 28.936L41.536 29V28.936L41.504 28.968L41.44 28.904L41.248 28.808H41.152L41.12 28.744V28.68H41.088L41.024 28.648V28.616L41.056 28.584H41.088L41.056 28.392L40.992 27.976L41.024 27.624V26.568L41.152 25.544L41.984 25.576L43.008 25.544L43.616 25.576L43.68 25.544L43.712 25.512L43.616 24.136L43.712 22.728V21.352L43.744 19.976L43.68 18.6L43.776 17.224L43.712 15.848V14.504L43.776 13.128L43.648 11.656V10.216L42.88 10.184L41.856 10.248L40.96 10.28L41.024 9.16L40.992 8.04V7.688L41.152 7.496L41.056 7.208L41.024 7.048H41.056L41.024 7.016L41.088 6.984V6.952L41.184 6.92L41.152 6.792H41.248L41.44 6.664L41.504 6.6V6.664H41.536L42.208 6.696L42.752 6.664L43.872 6.76L44.032 6.664L44.192 6.632L44.256 6.696H44.352L44.384 6.568L44.416 6.664L44.448 6.6L44.672 6.632L44.928 6.664H45.472H45.856H46.56V6.568H46.688L47.424 6.632L48.608 6.536L49.792 6.6L50.944 6.536L51.36 6.6H51.648L51.936 6.632H52.352L52.416 6.728L52.352 6.984L52.32 7.208L52.288 7.336V8.392L52.256 9.448H52.192H52.224L52.288 10.888L52.352 12.488L52.288 13.544L52.352 14.6L52.896 13.608L53.408 12.584L53.92 11.528L54.144 11.144L54.368 10.856L54.464 10.6L54.592 10.312L54.784 9.96H54.432H53.312L53.216 9.896L53.184 9.384L53.312 8.488V7.592V7.336L53.408 7.112L53.376 6.92L53.28 6.632H53.408H53.568L53.696 6.6L53.76 6.664H55.008V6.728L55.04 6.76L56.48 6.664L57.984 6.632H59.456L60.032 6.696H60.224L61.184 6.792L62.144 6.696L62.976 6.76L63.936 6.728L64.896 6.664H65.76L65.696 7.688L65.728 8.712L65.76 9.032L65.6 9.192L65.696 9.448L65.728 9.608H65.664L65.632 9.64L65.664 9.672H65.632L65.568 9.704L65.536 9.736L65.6 9.864L65.504 9.896L65.28 9.96L65.248 9.928L65.216 9.96V9.896L64.576 9.928H64.032H63.392H63.168L62.976 10.44L62.368 11.624L61.856 12.936L61.312 13.896L60.672 14.824L59.936 16.2L59.392 17.576L59.104 17.832L59.424 18.088L60 19.4L60.768 20.808L61.344 21.736L61.856 22.728L62.4 24.008L63.008 25.192L63.168 25.704L63.392 25.672L64.032 25.704L64.576 25.8L65.216 25.64L65.152 25.704L65.248 25.672L65.28 25.704L65.504 25.768L65.568 25.8L65.6 25.864L65.568 25.96L65.632 26.024L65.6 25.992L65.664 26.056V26.024V25.992L65.696 26.024V25.992L65.664 26.056L65.632 26.216L65.536 26.472L65.696 26.632L65.76 26.952L65.696 27.976L65.792 29L64.896 28.968L63.936 29L62.976 28.936L62.144 28.872L61.184 28.904L60.224 28.936L60 28.872L59.456 28.968L57.984 29.032H56.48L55.04 28.936L54.976 28.904L55.008 29.032L53.76 29L53.696 29.032L53.536 28.936L53.408 29.096L53.28 29.032L53.376 28.776V28.552V28.328L53.344 28.072L53.28 27.176L53.216 26.28L53.344 25.768L53.312 25.704L54.432 25.672L54.816 25.768L54.88 25.672L54.624 25.32L54.464 25.064L54.304 24.84L54.08 24.552L53.984 24.104L53.056 22.664L52.608 21.512L52.192 20.456L52.224 20.712L52.128 22.408L52.192 23.848L52.16 25.352L52.256 25.32L52.32 25.384L52.224 25.352L52.192 25.416V25.672L52.288 26.12L52.192 26.472L52.32 27.368L52.256 29.064L52.288 29.032L51.744 29.064L51.616 29.032L51.552 29.064L51.52 29L51.008 29.032L51.2 28.968H50.976L50.144 29L48.768 29.032L47.456 29L47.072 29.032V28.968L45.984 28.936H45.6L45.056 28.872L44.576 28.968L44.192 29L44.128 28.936L44.16 28.968L44.128 28.872L43.968 28.904L43.456 28.872L43.392 28.936L43.36 28.872L42.88 28.84ZM54.944 28.968L54.88 28.936L54.912 29L54.944 28.968ZM51.616 28.936H51.2L51.424 29L51.616 28.968V28.936ZM83.582 27.368L83.646 28.296V28.84L83.55 28.904L82.238 28.968H81.278L81.118 29L81.054 29.064H80.51L80.414 29.032L80.35 29L80.286 29.064L78.91 29L77.534 29.032L76.222 28.968L75.582 28.904L74.718 28.936H74.334L74.206 29L74.078 28.872L72.734 28.968L72.35 28.872L71.838 28.904H71.358L70.974 28.968L70.91 28.936L70.942 28.904L70.878 28.936L70.75 28.84L70.238 28.872H70.142H69.662L69.118 28.936H68.318H68.254V28.968L68.222 28.936L67.998 28.808H67.934L67.87 28.744L67.838 28.648V28.616H67.87L67.838 28.584V28.52L67.902 28.552L67.774 28.392L67.806 27.944V27.592L67.838 26.536L67.902 25.512H68.766L69.79 25.48L70.398 25.512V25.48H70.43L70.462 24.104L70.494 22.728L70.526 21.352L70.59 19.976L70.526 18.6L70.622 17.224L70.558 15.848L70.526 14.504L70.558 13.128L70.462 11.688L70.494 10.184L69.662 10.28L68.638 10.248L67.71 10.28V9.16L67.742 8.072L67.838 7.72L67.902 7.528L67.838 7.24L67.87 7.048L67.838 7.016H67.87V6.984L67.838 6.952L67.902 6.888V6.792H67.998L68.222 6.696H68.286L68.318 6.664V6.696L68.958 6.728H69.534L70.238 6.664L70.654 6.696L70.814 6.728L70.974 6.664L71.006 6.632L71.134 6.696V6.664H71.198L71.422 6.728H71.71L72.254 6.664L72.638 6.632L73.022 6.664H73.854L73.982 6.632L74.11 6.664L74.238 6.632L74.622 6.664L75.454 6.632H76.414H77.758L77.854 6.696H78.174L79.102 6.6H80.414L80.798 6.664L81.246 6.792H81.278L82.398 6.696H83.518L83.646 6.76L83.582 7.336L83.55 8.296L83.486 9.256L83.518 9.576L83.55 9.8L83.422 10.024L83.518 10.344L83.454 10.312H83.294H83.134H83.07L81.758 10.28L81.822 10.216L81.758 10.248H80.958L81.054 11.368L81.022 12.488L81.182 13.8L81.15 15.144V16.424V17.672L80.958 18.664L81.086 19.048L80.926 20.712L80.958 22.376L81.022 23.848L80.958 25.32L81.022 25.288L80.99 25.32H81.022V25.48L81.694 25.576L83.07 25.544H83.486L83.518 25.736V25.96V26.184V26.44L83.582 27.368ZM109.362 8.2L109.298 8.424L109.362 9.672L109.298 10.12L109.33 10.312V10.408L109.298 10.472L109.33 11.176L109.234 11.4L109.362 11.688L109.202 11.944L109.298 12.072L109.266 12.168L109.202 12.264L109.33 12.84L109.234 13.16L109.266 13.512L109.298 13.416L109.362 13.512V13.576L109.202 13.672H109.138L109.106 13.704L109.042 13.768V13.736H109.01L108.978 13.768H108.914L108.946 13.8L108.754 13.736L108.498 13.64L108.306 13.768L107.986 13.8H106.93L105.842 13.832L105.938 13.32L105.874 12.776V12.232V11.752L105.938 11.464L104.754 11.496L104.274 11.432L102.77 11.528L102.706 11.496L102.674 11.464L102.61 12.488L102.706 13.8L102.578 15.144L102.706 16.424V17.704L102.482 18.696L102.61 19.048L102.546 20.744L102.418 22.408L102.482 23.88L102.45 25.352L102.546 25.288L102.578 25.352H102.546V25.512H103.218L103.25 25.544H104.594H105.042V25.768L105.01 25.992L105.106 26.216V26.504L105.202 27.4L105.106 28.36L105.17 28.904H105.074L103.794 29.064L102.802 29.032H102.674L102.578 29.064L102.034 29.096L101.938 29.128L101.842 29.096L101.81 29.064L100.434 29.128L99.0578 29.032L97.7138 29.096L97.0738 29.064L96.2098 28.936L95.8578 28.968L95.6978 29.064L95.6018 28.968H94.2578L93.8738 29.032L93.3298 28.968L92.9138 29L92.4658 28.968H92.4338H92.3698L92.2418 28.904L91.7298 28.872L91.6658 29L91.6338 28.904L91.1538 28.872L90.6098 28.936L89.9378 28.968H89.9058L89.8418 28.936L89.6178 28.904L89.5538 28.84L89.4898 28.776L89.5858 28.68L89.4898 28.744V28.68L89.4578 28.616V28.68L89.4898 28.616V28.424L89.5538 28.168L89.3618 28.008L89.4258 27.656L89.3618 26.6L89.2977 25.512H90.2578L91.2818 25.64L91.8898 25.544L91.8258 25.512L91.9218 25.544L91.9538 24.136L91.9218 22.76L92.0178 21.384L92.0818 19.976L92.0178 18.6L91.9858 17.224L92.0498 15.88L91.9858 14.504V13.128L91.9218 11.336L91.9538 11.4L91.6978 11.432L91.0578 11.368L90.2258 11.464L89.2338 11.496L88.7538 11.464L88.7858 11.688L88.6898 11.976L88.7538 12.072L88.6898 12.168L88.7218 12.264L88.6898 12.84L88.7218 13.16L88.6898 13.512H88.7538H88.8177V13.576L88.6898 13.672L88.6258 13.704L88.5618 13.672L88.5298 13.768L88.4658 13.704L88.4338 13.768H88.4018H88.2418L87.9538 13.736L87.7938 13.832L87.4418 13.8L86.3858 13.768L85.3298 13.864L85.3938 13.32L85.3298 12.776L85.3938 12.232L85.3618 11.752L85.4578 11.208L85.3298 10.664L85.4258 10.536L85.2338 10.216L85.2978 9.384L85.3298 8.52L85.3938 7.72L85.3298 7.688L85.5538 6.92V6.76V6.696L85.7458 6.728H85.9058L85.9698 6.696L86.0018 6.664L86.6738 6.696H86.7378L87.1858 6.632L88.1458 6.76L88.6898 6.664L88.7218 6.76L88.8177 6.696H88.8498L88.9138 6.664L89.1378 6.728L89.1698 6.632L89.2977 6.696L89.3618 6.568L89.3938 6.664H89.7138L89.9378 6.6L90.3218 6.696L91.1218 6.632H91.9538L92.0818 6.6L92.2098 6.696L92.3378 6.664L92.7218 6.6H93.5858L94.5458 6.632L95.8898 6.568L95.9538 6.632L96.3058 6.568H96.9778L97.2338 6.664L97.9378 6.568L98.5458 6.632L99.2818 6.6L99.3778 6.536L99.6978 6.632L100.626 6.536L101.074 6.568L101.938 6.6H102.002L103.346 6.632L103.442 6.6H103.794L104.722 6.568L106.034 6.632H106.418L106.674 6.728L106.834 6.664L107.73 6.632L108.69 6.696L109.234 6.664V6.728L109.266 7.336L109.17 7.912L109.138 7.976H109.202L109.362 8.2ZM101.49 29.032L101.586 29H101.17L101.49 29.032Z" fill="#524798"/>
</svg>
